<svg xmlns="http://www.w3.org/2000/svg" viewBox="1392.713 2104.631 25.616 23.96">
  <defs>
    <style>
      .cls-1 {
        fill: #b0e046;
      }

      .cls-2 {
        fill: #6ab742;
      }

      .cls-3 {
        fill: #70c449;
      }

      .cls-4 {
        fill: #43a838;
      }

      .cls-5 {
        opacity: 0.15;
      }

      .cls-6 {
        fill: #231f20;
      }
    </style>
  </defs>
  <g id="lettuce" transform="matrix(0.951, 0.309, -0.309, 0.951, 1408.128, 2074.672)">
    <path id="Path_147" data-name="Path 147" class="cls-1" d="M124.873,106.88a8.587,8.587,0,0,1,4.185-3.55,4.851,4.851,0,0,0-8.884.616A9.149,9.149,0,0,1,124.873,106.88Z" transform="translate(-115.255 -66.374)"/>
    <path id="Path_148" data-name="Path 148" class="cls-2" d="M30.281,76.692a16.143,16.143,0,0,1,3.731.69l-.05-.017a4.853,4.853,0,0,1,4.757-3.235c-4.38-2.717-6.936.082-7.94,1.652" transform="translate(-29.042 -39.794)"/>
    <path id="Path_149" data-name="Path 149" class="cls-3" d="M179.729,41.093h0a7.7,7.7,0,0,1,2.319,1,4.828,4.828,0,0,1,3.121,1.3,4.878,4.878,0,0,1,1.005,1.323,8.544,8.544,0,0,1,5.152-.359c.493-3.915-2.07-3.627-4.97-4.494a7.692,7.692,0,0,0-5.269.49" transform="translate(-172.372 -7.758)"/>
    <path id="Path_150" data-name="Path 150" class="cls-4" d="M214.134,161.009a9.45,9.45,0,0,0,2.707-10.275,8.554,8.554,0,0,0-10.4,12.478,9.519,9.519,0,0,0,1.135.113,9.41,9.41,0,0,0,5.8-1.723" transform="translate(-196.751 -113.78)"/>
    <g id="Group_61" data-name="Group 61" class="cls-5" transform="translate(8.398 36.357)">
      <path id="Path_151" data-name="Path 151" class="cls-6" d="M207.49,163.21a8.554,8.554,0,0,1,6.732-13.059l-.2-.01a8.554,8.554,0,0,0-7.581,13.069,9.529,9.529,0,0,0,1.135.113q.45.017.891-.009A9.681,9.681,0,0,1,207.49,163.21Z" transform="translate(-205.147 -150.135)"/>
    </g>
    <path id="Path_152" data-name="Path 152" class="cls-4" d="M17.432,174.952a8.559,8.559,0,0,1-.072-8.926S15,162.614,8.242,162.378a10.84,10.84,0,0,0-.163,1.51c-.006.147-.007.293-.007.439a14.775,14.775,0,0,0,1.409,5.294,10.773,10.773,0,0,0,8.242,5.387l.1,0C17.693,174.989,17.562,174.972,17.432,174.952Z" transform="translate(-7.743 -125.519)"/>
    <g id="Group_62" data-name="Group 62" class="cls-5" transform="translate(0.329 36.859)">
      <path id="Path_153" data-name="Path 153" class="cls-6" d="M17.314,174.755a10.788,10.788,0,0,1-6.784-5.134,14.776,14.776,0,0,1-1.409-5.294c0-.146,0-.292.007-.439a10.843,10.843,0,0,1,.152-1.446c-.334-.029-.68-.051-1.038-.064a10.84,10.84,0,0,0-.163,1.51c-.006.147-.007.293-.007.439a14.775,14.775,0,0,0,1.409,5.294,10.772,10.772,0,0,0,8.242,5.387l.1,0c-.131-.016-.262-.033-.392-.053Q17.372,174.855,17.314,174.755Z" transform="translate(-8.072 -162.379)"/>
    </g>
    <g id="Group_63" data-name="Group 63" transform="translate(-0.001 31.5)">
      <path id="Path_154" data-name="Path 154" class="cls-6" d="M20.4,36.844a.331.331,0,0,0-.19-.2,8.88,8.88,0,0,0-.9-.3,3.369,3.369,0,0,0-.889-3.064,6.438,6.438,0,0,0-2.85-1.116c-.484-.112-.984-.229-1.5-.382a8,8,0,0,0-5.5.5l-.018.009-.25.129a.331.331,0,1,0,.3.587l.24-.125a7.349,7.349,0,0,1,5.031-.472c.531.159,1.042.277,1.536.392,2.129.495,3.451.8,3.239,3.382a8.866,8.866,0,0,0-1.035-.141h-.016l-.155-.01-.177-.008-.227-.006h-.013a8.8,8.8,0,0,0-3.09.519l-.015-.025-.044-.071-.053-.084-.035-.053c-.022-.033-.044-.066-.067-.1l-.014-.019a5.209,5.209,0,0,0-.7-.8,3.915,3.915,0,0,1,.479-.221l.03-.011a6.051,6.051,0,0,1,2.477-.336.331.331,0,1,0,.035-.66,7.129,7.129,0,0,0-2.152.192l.224-.784a.33.33,0,1,0-.635-.182l-.348,1.218a4.154,4.154,0,0,0-.654.341,5.175,5.175,0,0,0-1.27-.655l-.02-.007-.147-.049-.024-.007q-.124-.038-.251-.07l-.067-.017-.1-.023-.1-.021-.091-.017-.132-.022-.064-.01q-.1-.014-.2-.024l-.057-.005-.151-.012-.033,0-.072-.043-.058-.035-.111-.064q-.1-.057-.2-.11l-.009,0-.144-.076,0,0a5.561,5.561,0,0,0-4.813-.449A6.528,6.528,0,0,0,1.5,35.743a.331.331,0,1,0,.553.362c.971-1.486,3.046-3.582,6.467-2.016l.007,0a5.136,5.136,0,0,0-1.978.828l-.041.03-.031.022-.115.085L6.3,35.1l-.076.061-.093.077-.035.03a5.169,5.169,0,0,0-1.3,1.712l-.015.033q-.028.06-.054.121l-.013.03A16.264,16.264,0,0,0,2.1,36.648l-.022,0-.243-.027-.074-.008-.221-.021-.174-.014-.1-.008h0c-.243-.018-.492-.032-.747-.04a.33.33,0,0,0-.337.272,11.214,11.214,0,0,0-.168,1.556C0,38.493,0,38.641,0,38.808c0,.009,0,.018,0,.027A15.16,15.16,0,0,0,1.443,44.25l.008.015a11.132,11.132,0,0,0,8.495,5.553l.034,0h.088c.253.029.5.05.744.059q.189.007.377.007a9.683,9.683,0,0,0,5.631-1.791.331.331,0,1,0-.382-.54,9.038,9.038,0,0,1-5.6,1.663c-.229-.009-.459-.026-.7-.054l-.022,0-.229-.029a8.2,8.2,0,0,1-.533-1.056v0Q9.33,48,9.3,47.938l0,0-.033-.085-.02-.053-.026-.07L9.2,47.657l-.016-.047a8.16,8.16,0,0,1-.348-1.378l-.007-.046c-.005-.033-.01-.066-.015-.1S8.8,46.029,8.8,46s-.006-.04-.008-.061-.007-.06-.01-.089,0-.038-.007-.057q-.008-.07-.014-.141v-.007q-.012-.134-.019-.269c0-.009,0-.018,0-.027q-.015-.29-.01-.583,0-.081,0-.163c0-.081.007-.162.013-.242,0-.02,0-.039,0-.058q.007-.1.016-.192l.005-.051q.012-.112.026-.223l0-.013a8.261,8.261,0,0,1,.346-1.5l0-.008c.023-.07.047-.139.073-.208l.023-.061c.018-.048.037-.1.056-.145l.037-.092.021-.05a8.235,8.235,0,0,1,7.9-5.061l.192.01.033,0,.177.013h.007a8.294,8.294,0,0,1,1.21.2l.029.005a8.2,8.2,0,0,1,.922.284,9.12,9.12,0,0,1-2.625,9.74.331.331,0,1,0,.437.5,9.78,9.78,0,0,0,2.762-10.6Zm-15.047.523a4.525,4.525,0,0,1,3.968-2.7h.022l.146,0q.086,0,.174,0c.06,0,.12.006.179.011l.051,0,.143.015.039,0c.055.007.11.016.165.025l.067.012.1.02.076.016.141.034.1.028.053.015a4.54,4.54,0,0,1,1.85,1.081l.009.009q.132.128.254.267l.041.047.062.074.054.068.073.1.065.089.04.058.063.1.03.046.008.013a8.966,8.966,0,0,0-3.748,3.15,10.12,10.12,0,0,0-4.228-2.58ZM2.029,43.945A14.5,14.5,0,0,1,.66,38.793c0-.153,0-.288.007-.412A10.548,10.548,0,0,1,.778,37.2c.162.008.321.019.478.03l.178.014.114.01.137.013a14.156,14.156,0,0,1,4.883,1.316,8.413,8.413,0,0,1,2.651,1.951,8.8,8.8,0,0,0-.4.809l-.008.018c-.025.058-.05.116-.074.175-.013.031-.025.062-.037.094s-.031.076-.045.114q-.045.117-.086.235h0c-.029.083-.056.166-.083.25v0a8.826,8.826,0,0,0-.339,1.535l0,.034q-.013.106-.024.212c0,.018,0,.036-.006.055-.006.066-.012.132-.016.2,0,.02,0,.039,0,.059-.006.084-.01.168-.013.252q0,.086,0,.171c-.268-.123-.521-.252-.76-.386L6.775,41.8a.331.331,0,0,0-.647.135l.407,1.952a9.236,9.236,0,0,1-2.086-1.892.331.331,0,0,0-.534.389,10.491,10.491,0,0,0,4.171,3.1c.005.084.012.168.019.252v.006c.008.087.018.173.028.259l0,.041q.016.124.035.247l.007.047q.02.124.043.246l.007.035q.024.124.052.248l0,.012c.019.084.039.167.061.25l.011.042q.031.12.066.238l.014.046q.036.119.074.238l.011.033q.039.118.082.235l.006.017c.029.08.06.159.092.238l.017.042q.046.114.1.227l.02.044q.051.115.105.228l.014.029q.054.112.112.223l.007.015A10.478,10.478,0,0,1,2.029,43.945Z" transform="translate(0.001 -31.5)"/>
      <path id="Path_155" data-name="Path 155" class="cls-6" d="M247.351,258.647a.33.33,0,0,0,.448.135,16.231,16.231,0,0,0,2.669-1.8l.014-.009a.332.332,0,0,0,.042-.038,15.926,15.926,0,0,0,2.358-2.438l.018,0,1.747-.307a.331.331,0,0,0-.114-.651l-1.091.192a12,12,0,0,0,1.463-2.79.331.331,0,1,0-.629-.2,13.847,13.847,0,0,1-3.915,5.471,5.683,5.683,0,0,1-.642-3.627.33.33,0,1,0-.653-.1,6.27,6.27,0,0,0,.779,4.163,15.588,15.588,0,0,1-2.36,1.557A.331.331,0,0,0,247.351,258.647Z" transform="translate(-237.187 -241.544)"/>
      <path id="Path_156" data-name="Path 156" class="cls-6" d="M172.331,138.747a.331.331,0,0,0-.357-.3,3.548,3.548,0,0,0-2.526,1.294.33.33,0,1,0,.512.418,2.875,2.875,0,0,1,2.069-1.053A.33.33,0,0,0,172.331,138.747Z" transform="translate(-162.439 -134.066)"/>
    </g>
  </g>
</svg>
