<svg xmlns="http://www.w3.org/2000/svg" viewBox="1589 3570 50 50">
  <defs>
    <style>
      .cls-1 {
        fill: #1bd741;
      }

      .cls-2 {
        fill: #fff;
      }
    </style>
  </defs>
  <g id="whatsapp" transform="translate(1589 3570)">
    <rect id="Rectangle_104" data-name="Rectangle 104" class="cls-1" width="50" height="50"/>
    <g id="Group_118" data-name="Group 118" transform="translate(7.515 7.496)">
      <path id="Path_247" data-name="Path 247" class="cls-2" d="M68.494,103.329l2.449-8.7a17.456,17.456,0,1,1,6.521,6.389Zm9.429-5.486.535.326a14.5,14.5,0,1,0-4.667-4.562l.36.561-1.41,5.009Z" transform="translate(-68.494 -68.321)"/>
      <path id="Path_248" data-name="Path 248" class="cls-2" d="M151.521,152.889l-1.133-.062a1.37,1.37,0,0,0-.974.333,5.162,5.162,0,0,0-1.7,2.6c-.4,1.792.219,3.986,1.829,6.181a18.387,18.387,0,0,0,9.911,7.2,4.83,4.83,0,0,0,4.09-.506,3.658,3.658,0,0,0,1.592-2.322l.181-.845a.587.587,0,0,0-.328-.656l-3.83-1.765a.587.587,0,0,0-.711.175l-1.5,1.949a.43.43,0,0,1-.484.144,11.773,11.773,0,0,1-6.371-5.451.435.435,0,0,1,.055-.485l1.437-1.662a.587.587,0,0,0,.1-.615l-1.651-3.862A.587.587,0,0,0,151.521,152.889Z" transform="translate(-138.919 -143.554)"/>
    </g>
  </g>
</svg>
