<?xml version="1.0" standalone="no"?>
<!DOCTYPE svg PUBLIC "-//W3C//DTD SVG 1.1//EN" "http://www.w3.org/Graphics/SVG/1.1/DTD/svg11.dtd" >
<svg xmlns="http://www.w3.org/2000/svg" xmlns:xlink="http://www.w3.org/1999/xlink" version="1.1">
<metadata>
Created by FontForge 20161116 at Fri Jul  8 12:23:37 2016
 By Jimmy Wärting
Copyright (c) 2001. Nokia Corporation.  Part of the data is licenced from Monotype Imaging Inc., Copyright (c) 1999-2006. All rights reserved. 
</metadata>
<defs>
<font id="Cocon-Regular" horiz-adv-x="0" >
  <font-face 
    font-family="Cocon-Regular"
    font-weight="400"
    font-stretch="normal"
    units-per-em="2048"
    panose-1="2 11 5 6 3 4 4 3 2 4"
    ascent="1638"
    descent="-410"
    x-height="1106"
    cap-height="1491"
    bbox="-1241 -1014 15999 2095"
    underline-thickness="133"
    underline-position="-220"
    unicode-range="U+0020-FEFC"
  />
<missing-glyph horiz-adv-x="500" 
d="M63 0v1280h1024v-1280h-1024zM95 32h960v1216h-960v-1216z" />
    <glyph glyph-name="uniFB50" unicode="&#x671;" horiz-adv-x="498" arabic-form="isolated" 
d="M336 200h-174v1261h174v-1261zM117 1694q57 95 126 143.5t134 48.5t106.5 -35.5t41.5 -85.5q0 -149 -365 -149l-26 -64h-80l26 64h-110v78h147zM199 1694q117 0 182.5 19t65.5 52q0 18 -18.5 30.5t-51.5 12.5q-44 0 -93 -29t-85 -85z" />
    <glyph glyph-name="uniFB51" unicode="&#x671;" horiz-adv-x="559" arabic-form="final" 
d="M561 200h-65q-179 0 -256.5 95t-77.5 300v866h174v-862q0 -204 151 -204h74v-195zM117 1694q57 95 126 143.5t134 48.5t106.5 -35.5t41.5 -85.5q0 -149 -365 -149l-26 -64h-80l26 64h-110v78h147zM199 1694q117 0 182.5 19t65.5 52q0 18 -18.5 30.5t-51.5 12.5
q-44 0 -93 -29t-85 -85z" />
    <glyph glyph-name="uniFB56" unicode="&#x67e;" horiz-adv-x="1579" arabic-form="isolated" 
d="M1444 702q8 -45 8 -111q0 -212 -192 -352.5t-521 -140.5q-294 0 -453 113.5t-159 320.5q0 119 39 211l164 -41q-29 -77 -29 -168q0 -242 438 -242q236 0 387.5 94.5t151.5 245.5q0 44 -8 70h174zM981 -138h-147v147h147v-147zM713 -138h-148v147h148v-147zM846 -347h-148
v147h148v-147z" />
    <glyph glyph-name="pehfinalarabic" unicode="&#x67e;" horiz-adv-x="1614" arabic-form="final" 
d="M1616 200h-4q-195 0 -273 150q-175 -252 -600 -252q-294 0 -453 113.5t-159 320.5q0 119 39 211l164 -41q-29 -77 -29 -168q0 -242 438 -242q236 0 387.5 94.5t151.5 245.5q0 43 -6 70h174q6 -48 6 -111q0 -196 152 -196h12v-195zM945 -138h-147v147h147v-147zM677 -138
h-148v147h148v-147zM810 -347h-148v147h148v-147z" />
    <glyph glyph-name="pehinitialarabic" unicode="&#x67e;" horiz-adv-x="565" arabic-form="initial" 
d="M397 595q0 -215 -82 -305t-252 -90h-65v195h74q151 0 151 204v183h174v-187zM480 -56h-147v147h147v-147zM212 -56h-148v147h148v-147zM345 -265h-148v147h148v-147z" />
    <glyph glyph-name="pehmedialarabic" unicode="&#x67e;" horiz-adv-x="498" arabic-form="medial" 
d="M500 200h-4q-170 0 -248 84q-78 -84 -246 -84h-4v195h12q152 0 152 204v183h174v-183q0 -204 151 -204h13v-195zM463 -56h-147v147h147v-147zM195 -56h-148v147h148v-147zM328 -265h-148v147h148v-147z" />
    <glyph glyph-name="uniFB7A" unicode="&#x686;" horiz-adv-x="1114" arabic-form="isolated" 
d="M1155 -278q-222 -70 -444 -70q-269 0 -437 145.5t-168 368.5q0 237 200.5 416.5t514.5 231.5q-158 75 -263.5 97t-254.5 22q-65 0 -151 -20l-33 190q78 25 164 25q147 0 279 -54t407 -225v-147q-688 -113 -688 -538q0 -137 119 -227t309 -90q174 0 415 61zM961 239h-147
v147h147v-147zM693 239h-148v147h148v-147zM826 30h-148v147h148v-147z" />
    <glyph glyph-name="tchehfinalarabic" unicode="&#x686;" horiz-adv-x="1348" arabic-form="final" 
d="M1351 200h-81q-123 0 -245 81t-333 351q-412 -141 -412 -472q0 -137 119.5 -225t309.5 -88q174 0 416 61l31 -186q-223 -70 -445 -70q-269 0 -437 143.5t-168 366.5q0 244 201 422t514 230q-158 75 -263.5 97t-254.5 22q-65 0 -151 -20l-33 190q78 25 164 25
q147 0 279 -54t407 -225v-147q-81 -15 -131 -27q165 -185 254.5 -232.5t173.5 -47.5h85v-195zM1114 0zM857 167h-147v147h147v-147zM589 167h-148v147h148v-147zM722 -42h-148v147h148v-147z" />
    <glyph glyph-name="tchehinitialarabic" unicode="&#x686;" horiz-adv-x="1323" arabic-form="initial" 
d="M1161 587q-84 0 -198 -34.5t-366 -165.5q-237 -123 -339 -155t-176 -32h-84v195h90q62 0 155.5 29t318.5 140q302 150 403 158q-413 211 -684 211q-65 0 -152 -20l-33 190q78 25 164 25q109 0 250.5 -45.5t440.5 -214.5q197 -111 204 -111h6v-170zM934 -15h-147v147h147
v-147zM666 -15h-148v147h148v-147zM799 -224h-148v147h148v-147z" />
    <glyph glyph-name="tchehmedialarabic" unicode="&#x686;" horiz-adv-x="1305" arabic-form="medial" 
d="M1307 200h-76q-160 0 -461 274q-177 -87 -247 -126t-203.5 -93.5t-237.5 -54.5h-84v195h90q62 0 155.5 29t318.5 140q302 150 403 158q-413 211 -684 211q-65 0 -152 -20l-33 190q78 25 164 25q109 0 250.5 -45.5t440.5 -214.5q197 -111 204 -111h6v-170q-104 0 -243 -49
q184 -143 309 -143h80v-195zM903 -15h-147v147h147v-147zM635 -15h-148v147h148v-147zM768 -224h-148v147h148v-147z" />
    <glyph glyph-name="uniFB8A" unicode="&#x698;" horiz-adv-x="862" arabic-form="isolated" 
d="M666 794q65 -177 65 -375q0 -363 -183 -556t-503 -193q-51 0 -147 9l37 176q62 -11 112 -11q510 0 510 575q0 168 -102 375h211zM96 -348zM607 1189h-148v147h148v-147zM742 980h-147v147h147v-147zM474 980h-148v147h148v-147z" />
    <glyph glyph-name="jehfinalarabic" unicode="&#x698;" horiz-adv-x="893" arabic-form="final" 
d="M895 200h-4q-121 0 -178 49q-43 -278 -218 -428.5t-436 -150.5q-65 0 -159 13l37 176q68 -15 124 -15q496 0 496 575q0 118 -53 270h192q23 -93 31 -172q12 -122 156 -122h12v-195zM96 -348zM646 1169h-148v147h148v-147zM781 960h-147v147h147v-147zM513 960h-148v147
h148v-147z" />
    <glyph glyph-name="uniFB8E" unicode="&#x6a9;" horiz-adv-x="1696" arabic-form="isolated" 
d="M1694 1478l-366 -149q-169 -68 -207 -87t-57.5 -36.5t-19.5 -34.5q0 -45 84 -148l181 -216q57 -68 83.5 -131.5t26.5 -127.5q0 -166 -116.5 -257t-315.5 -91h-317q-256 0 -399.5 105.5t-143.5 300.5q0 89 23 202l163 -41q-12 -72 -12 -159q0 -103 96.5 -158t274.5 -55
h317q118 0 187 43.5t69 115.5q0 82 -90 189l-184 220q-54 65 -77.5 113.5t-23.5 100.5q0 81 65.5 141t196.5 115l562 235v-190z" />
    <glyph glyph-name="uniFB8F" unicode="&#x6a9;" horiz-adv-x="1929" arabic-form="final" 
d="M1931 200h-65q-100 0 -221 63.5t-240 180.5q-34 -119 -145 -181.5t-273 -62.5h-317q-256 0 -399.5 105.5t-143.5 300.5q0 89 23 202l163 -41q-12 -72 -12 -159q0 -103 96.5 -158t274.5 -55h317q118 0 187 43.5t69 115.5q0 79 -90 189l-184 220q-54 65 -77.5 113.5
t-23.5 100.5q0 81 65.5 141t196.5 115l562 235v-190l-366 -149q-169 -68 -207 -87t-57.5 -36.5t-19.5 -34.5q0 -44 56 -113l240 -287q183 -218 302 -297t220 -79h69v-195z" />
    <glyph glyph-name="uniFB90" unicode="&#x6a9;" horiz-adv-x="885" arabic-form="initial" 
d="M885 1478l-366 -149q-169 -68 -207 -87t-57 -36.5t-19 -34.5q0 -45 83 -148l181 -216q57 -68 83.5 -131.5t26.5 -127.5q0 -166 -116.5 -257t-315.5 -91h-180v195h182q118 0 187 43.5t69 115.5q0 79 -90 189l-184 220q-54 65 -77.5 113.5t-23.5 100.5q0 81 66 141t196 115
l562 235v-190z" />
    <glyph glyph-name="uniFB91" unicode="&#x6a9;" horiz-adv-x="1124" arabic-form="medial" 
d="M1122 200h-65q-100 0 -221 63.5t-240 180.5q-34 -119 -145 -181.5t-273 -62.5h-180v195h182q118 0 187 43.5t69 115.5q0 79 -90 189l-184 220q-54 65 -77.5 113.5t-23.5 100.5q0 81 66 141t196 115l562 235v-190l-366 -149q-169 -68 -207 -87t-57 -36.5t-19 -34.5
q0 -44 55 -113l240 -287q183 -218 302 -297t220 -79h69v-195z" />
    <glyph glyph-name="uniFB92" unicode="&#x6af;" horiz-adv-x="1696" arabic-form="isolated" 
d="M1694 1478l-366 -149q-169 -68 -207 -87t-57.5 -36.5t-19.5 -34.5q0 -45 84 -148l181 -216q57 -68 83.5 -131.5t26.5 -127.5q0 -166 -116.5 -257t-315.5 -91h-317q-256 0 -399.5 105.5t-143.5 300.5q0 89 23 202l163 -41q-12 -72 -12 -159q0 -103 96.5 -158t274.5 -55
h317q118 0 187 43.5t69 115.5q0 82 -90 189l-184 220q-54 65 -77.5 113.5t-23.5 100.5q0 81 65.5 141t196.5 115l562 235v-190zM1694 1746l-752 -315v78l752 315v-78z" />
    <glyph glyph-name="gaffinalarabic" unicode="&#x6af;" horiz-adv-x="1929" arabic-form="final" 
d="M1931 200h-65q-100 0 -221 63.5t-240 180.5q-34 -119 -145 -181.5t-273 -62.5h-317q-256 0 -399.5 105.5t-143.5 300.5q0 89 23 202l163 -41q-12 -72 -12 -159q0 -103 96.5 -158t274.5 -55h317q118 0 187 43.5t69 115.5q0 79 -90 189l-184 220q-54 65 -77.5 113.5
t-23.5 100.5q0 81 65.5 141t196.5 115l562 235v-190l-366 -149q-169 -68 -207 -87t-57.5 -36.5t-19.5 -34.5q0 -44 56 -113l240 -287q183 -218 302 -297t220 -79h69v-195zM1694 1746l-752 -315v78l752 315v-78z" />
    <glyph glyph-name="gafinitialarabic" unicode="&#x6af;" horiz-adv-x="885" arabic-form="initial" 
d="M885 1478l-366 -149q-169 -68 -207 -87t-57 -36.5t-19 -34.5q0 -45 83 -148l181 -216q57 -68 83.5 -131.5t26.5 -127.5q0 -166 -116.5 -257t-315.5 -91h-180v195h182q118 0 187 43.5t69 115.5q0 79 -90 189l-184 220q-54 65 -77.5 113.5t-23.5 100.5q0 81 66 141t196 115
l562 235v-190zM885 1746l-752 -315v78l752 315v-78z" />
    <glyph glyph-name="gafmedialarabic" unicode="&#x6af;" horiz-adv-x="1124" arabic-form="medial" 
d="M1122 200h-65q-100 0 -221 63.5t-240 180.5q-34 -119 -145 -181.5t-273 -62.5h-180v195h182q118 0 187 43.5t69 115.5q0 79 -90 189l-184 220q-54 65 -77.5 113.5t-23.5 100.5q0 81 66 141t196 115l562 235v-190l-366 -149q-169 -68 -207 -87t-57 -36.5t-19 -34.5
q0 -44 55 -113l240 -287q183 -218 302 -297t220 -79h69v-195zM885 1746l-752 -315v78l752 315v-78z" />
    <glyph glyph-name="noonghunnafinalarabic" unicode="&#x6ba;" horiz-adv-x="1481" arabic-form="final" 
d="M1483 200h-15q-85 0 -141 47q-8 -237 -171 -375.5t-464 -138.5q-285 0 -448.5 128.5t-163.5 356.5q0 147 43 357l164 -41q-33 -184 -33 -314t111.5 -211t326.5 -81q461 0 461 422q0 36 -8 182l170 43q25 -180 153 -180h15v-195z" />
    <glyph glyph-name="uniFBE8" unicode="&#x649;" horiz-adv-x="565" arabic-form="initial" 
d="M397 595q0 -215 -82 -305t-252 -90h-65v195h74q151 0 151 204v183h174v-187z" />
    <glyph glyph-name="uniFBE9" unicode="&#x649;" horiz-adv-x="498" arabic-form="medial" 
d="M500 200h-4q-170 0 -248 84q-78 -84 -246 -84h-4v195h12q152 0 152 204v183h174v-183q0 -204 151 -204h13v-195z" />
    <glyph glyph-name="uniFBFC" unicode="&#x6cc;" horiz-adv-x="1497" arabic-form="isolated" 
d="M1391 849l-174 -18q-34 102 -203 102q-77 0 -131 -33.5t-54 -87.5q0 -31 34.5 -65t174.5 -103q211 -105 271.5 -178t60.5 -151q0 -153 -163.5 -258t-499.5 -105q-294 0 -467.5 105.5t-173.5 304.5q0 99 47 235l159 -41q-32 -106 -32 -192q0 -110 106 -163.5t363 -53.5
q241 0 364 48.5t123 123.5q0 38 -38 77t-190 115q-201 100 -257 166t-56 135q0 118 101.5 217t257.5 99q313 0 377 -279z" />
    <glyph glyph-name="uniFBFD" unicode="&#x6cc;" horiz-adv-x="1624" arabic-form="final" 
d="M1626 200h-6q-43 0 -127 39q-71 29 -102 29q-23 0 -37.5 -12t-14.5 -28q0 -18 49 -87q70 -101 70 -139q0 -125 -215.5 -237.5t-531.5 -112.5q-294 0 -467.5 105.5t-173.5 304.5q0 99 47 235l159 -41q-32 -107 -32 -192q0 -110 106 -163.5t363 -53.5q247 0 409 56t162 124
q0 18 -45 85q-74 109 -74 156q0 77 66 136t160 59q40 0 132 -35q71 -33 97 -33h6v-195z" />
    <glyph glyph-name="uniFE80" unicode="&#x621;" horiz-adv-x="1083" arabic-form="isolated" 
d="M961 364q-311 -125 -850 -164v195q21 0 107.5 4.5t107.5 7.5q-92 44 -145.5 124.5t-53.5 178.5q0 148 103.5 251t279.5 103q343 0 403 -307l-180 -22q-29 135 -223 135q-100 0 -154.5 -47t-54.5 -125q0 -157 213 -258q240 37 447 120v-196z" />
    <glyph glyph-name="uniFE81" unicode="&#x622;" horiz-adv-x="498" arabic-form="isolated" 
d="M336 200h-174v1466h174v-1466zM555 1829q-71 -86 -166 -86q-36 0 -135 32q-96 31 -129 31q-64 0 -119 -59l-51 55q70 84 164 84q37 0 137 -32q95 -31 129 -31q72 0 119 61z" />
    <glyph glyph-name="alefmaddaabovefinalarabic" unicode="&#x622;" horiz-adv-x="559" arabic-form="final" 
d="M561 200h-65q-179 0 -256.5 95t-77.5 300v1071h174v-1067q0 -204 151 -204h74v-195zM554 1829q-71 -86 -166 -86q-36 0 -135 32q-96 31 -129 31q-64 0 -119 -59l-51 55q70 84 164 84q37 0 137 -32q95 -31 129 -31q72 0 119 61z" />
    <glyph glyph-name="alefhamzaabovefinalarabic" unicode="&#x623;" horiz-adv-x="559" arabic-form="final" 
d="M561 200h-65q-179 0 -256.5 95t-77.5 300v896h174v-892q0 -204 151 -204h74v-195zM385 1617l-272 -49v72l59 10q-78 33 -78 109q0 58 37 92.5t98 34.5q122 0 146 -109l-72 -6q-13 37 -72 37q-65 0 -65 -49q0 -37 38.5 -60.5t96.5 -23.5l84 14v-72z" />
    <glyph glyph-name="uniFE85" unicode="&#x624;" horiz-adv-x="963" arabic-form="isolated" 
d="M641 413q-55 -14 -104 -14q-157 0 -281.5 101.5t-124.5 285.5q0 165 101 277t233 112q142 0 256.5 -170.5t114.5 -429.5q0 -232 -104 -443.5t-280.5 -336.5t-373.5 -125q-64 0 -179 13l37 197q80 -16 144 -16q204 0 359 159t202 390zM662 608q-8 142 -68 257t-129 115
q-62 0 -111 -56.5t-49 -137.5t64 -137t157 -56q82 0 136 15zM96 -348zM579 1486l-272 -49v72l59 10q-78 33 -78 109q0 58 37 92.5t98 34.5q122 0 146 -109l-72 -6q-13 37 -72 37q-65 0 -65 -49q0 -37 38.5 -60.5t96.5 -23.5l84 14v-72z" />
    <glyph glyph-name="wawhamzaabovefinalarabic" unicode="&#x624;" horiz-adv-x="954" arabic-form="final" 
d="M956 200h-170q-51 -263 -228 -396.5t-462 -133.5q-70 0 -196 14l37 197q89 -17 161 -17q225 0 342 79.5t154 256.5h-84q-157 0 -281.5 102t-124.5 285q0 165 101 277t233 112q136 0 249.5 -158.5t121.5 -422.5h147v-195zM635 395q0 155 -58.5 271t-138.5 116
q-62 0 -110.5 -57t-48.5 -138t63.5 -136.5t157.5 -55.5h135zM96 -348zM549 1286l-272 -49v72l59 10q-78 33 -78 109q0 58 37 92.5t98 34.5q122 0 146 -109l-72 -6q-13 37 -72 37q-65 0 -65 -49q0 -37 38.5 -60.5t96.5 -23.5l84 14v-72z" />
    <glyph glyph-name="uniFE87" unicode="&#x625;" horiz-adv-x="498" arabic-form="isolated" 
d="M336 200h-174v1466h174v-1466zM385 -213l-272 -49v72l59 10q-78 33 -78 109q0 58 37 92.5t98 34.5q122 0 146 -109l-72 -6q-13 37 -72 37q-65 0 -65 -49q0 -37 38.5 -60.5t96.5 -23.5l84 14v-72z" />
    <glyph glyph-name="alefhamzabelowfinalarabic" unicode="&#x625;" horiz-adv-x="559" arabic-form="final" 
d="M561 200h-65q-179 0 -256.5 95t-77.5 300v1071h174v-1067q0 -204 151 -204h74v-195zM385 -213l-272 -49v72l59 10q-78 33 -78 109q0 58 37 92.5t98 34.5q122 0 146 -109l-72 -6q-13 37 -72 37q-65 0 -65 -49q0 -37 38.5 -60.5t96.5 -23.5l84 14v-72z" />
    <glyph glyph-name="uniFE89" unicode="&#x626;" horiz-adv-x="1497" arabic-form="isolated" 
d="M1391 849l-174 -18q-34 102 -203 102q-77 0 -131 -33.5t-54 -87.5q0 -31 34.5 -65t174.5 -103q211 -105 271.5 -178t60.5 -151q0 -153 -163.5 -258t-499.5 -105q-294 0 -467.5 105.5t-173.5 304.5q0 99 47 235l159 -41q-32 -106 -32 -192q0 -110 106 -163.5t363 -53.5
q241 0 364 48.5t123 123.5q0 38 -38 77t-190 115q-201 100 -257 166t-56 135q0 118 101.5 217t257.5 99q313 0 377 -279zM438 848l-272 -49v72l59 10q-78 33 -78 109q0 58 37 92.5t98 34.5q122 0 146 -109l-72 -6q-13 37 -72 37q-65 0 -65 -49q0 -37 38.5 -60.5t96.5 -23.5
l84 14v-72z" />
    <glyph glyph-name="yehhamzaabovefinalarabic" unicode="&#x626;" horiz-adv-x="1624" arabic-form="final" 
d="M1626 200h-6q-43 0 -127 39q-71 29 -102 29q-23 0 -37.5 -12t-14.5 -28q0 -18 49 -87q70 -101 70 -139q0 -125 -215.5 -237.5t-531.5 -112.5q-294 0 -467.5 105.5t-173.5 304.5q0 99 47 235l159 -41q-32 -107 -32 -192q0 -110 106 -163.5t363 -53.5q247 0 409 56t162 124
q0 18 -45 85q-74 109 -74 156q0 77 66 136t160 59q40 0 132 -35q71 -33 97 -33h6v-195zM465 543l-272 -49v72l59 10q-78 33 -78 109q0 58 37 92.5t98 34.5q122 0 146 -109l-72 -6q-13 37 -72 37q-65 0 -65 -49q0 -37 38.5 -60.5t96.5 -23.5l84 14v-72z" />
    <glyph glyph-name="yehhamzaaboveinitialarabic" unicode="&#x626;" horiz-adv-x="565" arabic-form="initial" 
d="M397 595q0 -215 -82 -305t-252 -90h-65v195h74q151 0 151 204v183h174v-187zM411 1091l-272 -49v72l59 10q-78 33 -78 109q0 58 37 92.5t98 34.5q122 0 146 -109l-72 -6q-13 37 -72 37q-65 0 -65 -49q0 -37 38.5 -60.5t96.5 -23.5l84 14v-72z" />
    <glyph glyph-name="yehhamzaabovemedialarabic" unicode="&#x626;" horiz-adv-x="498" arabic-form="medial" 
d="M500 200h-4q-170 0 -248 84q-78 -84 -246 -84h-4v195h12q152 0 152 204v183h174v-183q0 -204 151 -204h13v-195zM383 1092l-272 -49v72l59 10q-78 33 -78 109q0 58 37 92.5t98 34.5q122 0 146 -109l-72 -6q-13 37 -72 37q-65 0 -65 -49q0 -37 38.5 -60.5t96.5 -23.5
l84 14v-72z" />
    <glyph glyph-name="uniFE8D" unicode="&#x627;" horiz-adv-x="498" arabic-form="isolated" 
d="M336 200h-174v1466h174v-1466z" />
    <glyph glyph-name="aleffinalarabic" unicode="&#x627;" horiz-adv-x="559" arabic-form="final" 
d="M561 200h-65q-179 0 -256.5 95t-77.5 300v1071h174v-1067q0 -204 151 -204h74v-195z" />
    <glyph glyph-name="uniFE8F" unicode="&#x628;" horiz-adv-x="1579" arabic-form="isolated" 
d="M1444 702q8 -45 8 -111q0 -212 -192 -352.5t-521 -140.5q-294 0 -453 113.5t-159 320.5q0 119 39 211l164 -41q-29 -77 -29 -168q0 -242 438 -242q236 0 387.5 94.5t151.5 245.5q0 44 -8 70h174zM860 -187h-178v178h178v-178z" />
    <glyph glyph-name="behfinalarabic" unicode="&#x628;" horiz-adv-x="1614" arabic-form="final" 
d="M1616 200h-4q-195 0 -273 150q-175 -252 -600 -252q-294 0 -453 113.5t-159 320.5q0 119 39 211l164 -41q-29 -77 -29 -168q0 -242 438 -242q236 0 387.5 94.5t151.5 245.5q0 43 -6 70h174q6 -48 6 -111q0 -196 152 -196h12v-195zM823 -187h-178v178h178v-178z" />
    <glyph glyph-name="behinitialarabic" unicode="&#x628;" horiz-adv-x="565" arabic-form="initial" 
d="M397 595q0 -215 -82 -305t-252 -90h-65v195h74q151 0 151 204v183h174v-187zM340 -85h-178v178h178v-178z" />
    <glyph glyph-name="behmedialarabic" unicode="&#x628;" horiz-adv-x="498" arabic-form="medial" 
d="M500 200h-4q-170 0 -248 84q-78 -84 -246 -84h-4v195h12q152 0 152 204v183h174v-183q0 -204 151 -204h13v-195zM340 -85h-178v178h178v-178z" />
    <glyph glyph-name="uniFE93" unicode="&#x629;" horiz-adv-x="1053" arabic-form="isolated" 
d="M526 1083q400 -200 400 -504q0 -191 -107 -291t-293 -100q-181 0 -290 104t-109 287q0 150 102.5 281.5t296.5 222.5zM752 579q0 96 -65 187.5t-161 144.5q-96 -57 -160.5 -147.5t-64.5 -184.5q0 -197 225 -197q105 0 165.5 50.5t60.5 146.5zM752 1349h-147v147h147v-147
zM484 1349h-148v147h148v-147z" />
    <glyph glyph-name="tehmarbutafinalarabic" unicode="&#x629;" horiz-adv-x="977" arabic-form="final" 
d="M979 200h-4q-145 0 -222.5 63t-105.5 191q-28 -53 -100 -91t-150 -38q-116 0 -193 74t-77 202q0 139 110.5 253t331.5 175l-10 84h174l43 -358q22 -187 31 -224.5t31 -70.5t54 -49t75 -16h12v-195zM586 886q-267 -76 -267 -280q0 -40 31 -64.5t72 -24.5q57 0 122.5 52
t65.5 110q0 13 -24 207zM699 1339h-147v147h147v-147zM431 1339h-148v147h148v-147z" />
    <glyph glyph-name="uniFE95" unicode="&#x62a;" horiz-adv-x="1579" arabic-form="isolated" 
d="M1444 702q8 -45 8 -111q0 -212 -192 -352.5t-521 -140.5q-294 0 -453 113.5t-159 320.5q0 119 39 211l164 -41q-29 -77 -29 -168q0 -242 438 -242q236 0 387.5 94.5t151.5 245.5q0 44 -8 70h174zM1016 950h-147v147h147v-147zM748 950h-148v147h148v-147z" />
    <glyph glyph-name="tehfinalarabic" unicode="&#x62a;" horiz-adv-x="1614" arabic-form="final" 
d="M1616 200h-4q-195 0 -273 150q-175 -252 -600 -252q-294 0 -453 113.5t-159 320.5q0 119 39 211l164 -41q-29 -77 -29 -168q0 -242 438 -242q236 0 387.5 94.5t151.5 245.5q0 43 -6 70h174q6 -48 6 -111q0 -196 152 -196h12v-195zM928 950h-147v147h147v-147zM660 950
h-148v147h148v-147z" />
    <glyph glyph-name="tehinitialarabic" unicode="&#x62a;" horiz-adv-x="559" arabic-form="initial" 
d="M397 595q0 -215 -82 -305t-252 -90h-65v195h74q151 0 151 204v183h174v-187zM467 1050h-147v147h147v-147zM199 1050h-148v147h148v-147z" />
    <glyph glyph-name="tehmedialarabic" unicode="&#x62a;" horiz-adv-x="498" arabic-form="medial" 
d="M500 200h-4q-170 0 -248 84q-78 -84 -246 -84h-4v195h12q152 0 152 204v183h174v-183q0 -204 151 -204h13v-195zM459 1050h-147v147h147v-147zM191 1050h-148v147h148v-147z" />
    <glyph glyph-name="uniFE99" unicode="&#x62b;" horiz-adv-x="1579" arabic-form="isolated" 
d="M1444 702q8 -45 8 -111q0 -212 -192 -352.5t-521 -140.5q-294 0 -453 113.5t-159 320.5q0 119 39 211l164 -41q-29 -77 -29 -168q0 -242 438 -242q236 0 387.5 94.5t151.5 245.5q0 44 -8 70h174zM881 1159h-148v147h148v-147zM1016 950h-147v147h147v-147zM748 950h-148
v147h148v-147z" />
    <glyph glyph-name="thehfinalarabic" unicode="&#x62b;" horiz-adv-x="1614" arabic-form="final" 
d="M1616 200h-4q-195 0 -273 150q-175 -252 -600 -252q-294 0 -453 113.5t-159 320.5q0 119 39 211l164 -41q-29 -77 -29 -168q0 -242 438 -242q236 0 387.5 94.5t151.5 245.5q0 43 -6 70h174q6 -48 6 -111q0 -196 152 -196h12v-195zM793 1159h-148v147h148v-147zM928 950
h-147v147h147v-147zM660 950h-148v147h148v-147z" />
    <glyph glyph-name="thehinitialarabic" unicode="&#x62b;" horiz-adv-x="559" arabic-form="initial" 
d="M397 595q0 -215 -82 -305t-252 -90h-65v195h74q151 0 151 204v183h174v-187zM312 1259h-148v147h148v-147zM447 1050h-147v147h147v-147zM179 1050h-148v147h148v-147z" />
    <glyph glyph-name="thehmedialarabic" unicode="&#x62b;" horiz-adv-x="498" arabic-form="medial" 
d="M500 200h-4q-170 0 -248 84q-78 -84 -246 -84h-4v195h12q152 0 152 204v183h174v-183q0 -204 151 -204h13v-195zM324 1259h-148v147h148v-147zM459 1050h-147v147h147v-147zM191 1050h-148v147h148v-147z" />
    <glyph glyph-name="uniFE9D" unicode="&#x62c;" horiz-adv-x="1114" arabic-form="isolated" 
d="M1155 -278q-222 -70 -444 -70q-269 0 -437 145.5t-168 368.5q0 237 200.5 416.5t514.5 231.5q-158 75 -263.5 97t-254.5 22q-65 0 -151 -20l-33 190q78 25 164 25q147 0 279 -54t407 -225v-147q-688 -113 -688 -538q0 -137 119 -227t309 -90q174 0 415 61zM735 126h-178
v178h178v-178z" />
    <glyph glyph-name="jeemfinalarabic" unicode="&#x62c;" horiz-adv-x="1348" arabic-form="final" 
d="M1351 200h-81q-123 0 -245 81t-333 351q-412 -141 -412 -472q0 -137 119.5 -225t309.5 -88q174 0 416 61l31 -186q-223 -70 -445 -70q-269 0 -437 143.5t-168 366.5q0 244 201 422t514 230q-158 75 -263.5 97t-254.5 22q-65 0 -151 -20l-33 190q78 25 164 25
q147 0 279 -54t407 -225v-147q-81 -15 -131 -27q165 -185 254.5 -232.5t173.5 -47.5h85v-195zM1114 0zM735 125h-178v178h178v-178z" />
    <glyph glyph-name="jeeminitialarabic" unicode="&#x62c;" horiz-adv-x="1323" arabic-form="initial" 
d="M1161 587q-84 0 -198 -34.5t-366 -165.5q-237 -123 -339 -155t-176 -32h-84v195h90q62 0 155.5 29t318.5 140q302 150 403 158q-413 211 -684 211q-65 0 -152 -20l-33 190q78 25 164 25q109 0 250.5 -45.5t440.5 -214.5q197 -111 204 -111h6v-170zM842 38h-178v178h178
v-178z" />
    <glyph glyph-name="jeemmedialarabic" unicode="&#x62c;" horiz-adv-x="1305" arabic-form="medial" 
d="M1307 200h-76q-160 0 -461 274q-177 -87 -247 -126t-203.5 -93.5t-237.5 -54.5h-84v195h90q62 0 155.5 29t318.5 140q302 150 403 158q-413 211 -684 211q-65 0 -152 -20l-33 190q78 25 164 25q109 0 250.5 -45.5t440.5 -214.5q197 -111 204 -111h6v-170q-104 0 -243 -49
q184 -143 309 -143h80v-195zM780 -85h-178v178h178v-178z" />
    <glyph glyph-name="uniFEA1" unicode="&#x62d;" horiz-adv-x="1114" arabic-form="isolated" 
d="M1155 -278q-222 -70 -444 -70q-269 0 -437 145.5t-168 368.5q0 237 200.5 416.5t514.5 231.5q-158 75 -263.5 97t-254.5 22q-65 0 -151 -20l-33 190q78 25 164 25q147 0 279 -54t407 -225v-147q-688 -113 -688 -538q0 -137 119 -227t309 -90q174 0 415 61z" />
    <glyph glyph-name="hahfinalarabic" unicode="&#x62d;" horiz-adv-x="1348" arabic-form="final" 
d="M1351 200h-81q-123 0 -245 81t-333 351q-412 -141 -412 -472q0 -137 119.5 -225t309.5 -88q174 0 416 61l31 -186q-223 -70 -445 -70q-269 0 -437 143.5t-168 366.5q0 244 201 422t514 230q-158 75 -263.5 97t-254.5 22q-65 0 -151 -20l-33 190q78 25 164 25
q147 0 279 -54t407 -225v-147q-81 -15 -131 -27q165 -185 254.5 -232.5t173.5 -47.5h85v-195zM1114 0z" />
    <glyph glyph-name="hahinitialarabic" unicode="&#x62d;" horiz-adv-x="1323" arabic-form="initial" 
d="M1161 587q-84 0 -198 -34.5t-366 -165.5q-237 -123 -339 -155t-176 -32h-84v195h90q62 0 155.5 29t318.5 140q302 150 403 158q-413 211 -684 211q-65 0 -152 -20l-33 190q78 25 164 25q109 0 250.5 -45.5t440.5 -214.5q197 -111 204 -111h6v-170z" />
    <glyph glyph-name="hahmedialarabic" unicode="&#x62d;" horiz-adv-x="1305" arabic-form="medial" 
d="M1307 200h-76q-160 0 -461 274q-177 -87 -247 -126t-203.5 -93.5t-237.5 -54.5h-84v195h90q62 0 155.5 29t318.5 140q302 150 403 158q-413 211 -684 211q-65 0 -152 -20l-33 190q78 25 164 25q109 0 250.5 -45.5t440.5 -214.5q197 -111 204 -111h6v-170q-104 0 -243 -49
q184 -143 309 -143h80v-195z" />
    <glyph glyph-name="uniFEA5" unicode="&#x62e;" horiz-adv-x="1114" arabic-form="isolated" 
d="M1155 -278q-222 -70 -444 -70q-269 0 -437 145.5t-168 368.5q0 237 200.5 416.5t514.5 231.5q-158 75 -263.5 97t-254.5 22q-65 0 -151 -20l-33 190q78 25 164 25q147 0 279 -54t407 -225v-147q-688 -113 -688 -538q0 -137 119 -227t309 -90q174 0 415 61zM647 1294h-178
v178h178v-178z" />
    <glyph glyph-name="khahfinalarabic" unicode="&#x62e;" horiz-adv-x="1348" arabic-form="final" 
d="M1351 200h-81q-123 0 -245 81t-333 351q-412 -141 -412 -472q0 -137 119.5 -225t309.5 -88q174 0 416 61l31 -186q-223 -70 -445 -70q-269 0 -437 143.5t-168 366.5q0 244 201 422t514 230q-158 75 -263.5 97t-254.5 22q-65 0 -151 -20l-33 190q78 25 164 25
q147 0 279 -54t407 -225v-147q-81 -15 -131 -27q165 -185 254.5 -232.5t173.5 -47.5h85v-195zM1114 0zM723 1294h-178v178h178v-178z" />
    <glyph glyph-name="khahinitialarabic" unicode="&#x62e;" horiz-adv-x="1323" arabic-form="initial" 
d="M1161 587q-84 0 -198 -34.5t-366 -165.5q-237 -123 -339 -155t-176 -32h-84v195h90q62 0 155.5 29t318.5 140q302 150 403 158q-413 211 -684 211q-65 0 -152 -20l-33 190q78 25 164 25q109 0 250.5 -45.5t440.5 -214.5q197 -111 204 -111h6v-170zM827 1271h-178v178h178
v-178z" />
    <glyph glyph-name="khahmedialarabic" unicode="&#x62e;" horiz-adv-x="1305" arabic-form="medial" 
d="M1307 200h-76q-160 0 -461 274q-177 -87 -247 -126t-203.5 -93.5t-237.5 -54.5h-84v195h90q62 0 155.5 29t318.5 140q302 150 403 158q-413 211 -684 211q-65 0 -152 -20l-33 190q78 25 164 25q109 0 250.5 -45.5t440.5 -214.5q197 -111 204 -111h6v-170q-104 0 -243 -49
q184 -143 309 -143h80v-195zM825 1275h-178v178h178v-178z" />
    <glyph glyph-name="uniFEA9" unicode="&#x62f;" horiz-adv-x="881" arabic-form="isolated" 
d="M461 1095q293 -364 293 -502q0 -185 -158.5 -289t-456.5 -104h-61v195h57q445 0 445 198q0 128 -330 502h211z" />
    <glyph glyph-name="dalfinalarabic" unicode="&#x62f;" horiz-adv-x="938" arabic-form="final" 
d="M940 200h-4q-215 0 -287 147q-155 -147 -510 -147h-61v195h57q445 0 445 198q0 65 -39.5 169.5t-169.5 330.5h209q132 -280 174 -469q28 -132 68.5 -180.5t105.5 -48.5h12v-195z" />
    <glyph glyph-name="uniFEAB" unicode="&#x630;" horiz-adv-x="881" arabic-form="isolated" 
d="M461 1095q293 -364 293 -502q0 -185 -158.5 -289t-456.5 -104h-61v195h57q445 0 445 198q0 128 -330 502h211zM416 1310h-178v178h178v-178z" />
    <glyph glyph-name="thalfinalarabic" unicode="&#x630;" horiz-adv-x="938" arabic-form="final" 
d="M940 200h-4q-215 0 -287 147q-155 -147 -510 -147h-61v195h57q445 0 445 198q0 65 -39.5 169.5t-169.5 330.5h209q132 -280 174 -469q28 -132 68.5 -180.5t105.5 -48.5h12v-195zM551 1359h-178v178h178v-178z" />
    <glyph glyph-name="uniFEAD" unicode="&#x631;" horiz-adv-x="862" arabic-form="isolated" 
d="M666 794q65 -177 65 -375q0 -363 -183 -556t-503 -193q-51 0 -147 9l37 176q62 -11 112 -11q510 0 510 575q0 168 -102 375h211zM96 -348z" />
    <glyph glyph-name="rehfinalarabic" unicode="&#x631;" horiz-adv-x="893" arabic-form="final" 
d="M895 200h-4q-121 0 -178 49q-43 -278 -218 -428.5t-436 -150.5q-65 0 -159 13l37 176q68 -15 124 -15q496 0 496 575q0 118 -53 270h192q23 -93 31 -172q12 -122 156 -122h12v-195zM96 -348z" />
    <glyph glyph-name="uniFEAF" unicode="&#x632;" horiz-adv-x="858" arabic-form="isolated" 
d="M666 794q65 -177 65 -375q0 -363 -183 -556t-503 -193q-51 0 -147 9l37 176q62 -11 112 -11q510 0 510 575q0 168 -102 375h211zM96 -348zM620 986h-178v178h178v-178z" />
    <glyph glyph-name="zainfinalarabic" unicode="&#x632;" horiz-adv-x="893" arabic-form="final" 
d="M895 200h-4q-121 0 -178 49q-43 -278 -218 -428.5t-436 -150.5q-65 0 -159 13l37 176q68 -15 124 -15q496 0 496 575q0 118 -53 270h192q23 -93 31 -172q12 -122 156 -122h12v-195zM96 -348zM665 962h-178v178h178v-178z" />
    <glyph glyph-name="uniFEB1" unicode="&#x633;" horiz-adv-x="2445" arabic-form="isolated" 
d="M2284 622q0 -205 -86 -313.5t-246 -108.5h-17q-174 0 -254 92q-68 -92 -217 -92q-88 0 -137 49q-12 -253 -179.5 -384.5t-455.5 -131.5q-296 0 -454 116.5t-158 338.5q0 131 43 313l164 -41q-33 -156 -33 -270q0 -262 438 -262q461 0 461 422v432h174v-164
q0 -117 29.5 -170t103.5 -53q73 0 104 51.5t31 175.5v160h174v-156q0 -231 166 -231h17q157 0 157 231v283h175v-287z" />
    <glyph glyph-name="seenfinalarabic" unicode="&#x633;" horiz-adv-x="2445" arabic-form="final" 
d="M2447 200h-4q-164 0 -248 92q-87 -92 -243 -92h-17q-174 0 -254 92q-77 -92 -217 -92q-88 0 -137 49q-12 -253 -179.5 -384.5t-455.5 -131.5q-296 0 -454 116.5t-158 338.5q0 131 43 313l164 -41q-33 -156 -33 -270q0 -262 438 -262q461 0 461 422v432h174v-164
q0 -117 29.5 -170t103.5 -53q73 0 104 51.5t31 175.5v160h174v-156q0 -231 166 -231h17q157 0 157 231v283h175v-283q0 -231 151 -231h12v-195z" />
    <glyph glyph-name="seeninitialarabic" unicode="&#x633;" horiz-adv-x="1577" arabic-form="initial" 
d="M1415 622q0 -205 -86 -313.5t-246 -108.5h-16q-174 0 -254 92q-34 -42 -104 -67t-113 -25q-148 0 -217 92q-83 -92 -242 -92h-139v195h135q152 0 152 204v183h174v-164q0 -117 29.5 -170t103.5 -53q72 0 103.5 51.5t31.5 175.5v160h174v-156q0 -231 166 -231h16
q158 0 158 231v283h174v-287z" />
    <glyph glyph-name="seenmedialarabic" unicode="&#x633;" horiz-adv-x="1577" arabic-form="medial" 
d="M1579 200h-4q-165 0 -248 92q-88 -92 -244 -92h-16q-174 0 -254 92q-34 -42 -104 -67t-113 -25q-148 0 -217 92q-83 -92 -242 -92h-139v195h135q152 0 152 204v183h174v-164q0 -117 29.5 -170t103.5 -53q72 0 103.5 51.5t31.5 175.5v160h174v-156q0 -231 166 -231h16
q158 0 158 231v283h174v-283q0 -231 152 -231h12v-195z" />
    <glyph glyph-name="uniFEB5" unicode="&#x634;" horiz-adv-x="2445" arabic-form="isolated" 
d="M2284 622q0 -205 -86 -313.5t-246 -108.5h-17q-174 0 -254 92q-68 -92 -217 -92q-88 0 -137 49q-12 -253 -179.5 -384.5t-455.5 -131.5q-296 0 -454 116.5t-158 338.5q0 131 43 313l164 -41q-33 -156 -33 -270q0 -262 438 -262q461 0 461 422v432h174v-164
q0 -117 29.5 -170t103.5 -53q73 0 104 51.5t31 175.5v160h174v-156q0 -231 166 -231h17q157 0 157 231v283h175v-287zM1706 1292h-148v147h148v-147zM1841 1083h-147v147h147v-147zM1573 1083h-148v147h148v-147z" />
    <glyph glyph-name="sheenfinalarabic" unicode="&#x634;" horiz-adv-x="2445" arabic-form="final" 
d="M2447 200h-4q-164 0 -248 92q-87 -92 -243 -92h-17q-174 0 -254 92q-77 -92 -217 -92q-88 0 -137 49q-12 -253 -179.5 -384.5t-455.5 -131.5q-296 0 -454 116.5t-158 338.5q0 131 43 313l164 -41q-33 -156 -33 -270q0 -262 438 -262q461 0 461 422v432h174v-164
q0 -117 29.5 -170t103.5 -53q73 0 104 51.5t31 175.5v160h174v-156q0 -231 166 -231h17q157 0 157 231v283h175v-283q0 -231 151 -231h12v-195zM1708 1292h-148v147h148v-147zM1843 1083h-147v147h147v-147zM1575 1083h-148v147h148v-147z" />
    <glyph glyph-name="sheeninitialarabic" unicode="&#x634;" horiz-adv-x="1577" arabic-form="initial" 
d="M1415 622q0 -205 -86 -313.5t-246 -108.5h-16q-174 0 -254 92q-34 -42 -104 -67t-113 -25q-148 0 -217 92q-83 -92 -242 -92h-139v195h135q152 0 152 204v183h174v-164q0 -117 29.5 -170t103.5 -53q72 0 103.5 51.5t31.5 175.5v160h174v-156q0 -231 166 -231h16
q158 0 158 231v283h174v-287zM826 1292h-148v147h148v-147zM961 1083h-147v147h147v-147zM693 1083h-148v147h148v-147z" />
    <glyph glyph-name="sheenmedialarabic" unicode="&#x634;" horiz-adv-x="1577" arabic-form="medial" 
d="M1579 200h-4q-165 0 -248 92q-88 -92 -244 -92h-16q-174 0 -254 92q-34 -42 -104 -67t-113 -25q-148 0 -217 92q-83 -92 -242 -92h-139v195h135q152 0 152 204v183h174v-164q0 -117 29.5 -170t103.5 -53q72 0 103.5 51.5t31.5 175.5v160h174v-156q0 -231 166 -231h16
q158 0 158 231v283h174v-283q0 -231 152 -231h12v-195zM842 1292h-148v147h148v-147zM977 1083h-147v147h147v-147zM709 1083h-148v147h148v-147z" />
    <glyph glyph-name="uniFEB9" unicode="&#x635;" horiz-adv-x="2644" arabic-form="isolated" 
d="M1409 425q246 377 415.5 522.5t301.5 145.5q168 0 280.5 -118.5t112.5 -299.5q0 -221 -195.5 -348t-527.5 -127h-328q-85 0 -141 47q-8 -237 -171 -375.5t-464 -138.5q-296 0 -454 116.5t-158 338.5q0 131 43 313l164 -41q-33 -156 -33 -270q0 -262 438 -262
q461 0 461 422q0 36 -8 182l170 43q18 -124 94 -150zM1567 395h229q252 0 400.5 73.5t148.5 202.5q0 92 -66 160.5t-153 68.5q-201 0 -559 -505z" />
    <glyph glyph-name="sadfinalarabic" unicode="&#x635;" horiz-adv-x="2644" arabic-form="final" 
d="M2646 200h-66q-197 0 -270 117v2q-198 -119 -514 -119h-328q-85 0 -141 47q-8 -237 -171 -375.5t-464 -138.5q-296 0 -454 116.5t-158 338.5q0 131 43 313l164 -41q-33 -156 -33 -270q0 -262 438 -262q461 0 461 422q0 36 -8 182l170 43q18 -124 94 -150
q246 377 415.5 522.5t301.5 145.5q168 0 280.5 -118.5t112.5 -299.5q0 -124 -65 -221q35 -59 118 -59h74v-195zM1567 395h229q252 0 400.5 73.5t148.5 202.5q0 92 -66 160.5t-153 68.5q-201 0 -559 -505z" />
    <glyph glyph-name="sadinitialarabic" unicode="&#x635;" horiz-adv-x="1673" arabic-form="initial" 
d="M424 405q267 406 435 547t296 141q168 0 280.5 -118.5t112.5 -299.5q0 -219 -194 -347t-529 -128h-331q-168 0 -246 84q-78 -84 -246 -84h-4v195h12q152 0 152 204v101h174v-101q0 -159 88 -194zM596 395h229q252 0 400.5 73.5t148.5 202.5q0 92 -66 160.5t-153 68.5
q-201 0 -559 -505z" />
    <glyph glyph-name="sadmedialarabic" unicode="&#x635;" horiz-adv-x="1673" arabic-form="medial" 
d="M1675 200h-65q-198 0 -271 117v2q-198 -119 -514 -119h-331q-168 0 -246 84q-78 -84 -246 -84h-4v195h12q152 0 152 204v101h174v-101q0 -159 88 -194q267 406 435 547t296 141q168 0 280.5 -118.5t112.5 -299.5q0 -124 -65 -221q35 -59 119 -59h73v-195zM596 395h229
q252 0 400.5 73.5t148.5 202.5q0 92 -66 160.5t-153 68.5q-201 0 -559 -505z" />
    <glyph glyph-name="uniFEBD" unicode="&#x636;" horiz-adv-x="2644" arabic-form="isolated" 
d="M1409 425q246 377 415.5 522.5t301.5 145.5q168 0 280.5 -118.5t112.5 -299.5q0 -221 -195.5 -348t-527.5 -127h-328q-85 0 -141 47q-8 -237 -171 -375.5t-464 -138.5q-296 0 -454 116.5t-158 338.5q0 131 43 313l164 -41q-33 -156 -33 -270q0 -262 438 -262
q461 0 461 422q0 36 -8 182l170 43q18 -124 94 -150zM1567 395h229q252 0 400.5 73.5t148.5 202.5q0 92 -66 160.5t-153 68.5q-201 0 -559 -505zM1546 1111h-178v178h178v-178z" />
    <glyph glyph-name="dadfinalarabic" unicode="&#x636;" horiz-adv-x="2644" arabic-form="final" 
d="M2646 200h-66q-197 0 -270 117v2q-198 -119 -514 -119h-328q-85 0 -141 47q-8 -237 -171 -375.5t-464 -138.5q-296 0 -454 116.5t-158 338.5q0 131 43 313l164 -41q-33 -156 -33 -270q0 -262 438 -262q461 0 461 422q0 36 -8 182l170 43q18 -124 94 -150
q246 377 415.5 522.5t301.5 145.5q168 0 280.5 -118.5t112.5 -299.5q0 -124 -65 -221q35 -59 118 -59h74v-195zM1567 395h229q252 0 400.5 73.5t148.5 202.5q0 92 -66 160.5t-153 68.5q-201 0 -559 -505zM1546 1111h-178v178h178v-178z" />
    <glyph glyph-name="dadinitialarabic" unicode="&#x636;" horiz-adv-x="1673" arabic-form="initial" 
d="M424 405q267 406 435 547t296 141q168 0 280.5 -118.5t112.5 -299.5q0 -219 -194 -347t-529 -128h-331q-168 0 -246 84q-78 -84 -246 -84h-4v195h12q152 0 152 204v101h174v-101q0 -159 88 -194zM596 395h229q252 0 400.5 73.5t148.5 202.5q0 92 -66 160.5t-153 68.5
q-201 0 -559 -505zM575 1093h-178v178h178v-178z" />
    <glyph glyph-name="dadmedialarabic" unicode="&#x636;" horiz-adv-x="1673" arabic-form="medial" 
d="M1675 200h-65q-198 0 -271 117v2q-198 -119 -514 -119h-331q-168 0 -246 84q-78 -84 -246 -84h-4v195h12q152 0 152 204v101h174v-101q0 -159 88 -194q267 406 435 547t296 141q168 0 280.5 -118.5t112.5 -299.5q0 -124 -65 -221q35 -59 119 -59h73v-195zM596 395h229
q252 0 400.5 73.5t148.5 202.5q0 92 -66 160.5t-153 68.5q-201 0 -559 -505zM575 1093h-178v178h178v-178z" />
    <glyph glyph-name="uniFEC1" unicode="&#x637;" horiz-adv-x="1726" arabic-form="isolated" 
d="M561 530q377 563 647 563q168 0 281 -118.5t113 -299.5q0 -221 -195.5 -348t-527.5 -127h-758v195h266v1210h174v-1075zM649 395h230q251 0 399.5 73.5t148.5 202.5q0 92 -65.5 160.5t-153.5 68.5q-201 0 -559 -505z" />
    <glyph glyph-name="tahfinalarabic" unicode="&#x637;" horiz-adv-x="1726" arabic-form="final" 
d="M1728 200h-65q-198 0 -270 117q-195 -117 -514 -117h-758v195h266v1210h174v-1075q377 563 647 563q168 0 281 -118.5t113 -299.5q0 -124 -66 -221q35 -59 119 -59h73v-195zM649 395h230q251 0 399.5 73.5t148.5 202.5q0 92 -65.5 160.5t-153.5 68.5q-201 0 -559 -505z
" />
    <glyph glyph-name="tahinitialarabic" unicode="&#x637;" horiz-adv-x="1726" arabic-form="initial" 
d="M561 530q377 563 647 563q168 0 281 -118.5t113 -299.5q0 -221 -195.5 -348t-527.5 -127h-758v195h266v1210h174v-1075zM649 395h230q251 0 399.5 73.5t148.5 202.5q0 92 -65.5 160.5t-153.5 68.5q-201 0 -559 -505z" />
    <glyph glyph-name="tahmedialarabic" unicode="&#x637;" horiz-adv-x="1726" arabic-form="medial" 
d="M1728 200h-65q-198 0 -270 117q-195 -117 -514 -117h-758v195h266v1210h174v-1075q377 563 647 563q168 0 281 -118.5t113 -299.5q0 -124 -66 -221q35 -59 119 -59h73v-195zM649 395h230q251 0 399.5 73.5t148.5 202.5q0 92 -65.5 160.5t-153.5 68.5q-201 0 -559 -505z
" />
    <glyph glyph-name="zahfinalarabic" unicode="&#x638;" horiz-adv-x="1726" arabic-form="final" 
d="M1728 200h-65q-198 0 -270 117q-195 -117 -514 -117h-758v195h266v1210h174v-1075q377 563 647 563q168 0 281 -118.5t113 -299.5q0 -124 -66 -221q35 -59 119 -59h73v-195zM649 395h230q251 0 399.5 73.5t148.5 202.5q0 92 -65.5 160.5t-153.5 68.5q-201 0 -559 -505z
M965 1216h-178v178h178v-178z" />
    <glyph glyph-name="zahinitialarabic" unicode="&#x638;" horiz-adv-x="1501" arabic-form="initial" 
d="M336 530q376 563 647 563q168 0 280.5 -118.5t112.5 -299.5q0 -219 -194 -347t-529 -128h-655v195h164v1210h174v-1075zM424 395h229q252 0 400.5 73.5t148.5 202.5q0 92 -65.5 160.5t-153.5 68.5q-201 0 -559 -505zM741 1216h-178v178h178v-178z" />
    <glyph glyph-name="zahmedialarabic" unicode="&#x638;" horiz-adv-x="1501" arabic-form="medial" 
d="M1503 200h-65q-198 0 -271 117q-194 -117 -514 -117h-655v195h164v1210h174v-1075q376 563 647 563q168 0 280.5 -118.5t112.5 -299.5q0 -124 -65 -221q35 -59 119 -59h73v-195zM424 395h229q252 0 400.5 73.5t148.5 202.5q0 92 -65.5 160.5t-153.5 68.5
q-201 0 -559 -505zM741 1216h-178v178h178v-178z" />
    <glyph glyph-name="uniFEC9" unicode="&#x639;" horiz-adv-x="1217" arabic-form="isolated" 
d="M1157 -278q-222 -70 -444 -70q-271 0 -437.5 137t-166.5 355q0 140 76 249.5t214 166.5q-182 111 -182 293q0 138 104 246.5t271 108.5q313 0 377 -279l-174 -18q-34 102 -203 102q-87 0 -144 -45t-57 -115q0 -138 176 -229l361 61l39 -161l-317 -55q-163 -29 -233 -79.5
t-102 -113.5t-32 -134q0 -127 121.5 -211t306.5 -84q174 0 415 61z" />
    <glyph glyph-name="ainfinalarabic" unicode="&#x639;" horiz-adv-x="1139" arabic-form="final" 
d="M1161 -278q-222 -70 -444 -70q-276 0 -440 125.5t-164 337.5q0 235 237 386q-225 104 -225 301q0 166 113 286t313 120q220 0 332 -111l-125 -141q-65 57 -207 57q-110 0 -181 -63.5t-71 -147.5q0 -164 207 -215l434 178v-194q-62 -31 -111 -47q36 -51 116 -90t140 -39
h56v-195h-51q-100 0 -210.5 76t-185.5 196q-159 -60 -205 -82.5t-99.5 -63t-78 -94t-24.5 -115.5q0 -132 110 -201t318 -69q174 0 415 61z" />
    <glyph glyph-name="aininitialarabic" unicode="&#x639;" horiz-adv-x="1200" arabic-form="initial" 
d="M1073 405q-276 -91 -577 -148t-498 -57v195q135 0 346 28q-93 55 -150 154.5t-57 204.5q0 191 122.5 308.5t322.5 117.5q377 0 444 -328l-180 -23q-36 156 -264 156q-120 0 -195.5 -63.5t-75.5 -167.5q0 -102 66 -189.5t178 -132.5q212 44 518 139v-194z" />
    <glyph glyph-name="ainmedialarabic" unicode="&#x639;" horiz-adv-x="1135" arabic-form="medial" 
d="M1137 200h-52q-114 0 -213 55t-161 158q-464 -213 -713 -213v195q141 0 336 63q-213 131 -213 324q0 195 115 310.5t311 115.5q219 0 332 -111l-125 -141q-65 57 -207 57q-114 0 -183 -62.5t-69 -168.5q0 -82 64 -148t165 -98q199 71 432 188v-194q-59 -31 -110 -51
q60 -84 235 -84h56v-195z" />
    <glyph glyph-name="uniFECD" unicode="&#x63a;" horiz-adv-x="1217" arabic-form="isolated" 
d="M1157 -278q-222 -70 -444 -70q-271 0 -437.5 137t-166.5 355q0 140 76 249.5t214 166.5q-182 111 -182 293q0 138 104 246.5t271 108.5q313 0 377 -279l-174 -18q-34 102 -203 102q-87 0 -144 -45t-57 -115q0 -138 176 -229l361 61l39 -161l-317 -55q-163 -29 -233 -79.5
t-102 -113.5t-32 -134q0 -127 121.5 -211t306.5 -84q174 0 415 61zM635 1467h-178v178h178v-178z" />
    <glyph glyph-name="ghainfinalarabic" unicode="&#x63a;" horiz-adv-x="1139" arabic-form="final" 
d="M1161 -278q-222 -70 -444 -70q-276 0 -440 125.5t-164 337.5q0 235 237 386q-225 104 -225 301q0 166 113 286t313 120q220 0 332 -111l-125 -141q-65 57 -207 57q-110 0 -181 -63.5t-71 -147.5q0 -164 207 -215l434 178v-194q-62 -31 -111 -47q36 -51 116 -90t140 -39
h56v-195h-51q-100 0 -210.5 76t-185.5 196q-159 -60 -205 -82.5t-99.5 -63t-78 -94t-24.5 -115.5q0 -132 110 -201t318 -69q174 0 415 61zM635 1467h-178v178h178v-178z" />
    <glyph glyph-name="ghaininitialarabic" unicode="&#x63a;" horiz-adv-x="1200" arabic-form="initial" 
d="M1073 405q-276 -91 -577 -148t-498 -57v195q135 0 346 28q-93 55 -150 154.5t-57 204.5q0 191 122.5 308.5t322.5 117.5q377 0 444 -328l-180 -23q-36 156 -264 156q-120 0 -195.5 -63.5t-75.5 -167.5q0 -102 66 -189.5t178 -132.5q212 44 518 139v-194zM624 1448h-178
v178h178v-178z" />
    <glyph glyph-name="ghainmedialarabic" unicode="&#x63a;" horiz-adv-x="1135" arabic-form="medial" 
d="M1137 200h-52q-114 0 -213 55t-161 158q-464 -213 -713 -213v195q141 0 336 63q-213 131 -213 324q0 195 115 310.5t311 115.5q219 0 332 -111l-125 -141q-65 57 -207 57q-114 0 -183 -62.5t-69 -168.5q0 -82 64 -148t165 -98q199 71 432 188v-194q-59 -31 -110 -51
q60 -84 235 -84h56v-195zM624 1448h-178v178h178v-178z" />
    <glyph glyph-name="uniFED1" unicode="&#x641;" horiz-adv-x="1960" arabic-form="isolated" 
d="M1628 626q-74 -23 -110 -23q-159 0 -266 95.5t-107 275.5q0 149 98 257t219 108q141 0 256 -158.5t115 -392.5q0 -302 -248.5 -445t-785.5 -143q-331 0 -501.5 118t-170.5 349q0 124 43 268l164 -41q-33 -118 -33 -225q0 -133 127.5 -203.5t372.5 -70.5q376 0 571 53.5
t256 177.5zM1655 821q0 119 -59 221t-134 102q-60 0 -101.5 -48t-41.5 -122q0 -79 52.5 -127.5t135.5 -48.5q67 0 148 23zM1485 1605h-178v178h178v-178z" />
    <glyph glyph-name="fehfinalarabic" unicode="&#x641;" horiz-adv-x="1849" arabic-form="final" 
d="M1851 200h-16q-131 0 -270.5 25t-225.5 67q-349 -160 -649 -160q-294 0 -428.5 112.5t-134.5 361.5q0 123 43 268l164 -41q-33 -119 -33 -225q0 -159 95 -220t296 -61q196 0 465 84q-61 41 -102 113.5t-41 142.5q0 142 95.5 240t248.5 98q150 0 247 -98t97 -240
t-152 -246q130 -26 281 -26h20v-195zM1358 479q170 73 170 188q0 59 -48.5 101t-121.5 42q-78 0 -124 -41t-46 -102q0 -111 170 -188zM1440 1271h-178v178h178v-178z" />
    <glyph glyph-name="fehinitialarabic" unicode="&#x641;" horiz-adv-x="954" arabic-form="initial" 
d="M623 626q-75 -23 -111 -23q-159 0 -266 95.5t-107 275.5q0 149 98.5 257t219.5 108q141 0 255.5 -158.5t114.5 -392.5q0 -277 -219.5 -432.5t-609.5 -155.5v195q268 0 412.5 54t212.5 177zM649 821q0 119 -59 221t-133 102q-61 0 -102.5 -48t-41.5 -122q0 -80 53 -128
t136 -48q66 0 147 23zM502 1575h-178v178h178v-178z" />
    <glyph glyph-name="fehmedialarabic" unicode="&#x641;" horiz-adv-x="983" arabic-form="medial" 
d="M985 200h-12q-116 0 -253.5 29.5t-227.5 76.5q-91 -47 -228.5 -76.5t-253.5 -29.5h-12v195h16q122 0 285 30q-68 37 -110 103.5t-42 138.5q0 140 96 239t249 99q150 0 247 -98t97 -240q0 -72 -41.5 -137.5t-110.5 -104.5q134 -30 285 -30h16v-195zM492 483
q170 70 170 184q0 59 -49 101t-121 42q-80 0 -125 -40t-45 -103q0 -108 170 -184zM579 1271h-178v178h178v-178z" />
    <glyph glyph-name="uniFED5" unicode="&#x642;" horiz-adv-x="1638" arabic-form="isolated" 
d="M1321 413q-44 -14 -109 -14q-157 0 -281 101.5t-124 285.5q0 165 101 277t233 112q142 0 256 -170.5t114 -429.5q0 -340 -251.5 -576.5t-655.5 -236.5q-253 0 -393.5 125t-140.5 350q0 131 43 264l163 -41q-32 -107 -32 -221q0 -125 91.5 -204t270.5 -79q270 0 463.5 130
t251.5 327zM1348 612q-8 141 -68 254.5t-129 113.5q-62 0 -111 -56.5t-49 -137.5t64 -137t157 -56q77 0 136 19zM1342 1441h-147v147h147v-147zM1074 1441h-148v147h148v-147z" />
    <glyph glyph-name="qaffinalarabic" unicode="&#x642;" horiz-adv-x="1686" arabic-form="final" 
d="M1688 200h-195q-78 -261 -313.5 -404.5t-565.5 -143.5q-254 0 -394 120t-140 344q0 124 43 268l164 -41q-33 -118 -33 -225q0 -129 94.5 -200t267.5 -71q501 0 695 353h-86q-389 0 -389 328q0 170 107.5 306t234.5 136q146 0 246 -148t100 -403v-24h164v-195zM1350 395
q0 133 -51 256.5t-121 123.5q-58 0 -113 -80.5t-55 -166.5q0 -69 45 -101t159 -32h136zM1333 1193h-147v148h147v-148zM1065 1193h-147v148h147v-148z" />
    <glyph glyph-name="qafinitialarabic" unicode="&#x642;" horiz-adv-x="954" arabic-form="initial" 
d="M623 626q-75 -23 -111 -23q-159 0 -266 95.5t-107 275.5q0 149 98.5 257t219.5 108q141 0 255.5 -158.5t114.5 -392.5q0 -277 -219.5 -432.5t-609.5 -155.5v195q268 0 412.5 54t212.5 177zM649 821q0 119 -59 221t-133 102q-61 0 -102.5 -48t-41.5 -122q0 -80 53 -128
t136 -48q66 0 147 23zM621 1575h-147v147h147v-147zM353 1575h-148v147h148v-147z" />
    <glyph glyph-name="qafmedialarabic" unicode="&#x642;" horiz-adv-x="983" arabic-form="medial" 
d="M985 200h-12q-116 0 -253.5 29.5t-227.5 76.5q-91 -47 -228.5 -76.5t-253.5 -29.5h-12v195h16q122 0 285 30q-68 37 -110 103.5t-42 138.5q0 140 96 239t249 99q150 0 247 -98t97 -240q0 -72 -41.5 -137.5t-110.5 -104.5q134 -30 285 -30h16v-195zM492 483
q170 70 170 184q0 59 -49 101t-121 42q-80 0 -125 -40t-45 -103q0 -108 170 -184zM699 1271h-147v147h147v-147zM431 1271h-148v147h148v-147z" />
    <glyph glyph-name="uniFED9" unicode="&#x643;" horiz-adv-x="1550" arabic-form="isolated" 
d="M1411 849q0 -315 -176.5 -482t-513.5 -167h-51q-256 0 -399.5 105.5t-143.5 300.5q0 89 23 202l163 -41q-12 -72 -12 -159q0 -108 103.5 -160.5t267.5 -52.5h43q256 0 389 114t133 334v823h174v-817zM860 1226q-54 -10 -91.5 -30.5t-37.5 -43.5q0 -22 70 -55
q77 -36 99 -64t22 -59q0 -87 -88 -140t-244 -63v80q117 5 186.5 36.5t69.5 80.5q0 30 -79 68q-72 34 -92 59t-20 53q0 60 56 102t149 56v-80z" />
    <glyph glyph-name="kaffinalarabic" unicode="&#x643;" horiz-adv-x="1501" arabic-form="final" 
d="M1503 200h-4q-248 0 -309 195q-179 -195 -578 -195q-255 0 -398.5 105.5t-143.5 300.5q0 89 22 202l164 -41q-12 -72 -12 -159q0 -103 96 -158t274 -55q279 0 415 109.5t136 338.5v823h174v-1067q0 -204 152 -204h12v-195zM795 1226q-54 -10 -91.5 -30.5t-37.5 -43.5
q0 -22 70 -55q76 -36 98 -64t22 -59q0 -87 -87.5 -140t-244.5 -63v80q117 5 186.5 36.5t69.5 80.5q0 30 -79 68q-71 34 -91 59t-20 53q0 60 56 102t149 56v-80z" />
    <glyph glyph-name="kafinitialarabic" unicode="&#x643;" horiz-adv-x="885" arabic-form="initial" 
d="M885 1478l-366 -149q-169 -68 -207 -87t-57 -36.5t-19 -34.5q0 -45 83 -148l181 -216q57 -68 83.5 -131.5t26.5 -127.5q0 -166 -116.5 -257t-315.5 -91h-180v195h182q118 0 187 43.5t69 115.5q0 79 -90 189l-184 220q-54 65 -77.5 113.5t-23.5 100.5q0 81 66 141t196 115
l562 235v-190z" />
    <glyph glyph-name="kafmedialarabic" unicode="&#x643;" horiz-adv-x="1124" arabic-form="medial" 
d="M1122 200h-65q-100 0 -221 63.5t-240 180.5q-34 -119 -145 -181.5t-273 -62.5h-180v195h182q118 0 187 43.5t69 115.5q0 79 -90 189l-184 220q-54 65 -77.5 113.5t-23.5 100.5q0 81 66 141t196 115l562 235v-190l-366 -149q-169 -68 -207 -87t-57 -36.5t-19 -34.5
q0 -44 55 -113l240 -287q183 -218 302 -297t220 -79h69v-195z" />
    <glyph glyph-name="uniFEDD" unicode="&#x644;" horiz-adv-x="1356" arabic-form="isolated" 
d="M1217 601q0 -358 -164.5 -503.5t-501.5 -145.5q-481 0 -481 406q0 89 22 202l164 -41q-12 -71 -12 -159q0 -115 74 -164t235 -49q254 0 371.5 95t117.5 353v1071h175v-1065z" />
    <glyph glyph-name="lamfinalarabic" unicode="&#x644;" horiz-adv-x="1356" arabic-form="final" 
d="M1217 601q0 -358 -164.5 -503.5t-501.5 -145.5q-481 0 -481 406q0 89 22 202l164 -41q-12 -71 -12 -159q0 -115 74 -164t235 -49q254 0 371.5 95t117.5 353v1071h175v-1065z" />
    <glyph glyph-name="laminitialarabic" unicode="&#x644;" horiz-adv-x="559" arabic-form="initial" 
d="M397 595q0 -195 -101.5 -295t-293.5 -100h-4v195h74q151 0 151 204v1067h174v-1071z" />
    <glyph glyph-name="lammedialarabic" unicode="&#x644;" horiz-adv-x="559" arabic-form="medial" 
d="M397 595q0 -195 -101.5 -295t-293.5 -100h-4v195h74q151 0 151 204v1067h174v-1071z" />
    <glyph glyph-name="uniFEE1" unicode="&#x645;" horiz-adv-x="1206" arabic-form="isolated" 
d="M119 -343v400q0 153 39.5 219t144.5 106q69 27 94 119q65 235 150.5 334.5t214.5 99.5q134 0 225.5 -107.5t91.5 -256.5q0 -180 -106.5 -275.5t-265.5 -95.5q-124 0 -215 80q-33 -38 -116 -70q-41 -16 -56 -39t-21 -58.5t-6 -84.5v-371h-174zM563 452q81 -57 154 -57
q83 0 135.5 48.5t52.5 127.5q0 73 -41 121.5t-102 48.5q-125 0 -199 -289z" />
    <glyph glyph-name="meemfinalarabic" unicode="&#x645;" horiz-adv-x="1311" arabic-form="final" 
d="M1313 200h-15q-90 0 -165.5 41.5t-110.5 112.5q-49 -77 -134 -115.5t-181 -38.5q-146 0 -211 55q-25 -29 -92 -50q-52 -16 -72 -34.5t-29.5 -54.5t-9.5 -88v-371h-174v385q0 160 41.5 230.5t142.5 109.5q72 28 86 86q59 245 148 356t225 111q100 0 187 -75t118 -193
q72 -272 231 -272h15v-195zM561 429q83 -34 156 -34q83 0 135.5 48.5t52.5 127.5q0 73 -41 121.5t-102 48.5q-65 0 -119 -84.5t-82 -227.5z" />
    <glyph glyph-name="meeminitialarabic" unicode="&#x645;" horiz-adv-x="985" arabic-form="initial" 
d="M-2 395h43q56 0 90 31.5t55 107.5q61 214 144.5 307.5t210.5 93.5q131 0 224 -105.5t93 -258.5q0 -180 -107 -275.5t-266 -95.5q-135 0 -215 82q-61 -82 -219 -82h-53v195zM342 452q77 -57 154 -57q83 0 135.5 48.5t52.5 127.5q0 73 -41.5 121.5t-101.5 48.5
q-126 0 -199 -289z" />
    <glyph glyph-name="meemmedialarabic" unicode="&#x645;" horiz-adv-x="1090" arabic-form="medial" 
d="M1092 200h-15q-91 0 -166 41.5t-110 112.5q-49 -77 -134 -115.5t-182 -38.5q-132 0 -215 82q-61 -82 -225 -82h-47v195h43q56 0 90 31.5t55 107.5q61 214 144.5 307.5t210.5 93.5q110 0 191 -72t114 -196q72 -272 231 -272h15v-195zM342 452q77 -57 154 -57
q83 0 135.5 48.5t52.5 127.5q0 73 -41.5 121.5t-101.5 48.5q-124 0 -199 -289z" />
    <glyph glyph-name="uniFEE5" unicode="&#x646;" horiz-adv-x="1417" arabic-form="isolated" 
d="M1262 757q28 -174 28 -317q0 -223 -157 -355.5t-426 -132.5q-267 0 -423.5 133t-156.5 355q0 143 29 317l163 -41q-18 -141 -18 -274q0 -142 104.5 -218.5t303.5 -76.5t303 76.5t104 218.5q0 133 -18 274zM803 961h-178v178h178v-178z" />
    <glyph glyph-name="noonfinalarabic" unicode="&#x646;" horiz-adv-x="1481" arabic-form="final" 
d="M1483 200h-15q-85 0 -141 47q-8 -237 -171 -375.5t-464 -138.5q-285 0 -448.5 128.5t-163.5 356.5q0 147 43 357l164 -41q-33 -184 -33 -314t111.5 -211t326.5 -81q461 0 461 422q0 36 -8 182l170 43q25 -180 153 -180h15v-195zM799 753h-178v178h178v-178z" />
    <glyph glyph-name="nooninitialarabic" unicode="&#x646;" horiz-adv-x="565" arabic-form="initial" 
d="M397 595q0 -215 -82 -305t-252 -90h-65v195h74q151 0 151 204v183h174v-187zM340 1050h-178v178h178v-178z" />
    <glyph glyph-name="noonmedialarabic" unicode="&#x646;" horiz-adv-x="498" arabic-form="medial" 
d="M500 200h-4q-170 0 -248 84q-78 -84 -246 -84h-4v195h12q152 0 152 204v183h174v-183q0 -204 151 -204h13v-195zM340 1050h-178v178h178v-178z" />
    <glyph glyph-name="uniFEE9" unicode="&#x647;" horiz-adv-x="1053" arabic-form="isolated" 
d="M526 1083q400 -200 400 -504q0 -191 -107 -291t-293 -100q-181 0 -290 104t-109 287q0 150 102.5 281.5t296.5 222.5zM752 579q0 96 -65 187.5t-161 144.5q-96 -57 -160.5 -147.5t-64.5 -184.5q0 -197 225 -197q105 0 165.5 50.5t60.5 146.5z" />
    <glyph glyph-name="hehfinalalttwoarabic" unicode="&#x647;" horiz-adv-x="977" arabic-form="final" 
d="M979 200h-4q-145 0 -222.5 63t-105.5 191q-28 -53 -100 -91t-150 -38q-116 0 -193 74t-77 202q0 139 110.5 253t331.5 175l-10 84h174l43 -358q22 -187 31 -224.5t31 -70.5t54 -49t75 -16h12v-195zM586 886q-267 -76 -267 -280q0 -40 31 -64.5t72 -24.5q57 0 122.5 52
t65.5 110q0 13 -24 207z" />
    <glyph glyph-name="hehinitialarabic" unicode="&#x647;" horiz-adv-x="1405" arabic-form="initial" 
d="M199 1388q133 26 307 26q334 0 553 -173t219 -441q0 -218 -160 -364t-395 -146q-102 0 -199 23q-246 -113 -514 -113h-12v195h16q151 0 277 22q-144 109 -144 262q0 132 96.5 229t248.5 97q151 0 247.5 -95.5t96.5 -236.5q0 -112 -91 -209q170 6 264.5 97t94.5 235
q0 190 -164 307t-434 117q-102 0 -252 -27zM518 489q144 77 144 184q0 58 -48.5 97.5t-121.5 39.5q-78 0 -124 -38.5t-46 -92.5q0 -131 196 -190z" />
    <glyph glyph-name="hehmedialarabic" unicode="&#x647;" horiz-adv-x="829" arabic-form="medial" 
d="M831 200h-333q107 -31 177 -115t70 -159q0 -126 -67 -200t-176 -74q-128 0 -260.5 171.5t-132.5 380.5q-45 -4 -72 -4h-39v195h33q34 0 92 2q47 266 171.5 419.5t213.5 153.5q92 0 175 -98.5t83 -222.5q0 -82 -72.5 -155.5t-191.5 -98.5h329v-195zM301 405
q125 24 215 96.5t90 147.5q0 50 -34 88t-64 38q-44 0 -111 -102t-96 -268zM586 -74q0 71 -87 158.5t-216 119.5v-14q0 -112 73.5 -227.5t145.5 -115.5q84 0 84 79z" />
    <glyph glyph-name="uniFEED" unicode="&#x648;" horiz-adv-x="963" arabic-form="isolated" 
d="M641 413q-55 -14 -104 -14q-157 0 -281.5 101.5t-124.5 285.5q0 165 101 277t233 112q142 0 256.5 -170.5t114.5 -429.5q0 -232 -104 -443.5t-280.5 -336.5t-373.5 -125q-64 0 -179 13l37 197q80 -16 144 -16q204 0 359 159t202 390zM662 608q-8 142 -68 257t-129 115
q-62 0 -111 -56.5t-49 -137.5t64 -137t157 -56q82 0 136 15zM96 -348z" />
    <glyph glyph-name="wawfinalarabic" unicode="&#x648;" horiz-adv-x="954" arabic-form="final" 
d="M956 200h-170q-51 -263 -228 -396.5t-462 -133.5q-70 0 -196 14l37 197q89 -17 161 -17q225 0 342 79.5t154 256.5h-84q-157 0 -281.5 102t-124.5 285q0 165 101 277t233 112q136 0 249.5 -158.5t121.5 -422.5h147v-195zM635 395q0 155 -58.5 271t-138.5 116
q-62 0 -110.5 -57t-48.5 -138t63.5 -136.5t157.5 -55.5h135zM96 -348z" />
    <glyph glyph-name="uniFEEF" unicode="&#x649;" horiz-adv-x="1497" arabic-form="isolated" 
d="M1391 849l-174 -18q-34 102 -203 102q-77 0 -131 -33.5t-54 -87.5q0 -31 34.5 -65t174.5 -103q211 -105 271.5 -178t60.5 -151q0 -153 -163.5 -258t-499.5 -105q-294 0 -467.5 105.5t-173.5 304.5q0 99 47 235l159 -41q-32 -106 -32 -192q0 -110 106 -163.5t363 -53.5
q241 0 364 48.5t123 123.5q0 38 -38 77t-190 115q-201 100 -257 166t-56 135q0 118 101.5 217t257.5 99q313 0 377 -279z" />
    <glyph glyph-name="alefmaksurafinalarabic" unicode="&#x649;" horiz-adv-x="1624" arabic-form="final" 
d="M1626 200h-6q-43 0 -127 39q-71 29 -102 29q-23 0 -37.5 -12t-14.5 -28q0 -18 49 -87q70 -101 70 -139q0 -125 -215.5 -237.5t-531.5 -112.5q-294 0 -467.5 105.5t-173.5 304.5q0 99 47 235l159 -41q-32 -107 -32 -192q0 -110 106 -163.5t363 -53.5q247 0 409 56t162 124
q0 18 -45 85q-74 109 -74 156q0 77 66 136t160 59q40 0 132 -35q71 -33 97 -33h6v-195z" />
    <glyph glyph-name="uniFEF1" unicode="&#x64a;" horiz-adv-x="1497" arabic-form="isolated" 
d="M1391 849l-174 -18q-34 102 -203 102q-77 0 -131 -33.5t-54 -87.5q0 -31 34.5 -65t174.5 -103q211 -105 271.5 -178t60.5 -151q0 -153 -163.5 -258t-499.5 -105q-294 0 -467.5 105.5t-173.5 304.5q0 99 47 235l159 -41q-32 -106 -32 -192q0 -110 106 -163.5t363 -53.5
q241 0 364 48.5t123 123.5q0 38 -38 77t-190 115q-201 100 -257 166t-56 135q0 118 101.5 217t257.5 99q313 0 377 -279zM1012 -285h-147v147h147v-147zM744 -285h-148v147h148v-147z" />
    <glyph glyph-name="yehfinalarabic" unicode="&#x64a;" horiz-adv-x="1645" arabic-form="final" 
d="M1647 200h-7q-49 0 -152 89q-73 62 -110 62q-21 0 -30 -9.5t-9 -24.5q0 -21 45 -68q65 -64 65 -124q0 -124 -191.5 -191.5t-551.5 -67.5q-309 0 -472.5 84.5t-163.5 278.5q0 99 47 216l159 -41q-32 -85 -32 -158q0 -94 106 -140t368 -46q280 0 413 26.5t133 64.5
q0 30 -41 69q-68 66 -68 135q0 72 51.5 120.5t139.5 48.5q90 0 188 -78q65 -51 106 -51h7v-195zM951 -348h-127v127h127v-127zM704 -348h-127v127h127v-127z" />
    <glyph glyph-name="alefmaksurainitialarabic" unicode="&#x64a;" horiz-adv-x="559" arabic-form="initial" 
d="M397 595q0 -215 -82 -305t-252 -90h-65v195h74q151 0 151 204v183h174v-187zM447 -85h-147v147h147v-147zM179 -85h-148v147h148v-147z" />
    <glyph glyph-name="alefmaksuramedialarabic" unicode="&#x64a;" horiz-adv-x="498" arabic-form="medial" 
d="M500 200h-4q-170 0 -248 84q-78 -84 -246 -84h-4v195h12q152 0 152 204v183h174v-183q0 -204 151 -204h13v-195zM459 -85h-147v147h147v-147zM191 -85h-148v147h148v-147z" />
    <glyph glyph-name="lamalefmaddaaboveisolatedarabic" unicode="&#xfef5;" horiz-adv-x="1128" arabic-form="isolated" 
d="M971 902q0 -702 -664 -702q-68 0 -170 14l39 195q76 -14 131 -14q177 0 289 55l-580 1071l152 76l557 -1035q72 102 72 281v823h174v-764zM553 1829q-71 -86 -166 -86q-36 0 -135 32q-96 31 -129 31q-64 0 -119 -59l-51 55q70 84 164 84q37 0 137 -32q95 -31 129 -31
q72 0 119 61z" />
    <glyph glyph-name="lamalefmaddaabovefinalarabic" unicode="&#xfef6;" horiz-adv-x="1235" arabic-form="final" 
d="M1237 200h-49q-107 0 -198 63t-130 166q-74 -111 -186.5 -170t-241.5 -59q-150 0 -307 61l41 189q55 -24 135.5 -39.5t130.5 -15.5q97 0 164 55l-580 1071l152 76l557 -1035q72 102 72 281v823h174v-888q0 -175 54 -279t159 -104h53v-195zM555 1829q-71 -86 -166 -86
q-36 0 -135 32q-96 31 -129 31q-64 0 -119 -59l-51 55q70 84 164 84q37 0 137 -32q95 -31 129 -31q72 0 119 61z" />
    <glyph glyph-name="lamalefhamzaaboveisolatedarabic" unicode="&#xfef7;" horiz-adv-x="1128" arabic-form="isolated" 
d="M971 902q0 -702 -664 -702q-68 0 -170 14l39 195q76 -14 131 -14q177 0 289 55l-580 1071l152 76l557 -1035q72 102 72 281v823h174v-764zM385 1617l-272 -49v72l59 10q-78 33 -78 109q0 58 37 92.5t98 34.5q122 0 146 -109l-72 -6q-13 37 -72 37q-65 0 -65 -49
q0 -37 38.5 -60.5t96.5 -23.5l84 14v-72z" />
    <glyph glyph-name="lamalefhamzaabovefinalarabic" unicode="&#xfef8;" horiz-adv-x="1235" arabic-form="final" 
d="M1237 200h-49q-107 0 -198 63t-130 166q-74 -111 -186.5 -170t-241.5 -59q-150 0 -307 61l41 189q55 -24 135.5 -39.5t130.5 -15.5q97 0 164 55l-580 1071l152 76l557 -1035q72 102 72 281v823h174v-888q0 -175 54 -279t159 -104h53v-195zM385 1617l-272 -49v72l59 10
q-78 33 -78 109q0 58 37 92.5t98 34.5q122 0 146 -109l-72 -6q-13 37 -72 37q-65 0 -65 -49q0 -37 38.5 -60.5t96.5 -23.5l84 14v-72z" />
    <glyph glyph-name="lamalefhamzabelowisolatedarabic" unicode="&#xfef9;" horiz-adv-x="1128" arabic-form="isolated" 
d="M971 902q0 -702 -664 -702q-68 0 -170 14l39 195q76 -14 131 -14q177 0 289 55l-580 1071l152 76l557 -1035q72 102 72 281v823h174v-764zM429 -207l-272 -49v72l59 10q-78 33 -78 109q0 58 37 92.5t98 34.5q122 0 146 -109l-72 -6q-13 37 -72 37q-65 0 -65 -49
q0 -37 38.5 -60.5t96.5 -23.5l84 14v-72z" />
    <glyph glyph-name="lamalefhamzabelowfinalarabic" unicode="&#xfefa;" horiz-adv-x="1235" arabic-form="final" 
d="M1237 200h-49q-107 0 -198 63t-130 166q-74 -111 -186.5 -170t-241.5 -59q-150 0 -307 61l41 189q55 -24 135.5 -39.5t130.5 -15.5q97 0 164 55l-580 1071l152 76l557 -1035q72 102 72 281v823h174v-888q0 -175 54 -279t159 -104h53v-195zM446 -208l-272 -49v72l59 10
q-78 33 -78 109q0 58 37 92.5t98 34.5q122 0 146 -109l-72 -6q-13 37 -72 37q-65 0 -65 -49q0 -37 38.5 -60.5t96.5 -23.5l84 14v-72z" />
    <glyph glyph-name="lamalefisolatedarabic" unicode="&#xfefb;" horiz-adv-x="1128" arabic-form="isolated" 
d="M971 902q0 -702 -664 -702q-68 0 -170 14l39 195q76 -14 131 -14q177 0 289 55l-580 1071l152 76l557 -1035q72 102 72 281v823h174v-764z" />
    <glyph glyph-name="lamaleffinalarabic" unicode="&#xfefc;" horiz-adv-x="1235" arabic-form="final" 
d="M1237 200h-49q-107 0 -198 63t-130 166q-74 -111 -186.5 -170t-241.5 -59q-150 0 -307 61l41 189q55 -24 135.5 -39.5t130.5 -15.5q97 0 164 55l-580 1071l152 76l557 -1035q72 102 72 281v823h174v-888q0 -175 54 -279t159 -104h53v-195z" />
    <glyph glyph-name="uniFB66" unicode="&#x679;" horiz-adv-x="1579" arabic-form="isolated" 
d="M1444 702q8 -45 8 -111q0 -212 -192 -352.5t-521 -140.5q-294 0 -453 113.5t-159 320.5q0 119 39 211l164 -41q-29 -77 -29 -168q0 -242 438 -242q236 0 387.5 94.5t151.5 245.5q0 44 -8 70h174zM777 912h-207v72h64v363h67v-297q80 114 166 114q54 0 86.5 -32t32.5 -87
q0 -61 -55 -97t-154 -36zM867 1095q-32 0 -64 -23t-85 -88h59q67 0 104 17t37 44q0 19 -15 34.5t-36 15.5z" />
    <glyph glyph-name="ttehfinalarabic" unicode="&#x679;" horiz-adv-x="1614" arabic-form="final" 
d="M1616 200h-4q-195 0 -273 150q-175 -252 -600 -252q-294 0 -453 113.5t-159 320.5q0 119 39 211l164 -41q-29 -77 -29 -168q0 -242 438 -242q236 0 387.5 94.5t151.5 245.5q0 43 -6 70h174q6 -48 6 -111q0 -196 152 -196h12v-195zM807 912h-207v72h64v363h67v-297
q80 114 166 114q54 0 86.5 -32t32.5 -87q0 -61 -55 -97t-154 -36zM897 1095q-32 0 -64 -23t-85 -88h59q67 0 104 17t37 44q0 19 -15 34.5t-36 15.5z" />
    <glyph glyph-name="ttehinitialarabic" unicode="&#x679;" horiz-adv-x="565" arabic-form="initial" 
d="M397 595q0 -215 -82 -305t-252 -90h-65v195h74q151 0 151 204v183h174v-187zM277 912h-207v72h64v363h67v-297q80 114 166 114q54 0 86.5 -32t32.5 -87q0 -61 -55 -97t-154 -36zM367 1095q-32 0 -64 -23t-85 -88h59q67 0 104 17t37 44q0 19 -15 34.5t-36 15.5z" />
    <glyph glyph-name="ttehmedialarabic" unicode="&#x679;" horiz-adv-x="498" arabic-form="medial" 
d="M500 200h-4q-170 0 -248 84q-78 -84 -246 -84h-4v195h12q152 0 152 204v183h174v-183q0 -204 151 -204h13v-195zM237 912h-207v72h64v363h67v-297q80 114 166 114q54 0 86.5 -32t32.5 -87q0 -61 -55 -97t-154 -36zM327 1095q-32 0 -64 -23t-85 -88h59q67 0 104 17t37 44
q0 19 -15 34.5t-36 15.5z" />
    <glyph glyph-name="uniFB88" unicode="&#x688;" horiz-adv-x="881" arabic-form="isolated" 
d="M461 1095q293 -364 293 -502q0 -185 -158.5 -289t-456.5 -104h-61v195h57q445 0 445 198q0 128 -330 502h211zM327 1242h-207v72h64v363h67v-297q80 114 166 114q54 0 86.5 -32t32.5 -87q0 -61 -55 -97t-154 -36zM417 1425q-32 0 -64 -23t-85 -88h59q67 0 104 17t37 44
q0 19 -15 34.5t-36 15.5z" />
    <glyph glyph-name="ddalfinalarabic" unicode="&#x688;" horiz-adv-x="938" arabic-form="final" 
d="M940 200h-4q-215 0 -287 147q-155 -147 -510 -147h-61v195h57q445 0 445 198q0 65 -39.5 169.5t-169.5 330.5h209q132 -280 174 -469q28 -132 68.5 -180.5t105.5 -48.5h12v-195zM447 1242h-207v72h64v363h67v-297q80 114 166 114q54 0 86.5 -32t32.5 -87q0 -61 -55 -97
t-154 -36zM537 1425q-32 0 -64 -23t-85 -88h59q67 0 104 17t37 44q0 19 -15 34.5t-36 15.5z" />
    <glyph glyph-name="uniFB8C" unicode="&#x691;" horiz-adv-x="862" arabic-form="isolated" 
d="M666 794q65 -177 65 -375q0 -363 -183 -556t-503 -193q-51 0 -147 9l37 176q62 -11 112 -11q510 0 510 575q0 168 -102 375h211zM96 -348zM462 999h-207v72h64v363h67v-297q80 114 166 114q54 0 86.5 -32t32.5 -87q0 -61 -55 -97t-154 -36zM552 1182q-32 0 -64 -23
t-85 -88h59q67 0 104 17t37 44q0 19 -15 34.5t-36 15.5z" />
    <glyph glyph-name="rrehfinalarabic" unicode="&#x691;" horiz-adv-x="893" arabic-form="final" 
d="M895 200h-4q-121 0 -178 49q-43 -278 -218 -428.5t-436 -150.5q-65 0 -159 13l37 176q68 -15 124 -15q496 0 496 575q0 118 -53 270h192q23 -93 31 -172q12 -122 156 -122h12v-195zM96 -348zM394 942h-207v72h64v363h67v-297q80 114 166 114q54 0 86.5 -32t32.5 -87
q0 -61 -55 -97t-154 -36zM484 1125q-32 0 -64 -23t-85 -88h59q67 0 104 17t37 44q0 19 -15 34.5t-36 15.5z" />
    <glyph glyph-name="uniFB9E" unicode="&#x6ba;" horiz-adv-x="1417" arabic-form="isolated" 
d="M1262 757q28 -174 28 -317q0 -223 -157 -355.5t-426 -132.5q-267 0 -423.5 133t-156.5 355q0 143 29 317l163 -41q-18 -141 -18 -274q0 -142 104.5 -218.5t303.5 -76.5t303 76.5t104 218.5q0 133 -18 274z" />
    <glyph glyph-name="hehhamzaaboveisolatedarabic" unicode="&#x6c0;" horiz-adv-x="1053" arabic-form="isolated" 
d="M526 1083q400 -200 400 -504q0 -191 -107 -291t-293 -100q-181 0 -290 104t-109 287q0 150 102.5 281.5t296.5 222.5zM752 579q0 96 -65 187.5t-161 144.5q-96 -57 -160.5 -147.5t-64.5 -184.5q0 -197 225 -197q105 0 165.5 50.5t60.5 146.5zM685 1272l-272 -49v72l59 10
q-78 33 -78 109q0 58 37 92.5t98 34.5q122 0 146 -109l-72 -6q-13 37 -72 37q-65 0 -65 -49q0 -37 38.5 -60.5t96.5 -23.5l84 14v-72z" />
    <glyph glyph-name="hehhamzaabovefinalarabic" unicode="&#x6c0;" horiz-adv-x="977" arabic-form="final" 
d="M979 200h-4q-145 0 -222.5 63t-105.5 191q-28 -53 -100 -91t-150 -38q-116 0 -193 74t-77 202q0 139 110.5 253t331.5 175l-10 84h174l43 -358q22 -187 31 -224.5t31 -70.5t54 -49t75 -16h12v-195zM586 886q-267 -76 -267 -280q0 -40 31 -64.5t72 -24.5q57 0 122.5 52
t65.5 110q0 13 -24 207zM680 1325l-272 -49v72l59 10q-78 33 -78 109q0 58 37 92.5t98 34.5q122 0 146 -109l-72 -6q-13 37 -72 37q-65 0 -65 -49q0 -37 38.5 -60.5t96.5 -23.5l84 14v-72z" />
    <glyph glyph-name="uniFBA6" unicode="&#x6c1;" horiz-adv-x="1053" arabic-form="isolated" 
d="M526 1083q400 -200 400 -504q0 -191 -107 -291t-293 -100q-181 0 -290 104t-109 287q0 150 102.5 281.5t296.5 222.5zM752 579q0 96 -65 187.5t-161 144.5q-96 -57 -160.5 -147.5t-64.5 -184.5q0 -197 225 -197q105 0 165.5 50.5t60.5 146.5z" />
    <glyph glyph-name="hehfinalaltonearabic" unicode="&#x6c1;" horiz-adv-x="1063" arabic-form="final" 
d="M76 259l370 404q42 -67 141 -147t188.5 -100.5t238.5 -20.5h49v-195h-123q-350 0 -516 217l-348 -389v231z" />
    <glyph glyph-name="hehmedialaltonearabic" unicode="&#x6c1;" horiz-adv-x="1262" arabic-form="medial" 
d="M1264 200h-58q-454 0 -454 -277q0 -111 51 -271h-160q-144 52 -224.5 165.5t-80.5 242.5q0 138 68 271q-153 -131 -345 -131h-61v195h57q237 0 356.5 78t174.5 243h188q-54 -151 -155 -292q-119 -154 -119 -326q0 -137 94 -215q-8 55 -8 84q0 182 166.5 305t447.5 123h62
v-195z" />
    <glyph glyph-name="uniFBAA" unicode="&#x6be;" horiz-adv-x="1405" arabic-form="isolated" 
d="M199 1388q133 26 307 26q334 0 553 -173t219 -441q0 -218 -160 -364t-395 -146q-102 0 -199 23q-246 -113 -514 -113h-12v195h16q151 0 277 22q-144 109 -144 262q0 132 96.5 229t248.5 97q151 0 247.5 -95.5t96.5 -236.5q0 -112 -91 -209q170 6 264.5 97t94.5 235
q0 190 -164 307t-434 117q-102 0 -252 -27zM518 489q144 77 144 184q0 58 -48.5 97.5t-121.5 39.5q-78 0 -124 -38.5t-46 -92.5q0 -131 196 -190z" />
    <glyph glyph-name="uniFBAB" unicode="&#x6be;" horiz-adv-x="1540" arabic-form="final" 
d="M1542 200h-24q-123 0 -217 71.5t-142 207.5q-164 -189 -436 -189q-99 0 -199 23q-243 -113 -514 -113h-12v195h16q145 0 277 22q-144 107 -144 262q0 135 97.5 230.5t247.5 95.5q154 0 249 -97t95 -235q0 -112 -91 -209q170 7 264.5 96.5t94.5 235.5q0 100 -68.5 206
t-205.5 162t-324 56q-107 0 -252 -27l-55 195q127 26 307 26q336 0 554 -174t218 -440q0 -196 59.5 -300.5t175.5 -104.5h29v-195zM518 489q144 76 144 184q0 60 -48.5 98.5t-121.5 38.5q-79 0 -124.5 -39.5t-45.5 -91.5q0 -132 196 -190z" />
    <glyph glyph-name="uniFBAC" unicode="&#x6be;" horiz-adv-x="1405" arabic-form="initial" 
d="M199 1388q133 26 307 26q334 0 553 -173t219 -441q0 -218 -160 -364t-395 -146q-102 0 -199 23q-246 -113 -514 -113h-12v195h16q151 0 277 22q-144 109 -144 262q0 132 96.5 229t248.5 97q151 0 247.5 -95.5t96.5 -236.5q0 -112 -91 -209q170 6 264.5 97t94.5 235
q0 190 -164 307t-434 117q-102 0 -252 -27zM518 489q144 77 144 184q0 58 -48.5 97.5t-121.5 39.5q-78 0 -124 -38.5t-46 -92.5q0 -131 196 -190z" />
    <glyph glyph-name="uniFBAD" unicode="&#x6be;" horiz-adv-x="1540" arabic-form="medial" 
d="M1542 200h-24q-123 0 -217 71.5t-142 207.5q-164 -189 -436 -189q-99 0 -199 23q-243 -113 -514 -113h-12v195h16q145 0 277 22q-144 107 -144 262q0 135 97.5 230.5t247.5 95.5q154 0 249 -97t95 -235q0 -112 -91 -209q170 7 264.5 96.5t94.5 235.5q0 100 -68.5 206
t-205.5 162t-324 56q-107 0 -252 -27l-55 195q127 26 307 26q336 0 554 -174t218 -440q0 -196 59.5 -300.5t175.5 -104.5h29v-195zM518 489q144 76 144 184q0 60 -48.5 98.5t-121.5 38.5q-79 0 -124.5 -39.5t-45.5 -91.5q0 -132 196 -190z" />
    <glyph glyph-name="uniFBAE" unicode="&#x6d2;" horiz-adv-x="1503" arabic-form="isolated" 
d="M819 886v-92q0 -157 -48.5 -243.5t-148.5 -128.5l-315 -132q-92 -38 -92 -94q0 -49 64 -49h1171v-191h-1171q-107 0 -169.5 63t-62.5 161q0 190 186 268l306 126q46 19 83 66.5t37 153.5v92h160z" />
    <glyph glyph-name="yehbarreefinalarabic" unicode="&#x6d2;" horiz-adv-x="1331" arabic-form="final" 
d="M1450 -348h-1171q-107 0 -170.5 63t-63.5 160q0 94 50 161t145 89l332 74q38 8 83 30t84 50q102 71 156 93.5t115 22.5h325v-195h-313q-92 0 -186 -69q-100 -77 -169 -94l-354 -82q-98 -22 -98 -63q0 -50 64 -50h1171v-190z" />
    <glyph glyph-name="uniFBB0" unicode="&#x6d3;" horiz-adv-x="1503" arabic-form="isolated" 
d="M819 886v-92q0 -157 -48.5 -243.5t-148.5 -128.5l-315 -132q-92 -38 -92 -94q0 -49 64 -49h1171v-191h-1171q-107 0 -169.5 63t-62.5 161q0 190 186 268l306 126q46 19 83 66.5t37 153.5v92h160zM391 773l-272 -49v72l59 10q-78 33 -78 109q0 58 37 92.5t98 34.5
q122 0 146 -109l-72 -6q-13 37 -72 37q-65 0 -65 -49q0 -37 38.5 -60.5t96.5 -23.5l84 14v-72z" />
    <glyph glyph-name="uniFBB1" unicode="&#x6d3;" horiz-adv-x="1331" arabic-form="final" 
d="M1450 -348h-1171q-107 0 -170.5 63t-63.5 160q0 94 50 161t145 89l332 74q38 8 83 30t84 50q102 71 156 93.5t115 22.5h325v-195h-313q-92 0 -186 -69q-100 -77 -169 -94l-354 -82q-98 -22 -98 -63q0 -50 64 -50h1171v-190zM391 513l-272 -49v72l59 10q-78 33 -78 109
q0 58 37 92.5t98 34.5q122 0 146 -109l-72 -6q-13 37 -72 37q-65 0 -65 -49q0 -37 38.5 -60.5t96.5 -23.5l84 14v-72z" />
    <glyph glyph-name="uniFBFE" unicode="&#x6cc;" horiz-adv-x="565" arabic-form="initial" 
d="M397 595q0 -215 -82 -305t-252 -90h-65v195h74q151 0 151 204v183h174v-187zM447 -85h-147v147h147v-147zM179 -85h-148v147h148v-147z" />
    <glyph glyph-name="uniFBFF" unicode="&#x6cc;" horiz-adv-x="498" arabic-form="medial" 
d="M500 200h-4q-170 0 -248 84q-78 -84 -246 -84h-4v195h12q152 0 152 204v183h174v-183q0 -204 151 -204h13v-195zM456 -80h-147v147h147v-147zM188 -80h-148v147h148v-147z" />
    <glyph glyph-name="hehinitialaltonearabic" unicode="&#x6c1;" horiz-adv-x="565" arabic-form="initial" 
d="M42 200h-44v195h37q147 0 225.5 96.5t89.5 290.5h174q-10 -251 -128.5 -416.5t-353.5 -165.5zM313 -348q-76 52 -122.5 138.5t-46.5 176.5q0 87 59 162t148 101q-36 -92 -36 -179q0 -191 171 -330q43 -36 78 -69h-251z" />
    <glyph glyph-name="uniFE83" unicode="&#x623;" horiz-adv-x="498" arabic-form="isolated" 
d="M336 200h-174v1291h174v-1291zM385 1617l-272 -49v72l59 10q-78 33 -78 109q0 58 37 92.5t98 34.5q122 0 146 -109l-72 -6q-13 37 -72 37q-65 0 -65 -49q0 -37 38.5 -60.5t96.5 -23.5l84 14v-72z" />
    <glyph glyph-name="uniFEC5" unicode="&#x638;" horiz-adv-x="1726" arabic-form="isolated" 
d="M561 530q377 563 647 563q168 0 281 -118.5t113 -299.5q0 -221 -195.5 -348t-527.5 -127h-758v195h266v1210h174v-1075zM649 395h230q251 0 399.5 73.5t148.5 202.5q0 92 -65.5 160.5t-153.5 68.5q-201 0 -559 -505zM966 1216h-178v178h178v-178z" />
    <glyph glyph-name=".notdef" horiz-adv-x="500" 
d="M63 0v1280h1024v-1280h-1024zM95 32h960v1216h-960v-1216z" />
    <glyph glyph-name="NULL" 
 />
    <glyph glyph-name="glyph2" horiz-adv-x="390" 
 />
    <glyph glyph-name="space" unicode=" " horiz-adv-x="487" 
 />
    <glyph glyph-name="exclam" unicode="!" horiz-adv-x="651" 
d="M505 176q0 -37 -14.5 -68.5t-38 -55t-55 -38t-68.5 -14.5t-69 14.5t-55.5 38t-37.5 55t-14 68.5t14 68.5t37.5 55.5t55.5 38t69 14t68.5 -14t55 -38t38 -55.5t14.5 -68.5zM435 481h-84q-73 0 -115 45t-44 127l-21 750h125q74 0 118 -45t42 -127z" />
    <glyph glyph-name="quotedbl" unicode="&#x22;" horiz-adv-x="806" 
d="M331 909h-66q-73 0 -112 45t-48 127l-28 324h125q73 0 120.5 -45t38.5 -127zM718 909h-66q-73 0 -112 45t-47 127l-29 324h125q74 0 121 -45t39 -127z" />
    <glyph glyph-name="numbersign" unicode="#" horiz-adv-x="1208" 
d="M523 827l-47 -249h215l49 249h-217zM1175 961q0 -64 -38 -99t-110 -35h-63l-50 -249h170v-64q0 -63 -37.5 -99t-109.5 -36h-61l-74 -379h-84q-62 0 -87.5 30.5t-25.5 86.5q0 22 6 51l41 211h-215l-73 -379h-84q-62 0 -87.5 30.5t-25.5 86.5q0 24 6 53l41 209h-184v65
q0 64 37.5 99t109.5 35h76l47 249h-180v64q0 63 38 99t109 36h72l74 377h63q131 0 131 -125q0 -10 -1 -19.5t-3 -19.5l-41 -213h215l74 377h63q62 0 97 -32t35 -89v-22.5t-5 -26.5l-38 -207h172v-65z" />
    <glyph glyph-name="dollar" unicode="$" horiz-adv-x="1208" 
d="M1091 418q0 -99 -38 -174.5t-94.5 -128t-124 -81t-126.5 -32.5v-281h-66q-123 0 -123 117v162q-106 4 -178 28.5t-115 63.5t-61.5 88t-18.5 103v94h5q59 -58 159.5 -102t229.5 -44q153 0 212.5 41t59.5 127q0 39 -12.5 66t-48 48.5t-99 37.5t-168.5 35q-77 12 -145 37.5
t-117 67.5t-77.5 101.5t-28.5 141.5q0 92 33.5 164.5t91 126t129 85t149.5 42.5v274h80q109 0 109 -115v-153q165 -10 255.5 -75.5t90.5 -176.5v-109h-11q-63 66 -154 96.5t-208 30.5q-84 0 -139.5 -11t-89 -32.5t-48 -51.5t-14.5 -66q0 -35 10.5 -59.5t44 -43t97 -36
t172.5 -36.5q182 -32 279.5 -127.5t97.5 -242.5z" />
    <glyph glyph-name="percent" unicode="%" horiz-adv-x="2033" 
d="M1733 428q0 133 -35 203.5t-111 70.5q-65 0 -99 -67.5t-34 -175.5q0 -131 35 -203t113 -72q65 0 98 67.5t33 176.5zM592 944q0 133 -35 205t-111 72q-65 0 -98 -68t-33 -176q0 -131 34 -204t112 -73q65 0 98 68t33 176zM1952 453q0 -99 -24.5 -186t-72 -150.5t-117 -100
t-161.5 -36.5q-84 0 -150.5 35.5t-112.5 97t-69.5 141.5t-23.5 168q0 98 23.5 184t70.5 149.5t116.5 100.5t161.5 37q84 0 150.5 -36t113 -96.5t71 -140t24.5 -167.5zM793 0h-52q-49 0 -80.5 26.5t-31.5 79.5q0 29 7 52.5t26 60.5l563 1180h69q39 0 68 -21.5t29 -66.5
q0 -21 -3.5 -41.5t-11.5 -36.5zM819 977q0 -98 -24.5 -185t-71.5 -150.5t-116.5 -100.5t-162.5 -37q-84 0 -150.5 35.5t-112.5 96t-69.5 140.5t-23.5 168q0 98 24.5 185.5t71.5 150.5t117 100t162 37q84 0 150.5 -35.5t112.5 -96t69.5 -140.5t23.5 -168z" />
    <glyph glyph-name="ampersand" unicode="&#x26;" horiz-adv-x="1376" 
d="M781 272q-28 29 -71 73t-87 93t-83 96.5t-64 81.5q-53 -30 -96 -83.5t-43 -120.5q0 -121 62.5 -170t179.5 -49q53 0 110.5 21.5t91.5 57.5zM740 1077q0 66 -34.5 98.5t-96.5 32.5q-141 0 -141 -147q0 -57 31.5 -102.5t62.5 -90.5q92 54 135 102t43 107zM1338 129
q0 -78 -31.5 -117t-103.5 -39q-47 0 -100 14.5t-107 67.5l-71 70q-23 -25 -54.5 -50.5t-77.5 -48t-107.5 -37t-141.5 -14.5q-117 0 -204 31t-146.5 85t-89 129t-29.5 163q0 63 23.5 121.5t61.5 110t87 92.5t100 69q-51 60 -91 129.5t-40 141.5q0 69 25.5 133.5t77 115
t127 81t176.5 30.5q157 0 254.5 -86t97.5 -238q0 -104 -81 -197t-216 -169q22 -29 54 -67t65.5 -78t68.5 -77.5t64 -64.5q26 31 52 72t45.5 89t31.5 98t14 99h55q48 0 81.5 -32.5t33.5 -110.5q0 -43 -16.5 -92t-41 -98t-53 -94.5t-55.5 -79.5l41 -39q70 -66 119 -88.5
t102 -24.5z" />
    <glyph glyph-name="quotesingle" unicode="'" horiz-adv-x="458" 
d="M342 907h-66q-73 0 -112 45t-47 127l-29 324h125q74 0 121 -45t39 -127z" />
    <glyph glyph-name="parenleft" unicode="(" horiz-adv-x="724" 
d="M573 -348q-34 0 -81.5 19.5t-83.5 47.5q-52 39 -106 121t-99 191.5t-74 242t-29 273.5t23.5 269t64.5 237.5t94.5 196.5t114.5 147q35 35 89.5 56.5t93.5 21.5h137v-11q-70 -73 -130.5 -162.5t-106.5 -197t-72.5 -236.5t-26.5 -280q0 -166 26.5 -308.5t72.5 -259
t106.5 -206.5t128.5 -152v-10h-142z" />
    <glyph glyph-name="parenright" unicode=")" horiz-adv-x="724" 
d="M152 1473q34 0 81.5 -19.5t83.5 -48.5q52 -41 106 -122t99 -190.5t74 -241.5t29 -273q0 -142 -23.5 -270t-64.5 -237.5t-94.5 -197.5t-114.5 -145q-35 -35 -89.5 -56.5t-93.5 -21.5h-137v10q70 74 130.5 163t106.5 196.5t72.5 236.5t26.5 281q0 165 -26.5 307.5
t-72.5 259.5t-106.5 207t-128.5 151v11h142z" />
    <glyph glyph-name="asterisk" unicode="*" horiz-adv-x="1054" 
d="M815 981q-41 0 -83 -3t-73 -7q33 -39 52.5 -73t42 -61.5t55.5 -49t92 -35.5q-31 -66 -63.5 -107t-87.5 -41q-35 0 -70 13.5t-62 54.5q-34 51 -51.5 108.5t-44.5 112.5q-65 -88 -88.5 -156.5t-23.5 -148.5q-209 10 -209 149q0 49 19.5 84t48 63.5t63.5 53.5t65 53
q-59 23 -104 30t-94 7q-25 0 -55.5 -7t-84.5 -24q2 52 13.5 97t32 78.5t52 53t74.5 19.5q41 0 72 -10t57.5 -25.5t52 -36t56.5 -38.5q2 12 2 22v21q0 67 -14.5 143t-71.5 147q27 9 62.5 20t64.5 11q72 0 123 -34.5t51 -114.5q0 -62 -21.5 -118t-37.5 -116q73 14 148 69.5
t128 133.5q41 -59 64.5 -104.5t23.5 -92.5q0 -39 -15 -65.5t-40 -44t-56.5 -24.5t-64.5 -7z" />
    <glyph glyph-name="plus" unicode="+" horiz-adv-x="1208" 
d="M1143 586q0 -49 -42 -91t-122 -42h-260v-428h-96q-50 0 -93 42t-43 121v265h-432v112q0 43 37 81t96 38h299v387h115q43 0 80 -37t37 -96v-254h424v-98z" />
    <glyph glyph-name="comma" unicode="," horiz-adv-x="575" 
d="M449 70q0 -68 -23 -131.5t-61.5 -112.5t-91 -79t-111.5 -30h-56v13q41 39 68 102.5t27 108.5q0 59 -33 92q-23 22 -39 46.5t-16 72.5q0 63 45 107t114 44q80 0 128.5 -59.5t48.5 -173.5z" />
    <glyph glyph-name="hyphen" unicode="-" horiz-adv-x="761" 
d="M681 616q0 -53 -35 -82.5t-98 -29.5h-471v104q0 51 33.5 84t93.5 33h477v-109z" />
    <glyph glyph-name="hyphen" unicode="&#x2010;" horiz-adv-x="761" 
d="M681 616q0 -53 -35 -82.5t-98 -29.5h-471v104q0 51 33.5 84t93.5 33h477v-109z" />
    <glyph glyph-name="period" unicode="." horiz-adv-x="573" 
d="M464 176q0 -37 -14.5 -68.5t-38 -55t-55 -38t-68.5 -14.5t-69 14.5t-55.5 38t-37.5 55t-14 68.5t14 68.5t37.5 55.5t55.5 38t69 14t68.5 -14t55 -38t38 -55.5t14.5 -68.5z" />
    <glyph glyph-name="slash" unicode="/" horiz-adv-x="933" 
d="M230 0h-51q-41 0 -72.5 28.5t-31.5 84.5q0 22 7 52t19 54l590 1256h72q39 0 66.5 -22.5t27.5 -70.5q0 -16 -3 -41.5t-11 -42.5z" />
    <glyph glyph-name="zero" unicode="0" horiz-adv-x="1208" 
d="M349 733q0 -145 17.5 -242.5t52.5 -158t86 -86t119 -25.5q100 0 165.5 107.5t65.5 339.5q0 143 -15.5 242.5t-47 158.5t-79.5 86t-112 27q-53 0 -98 -24.5t-80 -79t-54.5 -139.5t-19.5 -206zM1132 731q0 -196 -40 -338.5t-111 -236t-168 -137.5t-212 -44
q-117 0 -213 45.5t-166.5 133.5t-109.5 219t-39 303q0 190 39 331.5t110.5 234.5t173 139t228.5 46q120 0 214.5 -49t160 -140t99.5 -219t34 -288z" />
    <glyph glyph-name="one" unicode="1" horiz-adv-x="841" 
d="M547 0q-72 0 -121 45t-49 137v930l-135 -49q-105 -37 -167.5 -10.5t-72.5 92.5l-12 72l254 112q53 23 90 37t66.5 22.5t54 11.5t53.5 3q67 0 108 -47t41 -103v-1253h-110z" />
    <glyph glyph-name="two" unicode="2" horiz-adv-x="1208" 
d="M1089 137q0 -65 -51.5 -101t-137.5 -36h-649q-59 0 -100 40t-41 99q0 35 10 73t39.5 82t81 98t133.5 122l327 272q58 48 77.5 95t19.5 94q0 96 -63.5 151.5t-180.5 55.5q-154 0 -249 -44t-165 -139h-10v101q0 61 24.5 119.5t81 104.5t147.5 74.5t222 28.5
q101 0 187 -33.5t149.5 -90t98 -132t34.5 -159.5q0 -78 -15.5 -137.5t-51 -112.5t-91 -104.5t-135.5 -114.5l-217 -170q-35 -29 -75.5 -67t-57.5 -66h658v-103z" />
    <glyph glyph-name="three" unicode="3" horiz-adv-x="1208" 
d="M1070 416q0 -99 -35 -180.5t-103.5 -139t-172 -89.5t-240.5 -32q-84 0 -156.5 17.5t-128 52.5t-87 88t-31.5 125v111h10q66 -70 166 -111t242 -41q139 0 199.5 55.5t60.5 135.5q0 102 -66.5 143t-198.5 45q-92 2 -131 27.5t-39 78.5v93q29 4 68 5t84 3q78 2 130 17.5
t85 40t46 57t13 69.5q0 94 -66.5 147.5t-207.5 53.5q-117 0 -218 -39t-157 -111h-10v119q0 43 27.5 90t82 87t135.5 66.5t189 26.5q115 0 207 -27.5t157.5 -78.5t101.5 -124t36 -161q0 -75 -19.5 -130.5t-53.5 -95.5t-80 -63.5t-99 -35.5q45 -11 92 -38.5t84 -67.5t60.5 -89
t23.5 -100z" />
    <glyph glyph-name="four" unicode="4" horiz-adv-x="1208" 
d="M663 1118q-37 -47 -87.5 -118.5t-103.5 -150.5t-101 -155t-79 -131h371v555zM1156 453q0 -54 -28.5 -87.5t-88.5 -33.5h-104v-332h-109q-71 0 -117 45t-46 135v152h-476q-69 0 -111 40t-42 87q0 59 11 93t26 60q24 43 64 108.5t89 140.5t106.5 154t115 152.5t113.5 135
t106 100.5h102q74 0 121 -49t47 -148v-643h221v-110z" />
    <glyph glyph-name="five" unicode="5" horiz-adv-x="1208" 
d="M1094 455q0 -113 -39 -202t-110 -150.5t-170 -94.5t-222 -33q-113 0 -192.5 19.5t-130 54.5t-74 83t-23.5 108v104h10q70 -61 156 -92t225 -31q154 0 218.5 56.5t64.5 160.5q0 109 -81 155t-251 46q-86 0 -170 -14.5t-158 -30.5v559q0 123 49.5 186.5t174.5 63.5h676v-74
q0 -78 -48.5 -124t-142.5 -46h-434v-313q35 4 87 8t97 4q101 0 190 -27.5t154.5 -79t104.5 -127t39 -169.5z" />
    <glyph glyph-name="six" unicode="6" horiz-adv-x="1208" 
d="M385 477q0 -53 14.5 -101t44 -85t72.5 -58.5t100 -21.5q117 0 172.5 60.5t55.5 181.5q0 57 -17.5 100t-48 70.5t-71.5 41t-86 13.5q-117 0 -176.5 -59.5t-59.5 -141.5zM1120 475q0 -86 -27.5 -174t-89 -160.5t-161 -119t-242.5 -46.5q-104 0 -195.5 39t-160 120
t-107.5 207t-39 298q0 199 46 346.5t129 245.5t200 147t258 49q70 0 129.5 -19t100 -54t64.5 -82t24 -101v-84h-13q-41 43 -107.5 73t-189.5 30q-96 0 -163.5 -32t-111.5 -90t-65.5 -143t-23.5 -190q37 80 117.5 128t181.5 48q90 0 171 -28.5t142.5 -84t97 -136t35.5 -187.5
z" />
    <glyph glyph-name="seven" unicode="7" horiz-adv-x="1005" 
d="M928 1233q0 -46 -29.5 -125t-71.5 -174l-190 -415q-21 -44 -35.5 -93t-26 -98t-17 -97.5t-5.5 -87.5v-113h-112q-24 0 -49.5 10t-46.5 32t-34.5 57t-13.5 82q0 71 26.5 168.5t78.5 198.5l149 295q31 62 59.5 123t55.5 158h-611v60q0 75 39 117t108 42h561q81 0 123 -38
t42 -102z" />
    <glyph glyph-name="eight" unicode="8" horiz-adv-x="1208" 
d="M826 408q0 86 -57 142t-172 56q-43 0 -81 -14t-66.5 -39t-45 -58.5t-16.5 -70.5q0 -98 51.5 -151.5t173.5 -53.5q111 0 162 55.5t51 133.5zM597 1184q-98 0 -149.5 -52.5t-51.5 -123.5q0 -78 51.5 -129.5t165.5 -51.5q99 0 151 50.5t52 121.5q0 86 -52 135.5t-167 49.5z
M1103 399q0 -90 -26.5 -167.5t-87 -135t-159 -89.5t-241.5 -32q-113 0 -202 30t-151.5 83t-95 127t-32.5 164q0 55 20.5 108.5t54 98.5t76.5 76.5t90 46.5q-45 14 -87 39.5t-74.5 62.5t-52 87t-19.5 114q0 96 38 173t105.5 131t158.5 82.5t197 28.5q109 0 198 -30.5
t151.5 -83.5t97.5 -126t35 -155q0 -71 -20.5 -122.5t-53.5 -88.5t-75 -60.5t-87 -35.5q43 -14 86 -44t78 -73t56.5 -95t21.5 -114z" />
    <glyph glyph-name="nine" unicode="9" horiz-adv-x="1187" 
d="M818 911q0 148 -61.5 214.5t-171.5 66.5q-109 0 -166.5 -69.5t-57.5 -180.5q0 -125 60.5 -181t159.5 -56q112 0 174.5 57t62.5 149zM1101 735q0 -194 -40 -337.5t-112.5 -236.5t-175 -139.5t-229.5 -46.5q-86 0 -157 17.5t-123 51.5t-80.5 81t-28.5 108v101h10
q49 -47 139 -82t225 -35q144 0 213.5 99.5t77.5 334.5q-28 -80 -93.5 -130t-164.5 -50q-110 0 -199.5 32t-151.5 89t-97 138t-35 179q0 113 33.5 208t100.5 164t166 107.5t228 38.5q113 0 204 -37.5t155.5 -120.5t99.5 -215t35 -319z" />
    <glyph glyph-name="colon" unicode=":" horiz-adv-x="681" 
d="M517 176q0 -37 -14.5 -68.5t-38 -55t-55 -38t-68.5 -14.5t-68.5 14.5t-55 38t-38 55t-14.5 68.5t14.5 68.5t38 55.5t55 38t68.5 14t68.5 -14t55 -38t38 -55.5t14.5 -68.5zM517 930q0 -37 -14.5 -69t-38 -55.5t-55 -37.5t-68.5 -14t-68.5 14t-55 37.5t-38 55.5t-14.5 69
t14.5 68.5t38 56t55 38t68.5 13.5t68.5 -13.5t55 -38t38 -56t14.5 -68.5z" />
    <glyph glyph-name="semicolon" unicode=";" horiz-adv-x="681" 
d="M507 70q0 -68 -22.5 -131.5t-61.5 -112.5t-91 -79t-112 -30h-55v13q41 39 67.5 102.5t26.5 108.5q0 59 -33 92q-22 22 -38.5 46.5t-16.5 72.5q0 63 45 107t115 44q80 0 128 -59.5t48 -173.5zM523 928q0 -37 -14 -69t-37.5 -55.5t-55.5 -37.5t-69 -14t-68.5 14t-55 37.5
t-38 55.5t-14.5 69t14.5 68.5t38 56t55 38t68.5 13.5t69 -13.5t55.5 -38t37.5 -56t14 -68.5z" />
    <glyph glyph-name="less" unicode="&#x3c;" horiz-adv-x="1208" 
d="M1066 1012q0 -62 -35 -111t-121 -82q-37 -14 -104.5 -41.5t-143 -59.5t-149.5 -64.5t-123 -57.5q55 -31 141 -73t180.5 -85t186.5 -84t160 -67v-62q0 -61 -47 -83.5t-103 -22.5q-20 0 -55 11t-55 20q-70 26 -165 70t-195.5 97.5t-197 109.5t-167.5 110v32q0 54 29.5 89.5
t86.5 70.5q60 35 170.5 88t236.5 108.5t252 104.5t218 78v-96z" />
    <glyph glyph-name="equal" unicode="=" horiz-adv-x="1208" 
d="M114 334v96q0 45 36.5 76t102.5 31h821v-97q0 -47 -41 -76.5t-98 -29.5h-821zM114 729v96q0 45 36.5 77t102.5 32h821v-98q0 -39 -41 -73t-98 -34h-821z" />
    <glyph glyph-name="greater" unicode="&#x3e;" horiz-adv-x="1208" 
d="M126 207q0 61 35 110.5t121 81.5q36 15 104 42.5t143.5 59t149.5 64.5t123 58q-53 30 -139 72t-181.5 85t-187.5 84t-160 68v61q0 62 47 84.5t103 22.5q22 0 57 -11.5t53 -19.5q70 -27 165 -71t195.5 -97t197 -110.5t167.5 -108.5v-33q0 -53 -29.5 -89t-86.5 -71
q-60 -34 -170.5 -87.5t-236.5 -108.5t-252 -104.5t-218 -77.5v96z" />
    <glyph glyph-name="question" unicode="?" horiz-adv-x="966" 
d="M607 176q0 -37 -14 -68.5t-38 -55t-55.5 -38t-68.5 -14.5t-68.5 14.5t-55 38t-38 55t-14.5 68.5t14.5 68.5t38 55.5t55 38t68.5 14t68.5 -14t55.5 -38t38 -55.5t14 -68.5zM898 1083q0 -77 -30.5 -138.5t-112.5 -131.5l-164 -139q-29 -25 -46.5 -44.5t-26.5 -38t-12 -39
t-3 -46.5v-74h-96q-48 0 -86.5 35t-38.5 86q0 76 28.5 136.5t104.5 121.5l145 119q35 28 48.5 60t13.5 63q0 73 -50.5 113t-154.5 40q-117 0 -202 -35.5t-132 -101.5h-10v96q0 52 22.5 103t70.5 92t120.5 65.5t173.5 24.5q106 0 188 -29.5t137.5 -80t84 -117t28.5 -140.5z
" />
    <glyph glyph-name="at" unicode="@" horiz-adv-x="1550" 
d="M912 879q-16 14 -36.5 22t-55.5 8q-30 0 -61 -18.5t-55.5 -50t-40 -76.5t-15.5 -100q0 -43 8.5 -70t19.5 -41t24.5 -19.5t25.5 -5.5q51 0 82 29t53 88q29 82 51 234zM1490 834q0 -115 -30.5 -210.5t-85 -163t-129.5 -105.5t-163 -38q-65 0 -112 33t-68 99
q-49 -64 -103.5 -98t-131.5 -34q-47 0 -93.5 25t-82 68t-58 102t-22.5 131q0 98 32.5 183t91 149.5t139.5 101.5t177 37q43 0 91 -16.5t88 -42t66.5 -58t26.5 -65.5q0 -47 -9 -92t-17 -86q-11 -52 -16 -97t-5 -77q0 -48 13.5 -64t29.5 -16q25 0 55.5 17.5t57.5 57t45 102
t18 148.5q0 97 -29.5 178.5t-88 141t-144.5 93.5t-198 34q-113 0 -215.5 -43t-179 -123t-122 -193.5t-45.5 -255.5q0 -120 37 -214.5t101.5 -159t154.5 -97t199 -32.5q78 0 168 10t180 55v-67q0 -46 -25.5 -85.5t-84.5 -56.5q-41 -10 -107 -18t-168 -8q-131 0 -250 45
t-209 130t-143 206.5t-53 275.5q0 160 55 304.5t157.5 254t247 175t322.5 65.5q139 0 256 -45t201 -126t131 -192.5t47 -242.5z" />
    <glyph glyph-name="A" unicode="A" horiz-adv-x="1273" 
d="M847 582q-19 73 -44.5 152t-54 154t-60.5 141.5t-58 115.5q-31 -55 -61.5 -123t-59.5 -141.5t-53.5 -149.5t-42.5 -149h434zM1138 0q-88 0 -134.5 42t-54.5 93q-18 139 -39 223h-559q-22 -90 -39.5 -179t-33.5 -179h-109q-70 0 -99.5 35t-29.5 100q0 51 20.5 147.5
t55.5 218.5t82 255t100 257t109.5 227t109.5 163h115q86 0 142 -39t85 -90q47 -86 106.5 -233.5t117 -323.5t103.5 -363.5t66 -353.5h-114z" />
    <glyph glyph-name="B" unicode="B" horiz-adv-x="1239" 
d="M872 426q0 115 -58 158t-181 43h-223v-289q0 -37 34.5 -62.5t87.5 -25.5h115q115 0 170 48t55 128zM850 1014q0 45 -19.5 76.5t-50 50t-69.5 27t-78 8.5h-105q-26 0 -59 -5.5t-61 -9.5v-317h215q94 0 160.5 40t66.5 130zM1155 434q0 -106 -39 -188t-105.5 -138.5
t-153.5 -85t-183 -28.5h-152q-391 0 -391 334v1018q25 8 70 19t97 21.5t106.5 16.5t97.5 6h170q100 0 184 -25.5t145.5 -73.5t95 -117t33.5 -155q0 -116 -59 -191t-164 -106q54 -14 99 -46.5t78.5 -74.5t52 -91.5t18.5 -94.5z" />
    <glyph glyph-name="C" unicode="C" horiz-adv-x="1224" 
d="M1190 1028q-33 43 -80 71.5t-100.5 47t-106.5 26t-98 7.5q-94 0 -174 -33t-138.5 -92.5t-91 -142.5t-32.5 -185q0 -123 32.5 -216t91 -155.5t141.5 -93.5t181 -31q51 0 105.5 10.5t103.5 28t91 42t71 55.5h10v-105q0 -72 -38 -124t-98.5 -86t-134 -49t-147.5 -15
q-139 0 -265 50t-221 141t-150.5 220t-55.5 287q0 162 52 297t146.5 233.5t226.5 152.5t292 54q86 0 158.5 -17t126 -53t83 -90.5t29.5 -125.5v-109h-10z" />
    <glyph glyph-name="D" unicode="D" horiz-adv-x="1361" 
d="M997 684q0 117 -30.5 208t-86 153.5t-132 94t-166.5 31.5h-62q-14 0 -31.5 -2t-33.5 -6q-21 -4 -41 -6v-805q0 -61 31.5 -90t109.5 -29h47q86 0 159 35t125 95.5t81.5 142.5t29.5 178zM1284 723q0 -160 -49 -294t-136 -232.5t-205 -153.5t-255 -55h-117
q-178 0 -283.5 73.5t-105.5 237.5v1055q25 10 68 19t91 17.5t97 12.5t90 4h146q120 0 238 -41t212 -125t151.5 -213t57.5 -305z" />
    <glyph glyph-name="E" unicode="E" horiz-adv-x="1146" 
d="M1099 164q0 -43 -13.5 -75t-47 -54.5t-93 -33.5t-151.5 -11h-150q-258 0 -390 138t-132 409v260q0 100 7 204.5t20 190.5q16 125 72.5 168t142.5 43h733v-94q0 -148 -189 -148h-481q-6 -39 -9 -82t-6 -87t-4 -85t-1 -73h540v-101q0 -69 -42 -99t-128 -30h-370v-82
q0 -92 15 -148.5t51 -88t92.5 -43t138.5 -11.5h90q77 0 154 7.5t153 23.5z" />
    <glyph glyph-name="F" unicode="F" horiz-adv-x="1005" 
d="M995 1315q0 -25 -9 -50.5t-28.5 -47t-50 -35t-71.5 -13.5h-433v-348h506v-84q0 -67 -44 -103t-91 -36h-360v-598h-117q-78 0 -121 40t-43 124v1022q0 65 13.5 107t42 66.5t72.5 34t106 9.5h628v-88z" />
    <glyph glyph-name="G" unicode="G" horiz-adv-x="1339" 
d="M1253 326q0 -80 -23.5 -144.5t-78.5 -110.5t-144 -71t-221 -25q-139 0 -266 49.5t-223 141.5t-153.5 223t-57.5 295q0 156 52 291t151.5 235.5t242 158.5t322.5 58q98 0 169 -24.5t117 -64.5t68.5 -89t22.5 -98v-96h-10q-72 59 -180.5 89t-219.5 30q-98 0 -180 -34
t-141.5 -94.5t-92 -142.5t-32.5 -180q0 -133 33.5 -226.5t94 -152.5t141.5 -87t175 -28q101 0 134.5 36t33.5 97v113q0 41 -3 78t-7 65l-10 62h143q59 0 101 -41t42 -88v-225z" />
    <glyph glyph-name="H" unicode="H" horiz-adv-x="1386" 
d="M1141 0q-62 0 -113 48t-51 140v414h-565v-602h-109q-72 0 -121 48t-49 140v1215h137q60 0 100 -44t40 -104v-417h567v565h127q26 0 53 -10.5t48.5 -30t34.5 -47t13 -60.5v-1255h-112z" />
    <glyph glyph-name="I" unicode="I" horiz-adv-x="557" 
d="M309 0q-30 0 -61 12.5t-54.5 35t-39 57t-15.5 81.5v1217h127q27 0 53.5 -10.5t48 -31t35 -48t13.5 -60.5v-1253h-107z" />
    <glyph glyph-name="J" unicode="J" horiz-adv-x="798" 
d="M686 377q0 -86 -24.5 -160t-75.5 -127t-130 -84t-188 -31q-116 0 -188 48.5t-72 113.5v129h10q35 -20 91.5 -32.5t119.5 -12.5q97 0 135.5 41t38.5 127v1014h95q188 0 188 -191v-835z" />
    <glyph glyph-name="K" unicode="K" horiz-adv-x="1247" 
d="M223 1403q101 0 144 -57.5t43 -131.5v-438q94 139 190 278.5t213 262.5q27 31 48.5 47t45 25.5t51 11.5t68.5 2h193v-10q-41 -41 -109 -119t-143.5 -170t-149.5 -186.5t-127 -169.5q49 -72 98.5 -146t102.5 -146.5t110.5 -139t124.5 -123.5q31 -25 55.5 -37.5t55.5 -20.5
q-18 -76 -56 -108.5t-124 -32.5q-51 0 -105.5 24.5t-91.5 65.5q-129 149 -237.5 303t-212.5 322v-709h-93q-51 0 -85.5 16.5t-56 43t-32 60.5t-10.5 70v1213h90z" />
    <glyph glyph-name="L" unicode="L" horiz-adv-x="1067" 
d="M1057 190q0 -47 -13.5 -83.5t-46 -63.5t-90 -41t-143.5 -14h-109q-247 0 -379.5 133t-132.5 387v895h115q174 0 174 -205v-672q0 -80 11.5 -135t40 -90t78.5 -50t130 -15h72q100 0 177 17t116 34v-97z" />
    <glyph glyph-name="M" unicode="M" horiz-adv-x="1845" 
d="M1628 0q-80 0 -130 45t-50 141q0 45 -2 114t-6 149.5t-9.5 166.5t-11.5 164t-12 140.5t-12 97.5q-15 -35 -32 -77t-34 -89l-196 -602q-25 -76 -55.5 -142.5t-59.5 -107.5h-76q-70 0 -128 54.5t-97 168.5l-201 592q-18 53 -39.5 110.5t-38.5 94.5q-10 -51 -17 -128
t-14.5 -169t-12.5 -192.5t-9 -196.5t-6 -183.5t-2 -150.5h-98q-78 0 -127.5 48t-49.5 138q0 78 5.5 179.5t13.5 213t19.5 228.5t23.5 226.5t25.5 204.5t25.5 165h59q148 0 246 -62.5t139 -175.5l195 -549q33 -90 51.5 -154.5t28.5 -111.5q8 41 18.5 75t20.5 69l162 497
q53 168 114.5 272.5t104.5 139.5h32q117 0 191 -73t90 -218q6 -55 14.5 -139t15.5 -184.5t14 -210t12.5 -215t8.5 -199.5t3 -164h-107z" />
    <glyph glyph-name="N" unicode="N" horiz-adv-x="1409" 
d="M1165 0q-41 0 -84 10t-92 48t-104.5 112t-120.5 201l-256 497q-57 115 -94 164v-1032h-111q-31 0 -61.5 11.5t-54 35t-39 57t-15.5 80.5v1219h139q140 0 233 -73t165 -214l245 -491q23 -43 44.5 -98.5t37.5 -90.5v967h125q27 0 54.5 -12.5t49 -35t36 -52t14.5 -62.5
v-1241h-111z" />
    <glyph glyph-name="O" unicode="O" horiz-adv-x="1484" 
d="M1110 684q0 248 -99.5 372t-279.5 124q-78 0 -143.5 -31t-112.5 -90.5t-73.5 -144.5t-26.5 -191q0 -504 379 -504q164 0 260 116t96 349zM1399 723q0 -160 -45 -297t-131 -236.5t-211 -157t-285 -57.5q-133 0 -250 51.5t-204 143.5t-137 222t-50 288q0 164 45 301
t131 236.5t211 154.5t285 55q127 0 243.5 -47t204.5 -138t140.5 -222t52.5 -297z" />
    <glyph glyph-name="P" unicode="P" horiz-adv-x="1153" 
d="M834 952q0 121 -51.5 172.5t-161.5 51.5h-91q-26 0 -59 -7.5t-57 -11.5v-397q37 -10 91 -17.5t107 -7.5q109 0 165.5 57.5t56.5 159.5zM1122 977q0 -111 -35.5 -200t-99 -151.5t-150.5 -95t-188 -32.5q-147 0 -235 47v-545h-111q-29 0 -59.5 10t-55 34t-40 62.5
t-15.5 94.5v1147q29 10 76 22t98 21.5t102.5 15.5t88.5 6h157q103 0 189 -28.5t147.5 -84t96 -137.5t34.5 -186z" />
    <glyph glyph-name="Q" unicode="Q" horiz-adv-x="1505" 
d="M1110 688q0 242 -91 367t-286 125q-84 0 -150.5 -33t-112.5 -93.5t-70.5 -144.5t-24.5 -186q0 -258 103.5 -382t289.5 -124q80 0 143.5 37t107.5 100.5t67.5 149.5t23.5 184zM608 -14q-88 18 -181 69t-169 138.5t-124 209t-48 279.5q0 156 41 291t125 236.5t212 159.5
t304 58q121 0 234.5 -47t201.5 -137t141.5 -221t53.5 -299q0 -135 -37 -246.5t-94.5 -194.5t-128 -134.5t-138.5 -65.5q39 -12 95.5 -22.5t118 -17.5t122 -10t111.5 -3v-90q0 -62 -33 -99t-119 -37q-77 0 -169.5 14.5t-186.5 40t-180 58.5t-152 70z" />
    <glyph glyph-name="R" unicode="R" horiz-adv-x="1234" 
d="M539 1174q-11 0 -27 -1.5t-34.5 -3.5t-35 -5t-28.5 -5v-371q47 -10 95 -11t105 -1q86 0 148.5 48t62.5 143q0 63 -15 103t-43 63.5t-66.5 32t-84.5 8.5h-77zM1194 35q-25 -27 -50.5 -36t-84.5 -9q-68 0 -122 28.5t-83 96.5l-104 254q-25 57 -47.5 90t-47 50t-50 24.5
t-52.5 11.5q-47 8 -82 13t-57 5v-563h-90q-95 0 -143 51t-48 137v1176q23 8 67 17.5t96 16.5t105.5 12t92.5 5h155q105 0 190 -29.5t145 -84t93 -128t33 -161.5q0 -72 -22.5 -135.5t-60.5 -113.5t-91 -83t-115 -41q58 -23 103 -79t71 -118l113 -262q27 -61 50.5 -94
t35.5 -51z" />
    <glyph glyph-name="S" unicode="S" horiz-adv-x="1171" 
d="M1079 434q0 -104 -34.5 -188t-102.5 -144.5t-166 -93.5t-225 -33q-213 0 -320.5 76t-107.5 201v125h6q72 -64 167 -108t224 -44q158 0 218.5 50.5t60.5 134.5q0 36 -10.5 63t-45 50.5t-101.5 44t-177 44.5q-180 39 -276.5 128t-96.5 233q0 88 36 170t103.5 145.5t166 101
t220.5 37.5q123 0 204 -23.5t130 -60t68.5 -83t19.5 -89.5v-129h-8q-129 138 -364 138q-164 0 -230.5 -49.5t-66.5 -131.5q0 -30 14 -57t51 -49.5t100.5 -43t161.5 -40.5q193 -41 287 -137.5t94 -237.5z" />
    <glyph glyph-name="T" unicode="T" horiz-adv-x="1136" 
d="M1122 1315q0 -25 -13 -53.5t-35.5 -51t-53.5 -38t-66 -15.5h-258v-1157h-112q-74 0 -122 47t-48 141v969h-404v92q0 25 10.5 52.5t32 50t53 37t74.5 14.5h942v-88z" />
    <glyph glyph-name="U" unicode="U" horiz-adv-x="1357" 
d="M1253 633q0 -309 -145 -483.5t-446 -174.5q-127 0 -230.5 42t-176.5 123t-113 199t-40 269v795h109q33 0 64.5 -13.5t56 -43t39 -78.5t14.5 -123v-518q0 -199 70.5 -294t234.5 -95q150 0 215.5 96t65.5 282v787h106q80 0 128 -60.5t48 -189.5v-520z" />
    <glyph glyph-name="V" unicode="V" horiz-adv-x="1265" 
d="M1038 647q-63 -153 -140 -321t-183 -336h-25q-63 0 -114.5 26.5t-88.5 85.5q-84 136 -157.5 293.5t-135 325.5t-106.5 341t-70 341h162q78 0 123 -45t55 -109q17 -96 40.5 -194.5t56 -204t79 -222t107.5 -247.5q113 244 192.5 499t120.5 523h156q51 0 86 -31t35 -90
q0 -29 -17.5 -100.5t-45 -162.5t-61.5 -189.5t-69 -182.5z" />
    <glyph glyph-name="W" unicode="W" horiz-adv-x="1951" 
d="M1776 711q-27 -82 -56.5 -167t-67.5 -174t-85 -183.5t-107 -198.5h-67q-13 0 -28 2t-33.5 10t-37 26.5t-37.5 49.5q-38 67 -77 155t-76 189.5t-70 211t-57 222.5q-51 -229 -134 -456.5t-194 -409.5h-65q-13 0 -29 2t-35.5 10t-39 26.5t-38.5 49.5q-77 137 -145 298
t-123 333t-95 349t-61 347h162q37 0 65.5 -14.5t50 -38t35 -52t17.5 -55.5q29 -180 81 -378.5t151 -434.5q47 113 90 243t77.5 255t60.5 235.5t40 186.5h92q35 0 69.5 -8.5t64.5 -30t52.5 -57t32.5 -91.5q35 -178 90.5 -356t141.5 -377q88 215 157.5 467t104.5 504h145
q49 0 86 -34t37 -97q0 -29 -16.5 -98.5t-39 -153.5t-47 -168t-42.5 -139z" />
    <glyph glyph-name="X" unicode="X" horiz-adv-x="1400" 
d="M1370 72q-33 -39 -75 -63.5t-126 -24.5q-49 0 -92 13t-86 46t-88 84t-96 129l-176 258q-74 -88 -125 -159.5t-85 -134t-54.5 -116t-34.5 -104.5h-137q-54 0 -84.5 33t-30.5 76t7 77.5t24 75.5q22 57 74.5 138t158.5 196l133 143l-166 232q-112 157 -171.5 258.5
t-78.5 173.5h193q25 0 51.5 -7t60 -32t76.5 -72t97 -127l170 -254q88 101 144 173.5t92 129t54.5 100.5t30.5 91h107q65 0 95 -40t30 -101q0 -76 -106.5 -222.5t-291.5 -355.5l187 -272q84 -123 169 -207t150 -135z" />
    <glyph glyph-name="Y" unicode="Y" horiz-adv-x="1169" 
d="M1139 1294q0 -26 -21.5 -78.5t-57.5 -117t-81 -137t-91 -141t-89 -127t-74 -95.5v-598h-117q-30 0 -61 11.5t-54.5 35t-39 57t-15.5 80.5v414q-61 80 -123.5 179.5t-119 206t-104.5 214t-81 205.5h131q84 0 129 -33t60 -65q26 -62 59 -128.5t68 -131t71.5 -124
t69.5 -106.5q33 47 76 114.5t86 146.5t80 163t61 164h123q55 0 85 -30t30 -79z" />
    <glyph glyph-name="Z" unicode="Z" horiz-adv-x="1202" 
d="M1119 145q0 -53 -41 -99t-118 -46h-703q-76 0 -126 45t-50 131q0 92 61.5 183.5t149.5 189.5l348 393q51 57 94 114.5t58 100.5h-711v76q0 84 48 127t161 43h637q102 0 146 -48t44 -136q0 -66 -46 -152t-124 -172l-346 -387q-72 -80 -125 -147.5t-63 -114.5h706v-101z
" />
    <glyph glyph-name="bracketleft" unicode="[" horiz-adv-x="655" 
d="M161 -348v1823h350q57 0 89 -32t32 -85v-66h-262v-1458h149q47 0 80 -29.5t33 -85.5v-67h-471z" />
    <glyph glyph-name="backslash" unicode="\" horiz-adv-x="874" 
d="M762 0q-60 0 -130.5 46t-109.5 136l-514 1221h133q52 0 113 -39t90 -104l530 -1260h-112z" />
    <glyph glyph-name="bracketright" unicode="]" horiz-adv-x="655" 
d="M507 1475v-1823h-350q-58 0 -89.5 31.5t-31.5 85.5v65h262v1458h-149q-48 0 -80.5 30t-32.5 85v68h471z" />
    <glyph glyph-name="asciicircum" unicode="^" horiz-adv-x="1026" 
d="M902 856q-37 -10 -72.5 -7t-67.5 15.5t-55.5 33t-31.5 46.5q-8 25 -27.5 65t-44 85t-51.5 89t-49 79q-25 -37 -57.5 -88.5t-66.5 -107.5t-64.5 -111.5t-51.5 -100.5h-37q-47 0 -75.5 22.5t-28.5 57.5q0 12 9 30.5t15 30.5q21 43 55 104.5t75.5 127t89 130t94.5 118.5h43
q35 0 61.5 -25t46.5 -49q29 -37 70 -103.5t83 -143.5t80 -156.5t58 -141.5z" />
    <glyph glyph-name="underscore" unicode="_" horiz-adv-x="1157" 
d="M0 -584v174h1157v-174h-1157z" />
    <glyph glyph-name="grave" unicode="`" horiz-adv-x="1083" 
d="M280 1462q0 56 31.5 80.5t82.5 24.5q60 0 103 -27t92 -72q45 -41 82 -89t71 -101v-10h-92q-55 0 -119.5 13t-115.5 36q-64 26 -99.5 63t-35.5 82z" />
    <glyph glyph-name="a" unicode="a" horiz-adv-x="1083" 
d="M730 481h-98q-78 0 -130 -9t-83 -26.5t-43 -44t-12 -59.5q0 -66 49 -101.5t141 -35.5q176 0 176 170v106zM998 377q0 -88 -30.5 -161t-86 -125t-132 -80.5t-168.5 -28.5h-56q-98 0 -180 26.5t-140.5 72.5t-90 110.5t-31.5 140.5q0 74 28.5 137t93 109.5t170 73
t257.5 26.5h96v14q0 117 -57.5 160t-179.5 43q-74 0 -132.5 -12.5t-101.5 -32t-72.5 -42t-44.5 -40.5h-10v88q0 45 21.5 93t69.5 88t125 64.5t185 24.5q93 0 177 -23.5t148.5 -80.5t103 -152.5t38.5 -238.5v-254z" />
    <glyph glyph-name="b" unicode="b" horiz-adv-x="1292" 
d="M922 528q0 101 -17.5 169.5t-51.5 110.5t-83 60.5t-113 18.5q-53 0 -97 -24.5t-76.5 -65.5t-51 -98.5t-18.5 -120.5q0 -191 74.5 -275t197.5 -84q51 0 94 23.5t75 64.5t49.5 97.5t17.5 123.5zM1206 575q0 -124 -39 -234t-109.5 -190.5t-173 -128t-227.5 -47.5
q-106 0 -200.5 41t-165 116t-112.5 178.5t-42 228.5v936h94q80 0 130.5 -46.5t50.5 -144.5v-321q20 30 48.5 60t65.5 53.5t83 38.5t102 15q104 0 195 -40.5t157.5 -114.5t104.5 -175.5t38 -224.5z" />
    <glyph glyph-name="c" unicode="c" horiz-adv-x="1044" 
d="M968 750q-29 47 -105 80.5t-194 33.5q-60 0 -115 -22.5t-96 -62.5t-65.5 -93t-24.5 -115q0 -151 81.5 -244.5t223.5 -93.5q119 0 190.5 32t100.5 71h10v-127q0 -100 -89 -164.5t-239 -64.5q-115 0 -217 41.5t-179 115.5t-123 174.5t-46 218.5q0 119 40 225.5t116.5 186.5
t187.5 127t252 47q65 0 120.5 -18.5t95.5 -51t62.5 -75.5t22.5 -92v-129h-10z" />
    <glyph glyph-name="d" unicode="d" horiz-adv-x="1259" 
d="M849 522q0 105 -21.5 176.5t-57.5 115.5t-85 64.5t-104 20.5q-54 0 -96 -23.5t-71.5 -65.5t-46 -99.5t-16.5 -124.5q0 -86 21.5 -156t58.5 -120t87 -76.5t110 -26.5q116 0 168.5 82t52.5 233zM1125 510q0 -121 -29.5 -219t-93 -169t-165 -109t-242.5 -38q-109 0 -203 44
t-163.5 121t-108.5 177.5t-39 214.5q0 136 32.5 246.5t95 189.5t156 120.5t214.5 41.5q41 0 83 -13t78.5 -36.5t66.5 -55.5t46 -69v519h84q98 0 143 -51.5t45 -135.5v-778z" />
    <glyph glyph-name="e" unicode="e" horiz-adv-x="1142" 
d="M806 735q0 84 -56.5 125t-152.5 41q-49 0 -91 -19.5t-73 -51t-48 -74.5t-19 -90l-2 -37h122q99 0 160.5 6t97 18.5t49 33t13.5 48.5zM1064 702q0 -151 -123 -209.5t-395 -58.5h-180q16 -104 101 -165.5t208 -61.5q86 0 179 21.5t159 82.5h10v-86q0 -53 -19.5 -98
t-66.5 -79t-124 -53.5t-189 -19.5q-103 0 -201 39t-174 112t-122 175t-46 229q0 138 40 249.5t111.5 189.5t171 119.5t218.5 41.5q86 0 165.5 -29.5t141 -84.5t98.5 -135t37 -179z" />
    <glyph glyph-name="f" unicode="f" horiz-adv-x="753" 
d="M766 1229q-33 10 -71 17t-89 7q-43 0 -78.5 -8t-61.5 -29.5t-41 -57.5t-15 -91v-98h315v-76q0 -37 -17.5 -65.5t-46 -49t-63.5 -31t-70 -10.5h-118v-737h-111q-66 0 -116 46t-50 118v926q0 57 21.5 127.5t73 132t133 103.5t202.5 42q90 0 150.5 -46t60.5 -128v-92h-8z
" />
    <glyph glyph-name="g" unicode="g" horiz-adv-x="1241" 
d="M618 887q-53 0 -98 -21.5t-78.5 -59.5t-52 -90t-18.5 -114q0 -108 60.5 -179t158.5 -71q104 0 169.5 73t65.5 206q0 129 -57 192.5t-150 63.5zM1100 459q0 -29 1 -71t3 -79q2 -35 3 -73.5t1 -67.5q0 -105 -35 -199t-102.5 -166.5t-169 -115.5t-234.5 -43
q-86 0 -155.5 19.5t-120.5 52t-79 76.5t-28 93v125h13q49 -53 140 -86t210 -33q149 0 219 67t70 187v28t-2 30q0 12 -1.5 29.5t-1.5 25.5v27q-8 -31 -31.5 -59.5t-60.5 -52t-85 -38t-107 -14.5q-101 0 -184.5 32.5t-145 92t-95.5 141.5t-34 180q0 117 38 219.5t109.5 179
t176 120.5t237.5 44q103 0 187 -35.5t142 -100t90 -152.5t32 -195v-188z" />
    <glyph glyph-name="h" unicode="h" horiz-adv-x="1249" 
d="M1026 0q-86 0 -136 47t-50 137v451q0 67 -17.5 115.5t-47.5 78t-69.5 44t-84.5 14.5q-33 0 -68 -13.5t-64.5 -44t-48 -80t-18.5 -122.5v-627h-90q-99 0 -144 49t-45 135v1291h86q99 0 147 -49.5t48 -127.5v-315q14 25 39.5 50.5t56.5 47t68 35.5t76 14
q215 0 333.5 -123.5t118.5 -359.5v-647h-90z" />
    <glyph glyph-name="i" unicode="i" horiz-adv-x="681" 
d="M662 156q0 -90 -38 -128t-126 -38q-160 0 -245 88t-85 256v747h78q92 0 144 -50t52 -154v-517q0 -84 38 -114.5t130 -30.5h52v-59zM465 1346q0 -66 -48 -114t-114 -48q-65 0 -112.5 48t-47.5 114q0 65 47.5 112t112.5 47q66 0 114 -47t48 -112z" />
    <glyph glyph-name="j" unicode="j" horiz-adv-x="620" 
d="M461 8q0 -86 -27.5 -154.5t-78 -115.5t-119 -71.5t-148.5 -24.5q-82 0 -130 36.5t-48 88.5v100q14 0 36.5 1t45.5 3q24 2 51 4q57 4 100 42t43 118v1046h78q92 0 144.5 -48t52.5 -142v-883zM487 1350q0 -66 -46 -114t-111 -48q-66 0 -114 48t-48 114q0 65 48 112t114 47
q65 0 111 -47t46 -112z" />
    <glyph glyph-name="k" unicode="k" horiz-adv-x="1171" 
d="M231 1475q101 0 145 -51.5t44 -131.5v-659q80 104 161 206.5t177 194.5q49 47 101 59.5t118 12.5h158v-10q-29 -25 -87.5 -86.5t-124 -135t-130 -149.5t-107.5 -131q66 -82 132.5 -164t139.5 -158q37 -36 66 -61t53.5 -40t47 -24.5t46.5 -17.5q-22 -66 -61 -100.5
t-125 -34.5q-47 0 -96 20.5t-84 55.5q-107 110 -200 229t-185 242v-539l-88 -2q-189 -2 -189 195v1280h88z" />
    <glyph glyph-name="l" unicode="l" horiz-adv-x="667" 
d="M678 156q0 -90 -46 -128t-138 -38q-172 0 -261.5 88t-89.5 256v1141h78q105 0 151 -53.5t46 -131.5v-930q0 -84 44 -114.5t142 -30.5h74v-59z" />
    <glyph glyph-name="m" unicode="m" horiz-adv-x="1871" 
d="M1671 0q-112 0 -160.5 51t-48.5 150v426q0 137 -55 198.5t-147 61.5q-84 0 -135.5 -57.5t-51.5 -172.5v-657h-74q-92 0 -146 51t-54 150v426q0 137 -56.5 198.5t-148.5 61.5q-80 0 -133 -60.5t-53 -175.5v-651h-74q-86 0 -142.5 52t-56.5 149v428q0 112 30 204.5t91 159
t153.5 102t217.5 35.5q108 0 192 -46t144 -126q47 78 132 125t185 47q94 0 178 -28.5t146.5 -87t98.5 -146.5t36 -204v-664h-68z" />
    <glyph glyph-name="n" unicode="n" horiz-adv-x="1239" 
d="M1032 0q-92 0 -146.5 51t-54.5 129v438q0 142 -58 205.5t-165 63.5q-90 0 -145 -64.5t-55 -183.5v-639h-82q-88 0 -140.5 51t-52.5 129v477q0 88 30 173t90 152t154.5 107.5t223.5 40.5q98 0 184 -31.5t150.5 -94t102.5 -153.5t38 -208v-643h-74z" />
    <glyph glyph-name="o" unicode="o" horiz-adv-x="1232" 
d="M865 532q0 166 -63.5 259.5t-198.5 93.5q-119 0 -178 -88t-59 -226q0 -165 62.5 -257.5t199.5 -92.5q121 0 179 88t58 223zM81 532q0 125 35 233.5t104.5 189.5t172 128t235.5 47q125 0 222 -46t163.5 -123.5t101.5 -178t35 -211.5q0 -125 -36 -233.5t-104.5 -189
t-171 -127t-235.5 -46.5q-125 0 -222 46.5t-163.5 123t-101.5 177t-35 210.5z" />
    <glyph glyph-name="p" unicode="p" horiz-adv-x="1269" 
d="M905 514q0 197 -64.5 285t-197.5 88q-115 0 -175 -89t-60 -233q0 -166 74.5 -256t197.5 -90q100 0 162.5 81t62.5 214zM1188 586q0 -133 -33 -245t-95.5 -193.5t-155.5 -127t-214 -45.5q-92 0 -164.5 46.5t-113.5 117.5v-487h-86q-37 0 -72 13t-61.5 38t-43 59.5
t-16.5 79.5v668q0 137 32 252t99.5 196.5t172 126.5t249.5 45q111 0 203 -46t158.5 -121.5t103.5 -174t37 -202.5z" />
    <glyph glyph-name="q" unicode="q" horiz-adv-x="1267" 
d="M607 887q-47 0 -92 -21.5t-81 -62.5t-57.5 -99.5t-21.5 -134.5q0 -172 69 -261t198 -89q114 0 176.5 75t62.5 247q0 178 -64.5 262t-189.5 84zM642 1130q238 0 365 -148t127 -409v-921l-91 2q-86 2 -134 45t-48 137v283q-35 -68 -109.5 -106t-158.5 -38q-105 0 -197 39
t-162.5 111t-111.5 172t-41 223q0 131 40 242.5t113.5 193.5t177 128t230.5 46z" />
    <glyph glyph-name="r" unicode="r" horiz-adv-x="790" 
d="M760 838q-31 12 -69 22t-91 10q-92 0 -141 -54t-49 -181v-635h-76q-92 0 -146.5 45t-54.5 131v508q0 82 22.5 161t71.5 138t127 96t187 37q63 0 107 -16.5t70.5 -42t39 -58t12.5 -63.5v-98h-10z" />
    <glyph glyph-name="s" unicode="s" horiz-adv-x="1007" 
d="M927 348q0 -176 -119 -274.5t-342 -98.5q-76 0 -140.5 18.5t-112.5 48.5t-74.5 69t-26.5 82v124h10q22 -20 58 -39.5t81 -34t94.5 -22.5t98.5 -8q200 0 200 121q0 24 -9 41.5t-33.5 32t-69.5 25.5t-117 22q-176 24 -261 95t-85 198q0 77 33.5 147t95 122t147.5 82.5
t193 30.5q94 0 160.5 -21.5t109.5 -56t62.5 -76.5t19.5 -81v-104h-10q-43 43 -130 72.5t-186 29.5q-126 0 -173.5 -35t-47.5 -88q0 -20 8.5 -35.5t32 -28t66.5 -22.5t114 -22q175 -29 264 -105t89 -209z" />
    <glyph glyph-name="t" unicode="t" horiz-adv-x="829" 
d="M143 1061q0 41 4.5 70.5t13.5 54t24.5 46t37.5 48.5q29 33 62.5 54.5t66.5 21.5h64v-250h383v-113q0 -43 -40 -87t-124 -44h-219v-432q0 -108 45 -153.5t129 -45.5q135 0 198 39h11v-98q0 -86 -60.5 -135t-181.5 -49q-211 0 -312.5 107.5t-101.5 301.5v664z" />
    <glyph glyph-name="u" unicode="u" horiz-adv-x="1236" 
d="M1104 496q0 -521 -483 -521q-103 0 -192 33t-154.5 97.5t-103.5 157.5t-38 214v629h51q119 0 173.5 -49t54.5 -148v-405q0 -152 64.5 -218.5t158.5 -66.5q86 0 139 62.5t53 203.5v621h50q120 0 173.5 -49t53.5 -148v-413z" />
    <glyph glyph-name="v" unicode="v" horiz-adv-x="1058" 
d="M1028 975q0 -25 -21.5 -118t-72.5 -232q-29 -76 -64.5 -162t-76.5 -170t-87.5 -163t-91.5 -142h-53q-61 0 -100 24.5t-80 85.5q-55 86 -115.5 212t-113 265.5t-89 278.5t-45.5 252h148q72 0 114 -43t50 -88q28 -154 75.5 -313.5t135.5 -331.5q39 78 75.5 170t68.5 192.5
t56.5 204.5t40.5 209h117q72 0 100.5 -32t28.5 -99z" />
    <glyph glyph-name="w" unicode="w" horiz-adv-x="1658" 
d="M1628 993q0 -16 -8 -58t-24.5 -103.5t-40 -138.5t-54.5 -163q-31 -88 -64.5 -168.5t-67.5 -150.5t-65.5 -127t-58.5 -96h-45q-33 0 -60.5 13t-52 34.5t-43 48.5t-32.5 51q-25 45 -52.5 105.5t-52 126t-45 133t-33.5 131.5q-12 -64 -40.5 -153t-65.5 -181t-78 -176
t-78 -133h-37q-30 0 -60 13t-55.5 34.5t-46 48.5t-34.5 51q-121 213 -200 452.5t-116 518.5h148q72 0 111.5 -43t48.5 -90q24 -142 65 -294.5t111 -303.5q76 166 122 340t87 350h90q63 0 118.5 -33t75.5 -123q13 -55 31 -123.5t41 -140.5t50.5 -142.5t56.5 -127.5
q77 174 125.5 361.5t80.5 375.5h115q59 0 96 -27.5t37 -91.5z" />
    <glyph glyph-name="x" unicode="x" horiz-adv-x="1134" 
d="M1110 121q0 -60 -44 -98.5t-136 -38.5q-88 0 -154.5 50t-138.5 161l-121 182q-53 -60 -88 -107t-57 -88q-29 -47 -41.5 -91t-20.5 -95h-125q-47 0 -79.5 28.5t-32.5 69.5q0 99 54 188t159 199l90 97l-117 167q-92 134 -143.5 215.5t-53.5 145.5h164q21 0 43.5 -8t52 -31
t65.5 -63.5t83 -106.5l113 -160q65 74 106 125t64.5 91t35 75t17.5 76h104q60 0 86.5 -35t26.5 -82q0 -37 -32 -100.5t-97 -149.5q-35 -45 -77 -95t-91 -105l121 -177q45 -65 77.5 -108t62.5 -69.5t58.5 -40t65.5 -21.5z" />
    <glyph glyph-name="y" unicode="y" horiz-adv-x="1040" 
d="M766 238q-78 -183 -139.5 -298.5t-119.5 -181t-118.5 -91t-134.5 -25.5q-78 0 -135.5 46t-57.5 124v53l156 10q37 2 63.5 12.5t48 33t41 60t42.5 97.5q-56 82 -118.5 216t-118.5 282.5t-98 290t-57 239.5h146q57 0 103 -35t57 -94q28 -160 86.5 -325t134.5 -312
q33 78 67.5 175t64.5 200.5t51.5 205t31.5 185.5h119q65 0 97 -31t32 -98q0 -29 -14.5 -87.5t-37 -130t-51 -151.5t-55.5 -152.5t-50.5 -131t-35.5 -86.5z" />
    <glyph glyph-name="z" unicode="z" horiz-adv-x="1034" 
d="M951 129q0 -51 -44 -90t-97 -39h-539q-96 0 -142 40t-46 105q0 64 45 140.5t123 163.5l278 303q25 28 52.5 62t42.5 63h-543v84q0 61 45 103t137 42h502q49 0 82 -13.5t52.5 -34t28.5 -45t9 -48.5q0 -66 -35 -140.5t-106 -152.5l-277 -299q-28 -33 -57 -68t-47 -69h536
v-107z" />
    <glyph glyph-name="braceleft" unicode="{" horiz-adv-x="757" 
d="M264 811q0 39 -4 77t-8 79t-3 90t1 90q0 70 20.5 130t60.5 104t98 69t134 25h55q21 0 42.5 -6.5t39 -18.5t28.5 -31.5t11 -46.5v-82h-153q-35 0 -58.5 -16.5t-39 -43t-21.5 -60t-6 -70.5q0 -29 -1 -71t3 -77q4 -34 7 -63t3 -70q0 -117 -47 -174t-135 -74v-4
q88 -14 133 -71.5t45 -173.5q0 -41 -1 -81t-5 -75t-3 -75t1 -68q0 -35 7 -69t22.5 -60.5t41 -42t62.5 -15.5h35q55 0 81.5 -28.5t26.5 -73.5v-82h-172q-149 0 -232 91t-83 232q0 41 -1 86t3 89q4 40 6 84.5t2 84.5q0 25 -5 49.5t-17.5 46t-34 38t-53.5 20.5
q-54 8 -76.5 29.5t-22.5 58.5v78l99 16q55 11 84.5 54t29.5 102z" />
    <glyph glyph-name="bar" unicode="|" horiz-adv-x="526" 
d="M275 -348q-28 0 -55.5 24.5t-27.5 67.5v1731h40q31 0 58.5 -20.5t27.5 -61.5v-1741h-43z" />
    <glyph glyph-name="braceright" unicode="}" horiz-adv-x="757" 
d="M496 315q0 -39 4 -76.5t8 -78.5t3 -90.5t-1 -89.5q0 -72 -20.5 -131.5t-60.5 -103.5t-98.5 -68.5t-133.5 -24.5h-56q-41 0 -81 24.5t-40 77.5v82h154q35 0 58.5 16.5t39 43t21.5 60.5t6 71q0 28 1 70t-3 77t-7 63.5t-3 69.5q0 117 47 174.5t135 73.5v4q-88 14 -133 71.5
t-45 174.5q0 41 1 81t5 75q4 34 3 74t-1 69q0 35 -7 68.5t-22.5 59t-41 42t-62.5 16.5h-35q-55 0 -81.5 29t-26.5 74v82h172q149 0 232 -91.5t83 -232.5q0 -41 1 -86t-3 -88q-4 -41 -6 -85t-2 -85q0 -25 5 -49.5t17.5 -46t34 -38t53.5 -20.5q54 -8 76.5 -29.5t22.5 -58.5
v-78l-99 -16q-55 -10 -84.5 -53t-29.5 -103z" />
    <glyph glyph-name="asciitilde" unicode="~" horiz-adv-x="1208" 
d="M1067 668q0 -107 -71.5 -180.5t-200.5 -73.5q-66 0 -115 23.5t-96 51.5q-45 27 -88 40.5t-72 13.5q-47 0 -80 -40t-33 -110h-65q-37 0 -70 33t-33 100q0 74 27 124t66.5 81t87 45.5t88.5 14.5q65 0 112 -21.5t94 -48.5q39 -23 88.5 -43.5t81.5 -20.5q60 0 86.5 33
t26.5 111h80q31 0 58.5 -39t27.5 -94z" />
    <glyph glyph-name="Adieresis" unicode="&#xc4;" horiz-adv-x="1277" 
d="M847 582q-19 73 -44.5 152t-54 154t-60.5 141.5t-58 115.5q-31 -55 -61.5 -123t-59.5 -141.5t-53.5 -149.5t-42.5 -149h434zM1138 0q-88 0 -134.5 42t-54.5 93q-18 139 -39 223h-559q-22 -90 -39.5 -179t-33.5 -179h-109q-70 0 -99.5 35t-29.5 100q0 51 20.5 147.5
t55.5 218.5t82 255t100 257t109.5 227t109.5 163h115q86 0 142 -39t85 -90q47 -86 106.5 -233.5t117 -323.5t103.5 -363.5t66 -353.5h-114zM846 1775q49 0 84 -35t35 -83q0 -50 -35.5 -85.5t-83.5 -35.5q-49 0 -85 36t-36 85t35.5 83.5t85.5 34.5zM436 1775q49 0 84 -35
t35 -83q0 -50 -35 -85.5t-84 -35.5t-85 36t-36 85t36 83.5t85 34.5z" />
    <glyph glyph-name="Aring" unicode="&#xc5;" horiz-adv-x="1277" 
d="M847 582q-19 73 -44.5 152t-54 154t-60.5 141.5t-58 115.5q-31 -55 -61.5 -123t-59.5 -141.5t-53.5 -149.5t-42.5 -149h434zM1138 0q-88 0 -134.5 42t-54.5 93q-18 139 -39 223h-559q-22 -90 -39.5 -179t-33.5 -179h-109q-70 0 -99.5 35t-29.5 100q0 51 20.5 147.5
t55.5 218.5t82 255t100 257t109.5 227t109.5 163h115q86 0 142 -39t85 -90q47 -86 106.5 -233.5t117 -323.5t103.5 -363.5t66 -353.5h-114zM642 1921q89 0 144 -57.5t55 -141.5q0 -87 -56 -143.5t-143 -56.5q-83 0 -142 56.5t-59 143.5q0 84 56.5 141.5t144.5 57.5z
M642 1610q48 0 77.5 31t29.5 81t-29 80.5t-78 30.5t-79 -30.5t-30 -80.5t30 -81t79 -31z" />
    <glyph glyph-name="Ccedilla" unicode="&#xc7;" horiz-adv-x="1226" 
d="M636 -77q56 -1 89 -16t33 -58q0 -37 -39 -54.5t-137 -21.5v-104q314 6 314 182q0 60 -39 95.5t-111 37.5v11q66 2 131 27q129 51 -267 -5q15 -5 30 -9zM1150 1028q-33 43 -80 71.5t-100.5 47t-106.5 26t-98 7.5q-94 0 -174 -33t-138.5 -92.5t-91 -142.5t-32.5 -185
q0 -123 32.5 -216t91 -155.5t141.5 -93.5t181 -31q51 0 105.5 10.5t103.5 28t91 42t71 55.5h10v-105q0 -72 -38 -124t-98.5 -86t-134 -49t-147.5 -15q-139 0 -265 50t-221 141t-150.5 220t-55.5 287q0 162 52 297t146.5 233.5t226.5 152.5t292 54q86 0 158.5 -17t126 -53
t83 -90.5t29.5 -125.5v-109h-10z" />
    <glyph glyph-name="Eacute" unicode="&#xc9;" horiz-adv-x="1118" 
d="M1099 164q0 -43 -13.5 -75t-47 -54.5t-93 -33.5t-151.5 -11h-150q-258 0 -390 138t-132 409v260q0 100 7 204.5t20 190.5q16 125 72.5 168t142.5 43h733v-94q0 -148 -189 -148h-481q-6 -39 -9 -82t-6 -87t-4 -85t-1 -73h540v-101q0 -69 -42 -99t-128 -30h-370v-82
q0 -92 15 -148.5t51 -88t92.5 -43t138.5 -11.5h90q77 0 154 7.5t153 23.5zM872 1750l-105 106q-222 -217 -359 -218l121 -137q96 5 343 249z" />
    <glyph glyph-name="Ntilde" unicode="&#xd1;" horiz-adv-x="1148" 
d="M1165 0q-41 0 -84 10t-92 48t-104.5 112t-120.5 201l-256 497q-57 115 -94 164v-1032h-111q-31 0 -61.5 11.5t-54 35t-39 57t-15.5 80.5v1219h139q140 0 233 -73t165 -214l245 -491q23 -43 44.5 -98.5t37.5 -90.5v967h125q27 0 54.5 -12.5t49 -35t36 -52t14.5 -62.5
v-1241h-111zM885 1705l60 74l30 -36l-146 -182q-70 -111 -213.5 -16.5t-248.5 28.5l-72 -78l-34 35l128 160q113 152 261 53t235 -38z" />
    <glyph glyph-name="Odieresis" unicode="&#xd6;" horiz-adv-x="1434" 
d="M1078 684q0 248 -99.5 372t-279.5 124q-78 0 -143.5 -31t-112.5 -90.5t-73.5 -144.5t-26.5 -191q0 -504 379 -504q164 0 260 116t96 349zM1367 723q0 -160 -45 -297t-131 -236.5t-211 -157t-285 -57.5q-133 0 -250 51.5t-204 143.5t-137 222t-50 288q0 164 45 301
t131 236.5t211 154.5t285 55q127 0 243.5 -47t204.5 -138t140.5 -222t52.5 -297zM892 1789q49 0 84 -35t35 -83q0 -50 -35.5 -85.5t-83.5 -35.5q-49 0 -85 36t-36 85t35.5 83.5t85.5 34.5zM482 1789q49 0 84 -35t35 -83q0 -50 -35 -85.5t-84 -35.5t-85 36t-36 85t36 83.5
t85 34.5z" />
    <glyph glyph-name="Udieresis" unicode="&#xdc;" horiz-adv-x="1280" 
d="M1213 633q0 -309 -145 -483.5t-446 -174.5q-127 0 -230.5 42t-176.5 123t-113 199t-40 269v795h109q33 0 64.5 -13.5t56 -43t39 -78.5t14.5 -123v-518q0 -199 70.5 -294t234.5 -95q150 0 215.5 96t65.5 282v787h106q80 0 128 -60.5t48 -189.5v-520zM784 1809q49 0 84 -35
t35 -83q0 -50 -35.5 -85.5t-83.5 -35.5q-49 0 -85 36t-36 85t35.5 83.5t85.5 34.5zM374 1809q49 0 84 -35t35 -83q0 -50 -35 -85.5t-84 -35.5t-85 36t-36 85t36 83.5t85 34.5z" />
    <glyph glyph-name="aacute" unicode="&#xe1;" horiz-adv-x="1058" 
d="M730 481h-98q-78 0 -130 -9t-83 -26.5t-43 -44t-12 -59.5q0 -66 49 -101.5t141 -35.5q176 0 176 170v106zM998 377q0 -88 -30.5 -161t-86 -125t-132 -80.5t-168.5 -28.5h-56q-98 0 -180 26.5t-140.5 72.5t-90 110.5t-31.5 140.5q0 74 28.5 137t93 109.5t170 73
t257.5 26.5h96v14q0 117 -57.5 160t-179.5 43q-74 0 -132.5 -12.5t-101.5 -32t-72.5 -42t-44.5 -40.5h-10v88q0 45 21.5 93t69.5 88t125 64.5t185 24.5q93 0 177 -23.5t148.5 -80.5t103 -152.5t38.5 -238.5v-254zM878 1337l-105 106q-222 -217 -359 -218l121 -137
q96 5 343 249z" />
    <glyph glyph-name="agrave" unicode="&#xe0;" horiz-adv-x="1058" 
d="M730 481h-98q-78 0 -130 -9t-83 -26.5t-43 -44t-12 -59.5q0 -66 49 -101.5t141 -35.5q176 0 176 170v106zM998 377q0 -88 -30.5 -161t-86 -125t-132 -80.5t-168.5 -28.5h-56q-98 0 -180 26.5t-140.5 72.5t-90 110.5t-31.5 140.5q0 74 28.5 137t93 109.5t170 73
t257.5 26.5h96v14q0 117 -57.5 160t-179.5 43q-74 0 -132.5 -12.5t-101.5 -32t-72.5 -42t-44.5 -40.5h-10v88q0 45 21.5 93t69.5 88t125 64.5t185 24.5q93 0 177 -23.5t148.5 -80.5t103 -152.5t38.5 -238.5v-254zM530 1385q0 56 31.5 80.5t82.5 24.5q60 0 103 -27t92 -72
q45 -41 82 -89t71 -101v-10h-92q-55 0 -119.5 13t-115.5 36q-64 26 -99.5 63t-35.5 82z" />
    <glyph glyph-name="acircumflex" unicode="&#xe2;" horiz-adv-x="1058" 
d="M730 481h-98q-78 0 -130 -9t-83 -26.5t-43 -44t-12 -59.5q0 -66 49 -101.5t141 -35.5q176 0 176 170v106zM998 377q0 -88 -30.5 -161t-86 -125t-132 -80.5t-168.5 -28.5h-56q-98 0 -180 26.5t-140.5 72.5t-90 110.5t-31.5 140.5q0 74 28.5 137t93 109.5t170 73
t257.5 26.5h96v14q0 117 -57.5 160t-179.5 43q-74 0 -132.5 -12.5t-101.5 -32t-72.5 -42t-44.5 -40.5h-10v88q0 45 21.5 93t69.5 88t125 64.5t185 24.5q93 0 177 -23.5t148.5 -80.5t103 -152.5t38.5 -238.5v-254zM570 1456l39 1l323 -301l-155 -107l-252 239l-228 -257
l-61 28z" />
    <glyph glyph-name="adieresis" unicode="&#xe4;" horiz-adv-x="1058" 
d="M730 481h-98q-78 0 -130 -9t-83 -26.5t-43 -44t-12 -59.5q0 -66 49 -101.5t141 -35.5q176 0 176 170v106zM998 377q0 -88 -30.5 -161t-86 -125t-132 -80.5t-168.5 -28.5h-56q-98 0 -180 26.5t-140.5 72.5t-90 110.5t-31.5 140.5q0 74 28.5 137t93 109.5t170 73
t257.5 26.5h96v14q0 117 -57.5 160t-179.5 43q-74 0 -132.5 -12.5t-101.5 -32t-72.5 -42t-44.5 -40.5h-10v88q0 45 21.5 93t69.5 88t125 64.5t185 24.5q93 0 177 -23.5t148.5 -80.5t103 -152.5t38.5 -238.5v-254zM775 1375q49 0 84 -35t35 -83q0 -50 -35.5 -85.5
t-83.5 -35.5q-49 0 -85 36t-36 85t35.5 83.5t85.5 34.5zM365 1375q49 0 84 -35t35 -83q0 -50 -35 -85.5t-84 -35.5t-85 36t-36 85t36 83.5t85 34.5z" />
    <glyph glyph-name="atilde" unicode="&#xe3;" horiz-adv-x="1058" 
d="M730 481h-98q-78 0 -130 -9t-83 -26.5t-43 -44t-12 -59.5q0 -66 49 -101.5t141 -35.5q176 0 176 170v106zM998 377q0 -88 -30.5 -161t-86 -125t-132 -80.5t-168.5 -28.5h-56q-98 0 -180 26.5t-140.5 72.5t-90 110.5t-31.5 140.5q0 74 28.5 137t93 109.5t170 73
t257.5 26.5h96v14q0 117 -57.5 160t-179.5 43q-74 0 -132.5 -12.5t-101.5 -32t-72.5 -42t-44.5 -40.5h-10v88q0 45 21.5 93t69.5 88t125 64.5t185 24.5q93 0 177 -23.5t148.5 -80.5t103 -152.5t38.5 -238.5v-254zM877 1296l60 74l30 -36l-146 -182q-70 -111 -213.5 -16.5
t-248.5 28.5l-72 -78l-34 35l128 160q113 152 261 53t235 -38z" />
    <glyph glyph-name="aring" unicode="&#xe5;" horiz-adv-x="1058" 
d="M730 481h-98q-78 0 -130 -9t-83 -26.5t-43 -44t-12 -59.5q0 -66 49 -101.5t141 -35.5q176 0 176 170v106zM998 377q0 -88 -30.5 -161t-86 -125t-132 -80.5t-168.5 -28.5h-56q-98 0 -180 26.5t-140.5 72.5t-90 110.5t-31.5 140.5q0 74 28.5 137t93 109.5t170 73
t257.5 26.5h96v14q0 117 -57.5 160t-179.5 43q-74 0 -132.5 -12.5t-101.5 -32t-72.5 -42t-44.5 -40.5h-10v88q0 45 21.5 93t69.5 88t125 64.5t185 24.5q93 0 177 -23.5t148.5 -80.5t103 -152.5t38.5 -238.5v-254zM570 1511q89 0 144 -57.5t55 -141.5q0 -87 -56 -143.5
t-143 -56.5q-83 0 -142 56.5t-59 143.5q0 84 56.5 141.5t144.5 57.5zM570 1200q48 0 77.5 31t29.5 81t-29 80.5t-78 30.5t-79 -30.5t-30 -80.5t30 -81t79 -31z" />
    <glyph glyph-name="ccedilla" unicode="&#xe7;" horiz-adv-x="1084" 
d="M558 -90q56 -1 89 -16t33 -58q0 -37 -39 -54.5t-137 -21.5v-104q314 6 314 182q0 60 -39 95.5t-111 37.5v27q92 12 -209 39q46 -25 104 -34zM969 750q-29 47 -105 80.5t-194 33.5q-60 0 -115 -22.5t-96 -62.5t-65.5 -93t-24.5 -115q0 -151 81.5 -244.5t223.5 -93.5
q119 0 190.5 32t100.5 71h10v-127q0 -100 -89 -164.5t-239 -64.5q-115 0 -217 41.5t-179 115.5t-123 174.5t-46 218.5q0 119 40 225.5t116.5 186.5t187.5 127t252 47q65 0 120.5 -18.5t95.5 -51t62.5 -75.5t22.5 -92v-129h-10z" />
    <glyph glyph-name="eacute" unicode="&#xe9;" horiz-adv-x="960" 
d="M806 735q0 84 -56.5 125t-152.5 41q-49 0 -91 -19.5t-73 -51t-48 -74.5t-19 -90l-2 -37h122q99 0 160.5 6t97 18.5t49 33t13.5 48.5zM1064 702q0 -151 -123 -209.5t-395 -58.5h-180q16 -104 101 -165.5t208 -61.5q86 0 179 21.5t159 82.5h10v-86q0 -53 -19.5 -98
t-66.5 -79t-124 -53.5t-189 -19.5q-103 0 -201 39t-174 112t-122 175t-46 229q0 138 40 249.5t111.5 189.5t171 119.5t218.5 41.5q86 0 165.5 -29.5t141 -84.5t98.5 -135t37 -179zM842 1324l-105 106q-222 -217 -359 -218l121 -137q96 5 343 249z" />
    <glyph glyph-name="egrave" unicode="&#xe8;" horiz-adv-x="960" 
d="M806 735q0 84 -56.5 125t-152.5 41q-49 0 -91 -19.5t-73 -51t-48 -74.5t-19 -90l-2 -37h122q99 0 160.5 6t97 18.5t49 33t13.5 48.5zM1064 702q0 -151 -123 -209.5t-395 -58.5h-180q16 -104 101 -165.5t208 -61.5q86 0 179 21.5t159 82.5h10v-86q0 -53 -19.5 -98
t-66.5 -79t-124 -53.5t-189 -19.5q-103 0 -201 39t-174 112t-122 175t-46 229q0 138 40 249.5t111.5 189.5t171 119.5t218.5 41.5q86 0 165.5 -29.5t141 -84.5t98.5 -135t37 -179zM503 1360q0 56 31.5 80.5t82.5 24.5q60 0 103 -27t92 -72q45 -41 82 -89t71 -101v-10h-92
q-55 0 -119.5 13t-115.5 36q-64 26 -99.5 63t-35.5 82z" />
    <glyph glyph-name="ecircumflex" unicode="&#xea;" horiz-adv-x="960" 
d="M806 735q0 84 -56.5 125t-152.5 41q-49 0 -91 -19.5t-73 -51t-48 -74.5t-19 -90l-2 -37h122q99 0 160.5 6t97 18.5t49 33t13.5 48.5zM1064 702q0 -151 -123 -209.5t-395 -58.5h-180q16 -104 101 -165.5t208 -61.5q86 0 179 21.5t159 82.5h10v-86q0 -53 -19.5 -98
t-66.5 -79t-124 -53.5t-189 -19.5q-103 0 -201 39t-174 112t-122 175t-46 229q0 138 40 249.5t111.5 189.5t171 119.5t218.5 41.5q86 0 165.5 -29.5t141 -84.5t98.5 -135t37 -179zM505 1459l39 1l323 -301l-155 -107l-252 239l-228 -257l-61 28z" />
    <glyph glyph-name="edieresis" unicode="&#xeb;" horiz-adv-x="960" 
d="M806 735q0 84 -56.5 125t-152.5 41q-49 0 -91 -19.5t-73 -51t-48 -74.5t-19 -90l-2 -37h122q99 0 160.5 6t97 18.5t49 33t13.5 48.5zM1064 702q0 -151 -123 -209.5t-395 -58.5h-180q16 -104 101 -165.5t208 -61.5q86 0 179 21.5t159 82.5h10v-86q0 -53 -19.5 -98
t-66.5 -79t-124 -53.5t-189 -19.5q-103 0 -201 39t-174 112t-122 175t-46 229q0 138 40 249.5t111.5 189.5t171 119.5t218.5 41.5q86 0 165.5 -29.5t141 -84.5t98.5 -135t37 -179zM710 1337q49 0 84 -35t35 -83q0 -50 -35.5 -85.5t-83.5 -35.5q-49 0 -85 36t-36 85
t35.5 83.5t85.5 34.5zM300 1337q49 0 84 -35t35 -83q0 -50 -35 -85.5t-84 -35.5t-85 36t-36 85t36 83.5t85 34.5z" />
    <glyph glyph-name="iacute" unicode="&#xed;" horiz-adv-x="488" 
d="M147 559q-6 -347 2 -429.5t98 -136.5l221 206l1 29q-61 -3 -75 82.5t-8 294.5t3.5 274t-60.5 130l-262 -182l18 -30q94 53 62 -238zM477 1282l-105 106q-222 -217 -359 -218l121 -137q96 5 343 249z" />
    <glyph glyph-name="igrave" unicode="&#xec;" horiz-adv-x="547" 
d="M147 559q-6 -347 2 -429.5t99 -136.5l220 206l1 29q-61 -3 -75 82.5t-7.5 294.5t3.5 274t-60 130l-263 -182l18 -30q94 53 62 -238zM339 1066l121 137q-137 1 -359 218l-105 -106q247 -244 343 -249z" />
    <glyph glyph-name="icircumflex" unicode="&#xee;" horiz-adv-x="540" 
d="M146 559q-5 -347 2.5 -429.5t98.5 -136.5l220 206l1 29q-60 -3 -74 82.5t-8 294.5t3.5 274t-60.5 130l-262 -182l17 -30q94 53 62 -238zM217 1464l39 1l323 -301l-155 -107l-252 239l-228 -257l-61 28z" />
    <glyph glyph-name="idieresis" unicode="&#xef;" horiz-adv-x="547" 
d="M147 559q-6 -347 2 -429.5t98 -136.5l221 206l1 29q-61 -3 -75 82.5t-8 294.5t3.5 274t-60.5 130l-262 -182l18 -30q94 53 62 -238zM469 1337q49 0 84 -35t35 -83q0 -50 -35.5 -85.5t-83.5 -35.5q-49 0 -85 36t-36 85t35.5 83.5t85.5 34.5zM59 1337q49 0 84 -35t35 -83
q0 -50 -35 -85.5t-84 -35.5t-85 36t-36 85t36 83.5t85 34.5z" />
    <glyph glyph-name="ntilde" unicode="&#xf1;" horiz-adv-x="1041" 
d="M1032 0q-92 0 -146.5 51t-54.5 129v438q0 142 -58 205.5t-165 63.5q-90 0 -145 -64.5t-55 -183.5v-639h-82q-88 0 -140.5 51t-52.5 129v477q0 88 30 173t90 152t154.5 107.5t223.5 40.5q98 0 184 -31.5t150.5 -94t102.5 -153.5t38 -208v-643h-74zM785 1296l60 74l30 -36
l-146 -182q-70 -111 -213.5 -16.5t-248.5 28.5l-72 -78l-34 35l128 160q113 152 261 53t235 -38z" />
    <glyph glyph-name="oacute" unicode="&#xf3;" horiz-adv-x="1007" 
d="M865 532q0 166 -63.5 259.5t-198.5 93.5q-119 0 -178 -88t-59 -226q0 -165 62.5 -257.5t199.5 -92.5q121 0 179 88t58 223zM81 532q0 125 35 233.5t104.5 189.5t172 128t235.5 47q125 0 222 -46t163.5 -123.5t101.5 -178t35 -211.5q0 -125 -36 -233.5t-104.5 -189
t-171 -127t-235.5 -46.5q-125 0 -222 46.5t-163.5 123t-101.5 177t-35 210.5zM816 1320l-105 106q-222 -217 -359 -218l121 -137q96 5 343 249z" />
    <glyph glyph-name="ograve" unicode="&#xf2;" horiz-adv-x="1007" 
d="M865 532q0 166 -63.5 259.5t-198.5 93.5q-119 0 -178 -88t-59 -226q0 -165 62.5 -257.5t199.5 -92.5q121 0 179 88t58 223zM81 532q0 125 35 233.5t104.5 189.5t172 128t235.5 47q125 0 222 -46t163.5 -123.5t101.5 -178t35 -211.5q0 -125 -36 -233.5t-104.5 -189
t-171 -127t-235.5 -46.5q-125 0 -222 46.5t-163.5 123t-101.5 177t-35 210.5zM506 1368q0 56 31.5 80.5t82.5 24.5q60 0 103 -27t92 -72q45 -41 82 -89t71 -101v-10h-92q-55 0 -119.5 13t-115.5 36q-64 26 -99.5 63t-35.5 82z" />
    <glyph glyph-name="ocircumflex" unicode="&#xf4;" horiz-adv-x="1007" 
d="M865 532q0 166 -63.5 259.5t-198.5 93.5q-119 0 -178 -88t-59 -226q0 -165 62.5 -257.5t199.5 -92.5q121 0 179 88t58 223zM81 532q0 125 35 233.5t104.5 189.5t172 128t235.5 47q125 0 222 -46t163.5 -123.5t101.5 -178t35 -211.5q0 -125 -36 -233.5t-104.5 -189
t-171 -127t-235.5 -46.5q-125 0 -222 46.5t-163.5 123t-101.5 177t-35 210.5zM513 1456l39 1l323 -301l-155 -107l-252 239l-228 -257l-61 28z" />
    <glyph glyph-name="odieresis" unicode="&#xf6;" horiz-adv-x="1219" 
d="M865 556q0 166 -63.5 259.5t-198.5 93.5q-119 0 -178 -88t-59 -226q0 -165 62.5 -257.5t199.5 -92.5q121 0 179 88t58 223zM81 556q0 125 35 233.5t104.5 189.5t172 128t235.5 47q125 0 222 -46t163.5 -123.5t101.5 -178t35 -211.5q0 -125 -36 -233.5t-104.5 -189
t-171 -127t-235.5 -46.5q-125 0 -222 46.5t-163.5 123t-101.5 177t-35 210.5zM807 1438q49 0 84 -35t35 -83q0 -50 -35.5 -85.5t-83.5 -35.5q-49 0 -85 36t-36 85t35.5 83.5t85.5 34.5zM397 1438q49 0 84 -35t35 -83q0 -50 -35 -85.5t-84 -35.5t-85 36t-36 85t36 83.5
t85 34.5z" />
    <glyph glyph-name="otilde" unicode="&#xf5;" horiz-adv-x="1007" 
d="M865 532q0 166 -63.5 259.5t-198.5 93.5q-119 0 -178 -88t-59 -226q0 -165 62.5 -257.5t199.5 -92.5q121 0 179 88t58 223zM81 532q0 125 35 233.5t104.5 189.5t172 128t235.5 47q125 0 222 -46t163.5 -123.5t101.5 -178t35 -211.5q0 -125 -36 -233.5t-104.5 -189
t-171 -127t-235.5 -46.5q-125 0 -222 46.5t-163.5 123t-101.5 177t-35 210.5zM852 1275l60 74l30 -36l-146 -182q-70 -111 -213.5 -16.5t-248.5 28.5l-72 -78l-34 35l128 160q113 152 261 53t235 -38z" />
    <glyph glyph-name="uacute" unicode="&#xfa;" horiz-adv-x="1084" 
d="M1104 496q0 -521 -483 -521q-103 0 -192 33t-154.5 97.5t-103.5 157.5t-38 214v629h51q119 0 173.5 -49t54.5 -148v-405q0 -152 64.5 -218.5t158.5 -66.5q86 0 139 62.5t53 203.5v621h50q120 0 173.5 -49t53.5 -148v-413zM841 1307l-105 106q-222 -217 -359 -218
l121 -137q96 5 343 249z" />
    <glyph glyph-name="ugrave" unicode="&#xf9;" horiz-adv-x="1084" 
d="M1104 496q0 -521 -483 -521q-103 0 -192 33t-154.5 97.5t-103.5 157.5t-38 214v629h51q119 0 173.5 -49t54.5 -148v-405q0 -152 64.5 -218.5t158.5 -66.5q86 0 139 62.5t53 203.5v621h50q120 0 173.5 -49t53.5 -148v-413zM464 1342q0 56 31.5 80.5t82.5 24.5
q60 0 103 -27t92 -72q45 -41 82 -89t71 -101v-10h-92q-55 0 -119.5 13t-115.5 36q-64 26 -99.5 63t-35.5 82z" />
    <glyph glyph-name="ucircumflex" unicode="&#xfb;" horiz-adv-x="1084" 
d="M1104 496q0 -521 -483 -521q-103 0 -192 33t-154.5 97.5t-103.5 157.5t-38 214v629h51q119 0 173.5 -49t54.5 -148v-405q0 -152 64.5 -218.5t158.5 -66.5q86 0 139 62.5t53 203.5v621h50q120 0 173.5 -49t53.5 -148v-413zM551 1485l39 1l323 -301l-155 -107l-252 239
l-228 -257l-61 28z" />
    <glyph glyph-name="udieresis" unicode="&#xfc;" horiz-adv-x="1178" 
d="M1104 520q0 -521 -483 -521q-103 0 -192 33t-154.5 97.5t-103.5 157.5t-38 214v629h51q119 0 173.5 -49t54.5 -148v-405q0 -152 64.5 -218.5t158.5 -66.5q86 0 139 62.5t53 203.5v621h50q120 0 173.5 -49t53.5 -148v-413zM756 1421q49 0 84 -35t35 -83q0 -50 -35.5 -85.5
t-83.5 -35.5q-49 0 -85 36t-36 85t35.5 83.5t85.5 34.5zM346 1421q49 0 84 -35t35 -83q0 -50 -35 -85.5t-84 -35.5t-85 36t-36 85t36 83.5t85 34.5z" />
    <glyph glyph-name="dagger" unicode="&#x2020;" horiz-adv-x="1020" 
d="M430 930l-340 -17v185l340 -17l-22 467h204l-22 -467l340 17v-185l-340 17v-1069h-160v1069z" />
    <glyph glyph-name="degree" unicode="&#xb0;" horiz-adv-x="834" 
d="M410 1507q144 0 237.5 -91.5t93.5 -235.5q0 -147 -95 -238.5t-236 -91.5t-233.5 93t-92.5 239q0 142 91 233.5t235 91.5zM412 975q84 0 141 58t57 147q0 88 -56 146t-142 58q-87 0 -143 -58.5t-56 -145.5q0 -89 57 -147t142 -58z" />
    <glyph glyph-name="cent" unicode="&#xa2;" horiz-adv-x="1093" 
d="M62 -185l63 -21q71 101 246 209l14 38l10 -4q75 -40 180.5 -40.5t216 102t182.5 209.5l-35 31q-28 -37 -72.5 -77.5t-115 -41t-153.5 53.5q-51 28 -89 63q77 168 177 364q31 -42 50 -100l218 172q-3 97 -72 152q-29 23 -58 39q91 169 197 356l-55 -7l-222 -157
q-33 -76 -68 -155q-32 -3 -62 -15q-63 -25 -117.5 -60t-111.5 -82q-400 -307 -140 -678l8 -10q-91 -166 -191 -341zM418 466q-41 102 -16 236q30 121 170 84q2 -1 4 -1q-74 -155 -158 -319z" />
    <glyph glyph-name="sterling" unicode="&#xa3;" horiz-adv-x="1020" 
d="M975 154v-154h-914v135q175 34 175 322v237h-158v148h158v172q0 261 119 377t343 116q88 0 207 -26v-152q-123 29 -190 29q-146 0 -210.5 -84t-64.5 -287v-145h381v-148h-381v-202q0 -238 -151 -338h686z" />
    <glyph glyph-name="section" unicode="&#xa7;" horiz-adv-x="1087" 
d="M467 -217q-150 0 -344 39v153q208 -49 328 -49q138 0 207 42t69 126q0 74 -56 115t-202 106q-106 46 -167.5 82.5t-105.5 99t-44 154.5q0 183 221 273q-199 95 -199 258q0 152 121 238.5t321 86.5q172 0 308 -37v-145q-146 43 -283 43q-126 0 -189 -39t-63 -117
q0 -65 53 -103.5t195 -94.5q203 -82 265.5 -165t62.5 -187q0 -88 -49 -162t-136 -117q162 -88 162 -252q0 -174 -119 -261t-356 -87zM627 453q63 25 102 74t39 106q0 74 -55 124t-191 103q-81 -27 -127.5 -77.5t-46.5 -110.5q0 -78 62.5 -120.5t216.5 -98.5z" />
    <glyph glyph-name="bullet" unicode="&#x2022;" horiz-adv-x="1100" 
d="M551 1073q142 0 243 -101t101 -243t-101 -244t-243 -102t-244 102t-102 244q0 143 101.5 243.5t244.5 100.5z" />
    <glyph glyph-name="paragraph" unicode="&#xb6;" horiz-adv-x="1200" 
d="M1147 1491v-148h-154v-1677h-145v1677h-205v-1677h-145v1077q-213 0 -319.5 92t-106.5 277q0 191 107 285t333 94h635z" />
    <glyph glyph-name="germandbls" unicode="&#xdf;" horiz-adv-x="1253" 
d="M510 174q171 -47 274 -47q205 0 205 178q0 60 -36.5 107t-157.5 102q-161 74 -210.5 148.5t-49.5 166.5q0 50 24 102.5t115 139.5q76 76 96.5 123t20.5 92q0 84 -54.5 129t-134.5 45q-122 0 -183 -74.5t-61 -222.5v-1163h-213v1163q0 218 116.5 327t350.5 109
q189 0 290.5 -78.5t101.5 -220.5q0 -61 -29 -121.5t-121 -142.5q-72 -61 -90.5 -95.5t-18.5 -68.5q0 -51 34 -91.5t147 -90.5q166 -73 220 -158.5t54 -197.5q0 -173 -102.5 -261.5t-298.5 -88.5q-130 0 -289 36v154z" />
    <glyph glyph-name="registered" unicode="&#xae;" horiz-adv-x="1765" 
d="M883 1507q343 0 571.5 -228t228.5 -572q0 -345 -228.5 -573t-571.5 -228q-344 0 -572.5 226t-228.5 575q0 348 229 574t572 226zM883 47q278 0 463.5 186.5t185.5 473.5q0 283 -184 471t-465 188q-284 0 -467 -189t-183 -470q0 -285 185 -472.5t465 -187.5zM1266 219
h-187l-225 410h-106v-410h-164v975h311q161 0 237 -66.5t76 -203.5q0 -210 -194 -275zM748 743h116q93 0 135.5 41.5t42.5 139.5q0 80 -37 117.5t-128 37.5h-129v-336z" />
    <glyph glyph-name="copyright" unicode="&#xa9;" horiz-adv-x="1765" 
d="M883 1507q343 0 571.5 -228t228.5 -572q0 -345 -228.5 -573t-571.5 -228q-344 0 -572.5 226t-228.5 575q0 348 229 574t572 226zM883 47q278 0 463.5 186.5t185.5 473.5q0 283 -184 471t-465 188q-284 0 -467 -189t-183 -470q0 -285 185 -472.5t465 -187.5zM1122 227
q-80 -22 -184 -22q-216 0 -324 128t-108 384q0 228 105.5 358.5t334.5 130.5q71 0 176 -26v-131q-96 32 -164 32q-139 0 -205.5 -86t-66.5 -274q0 -212 66.5 -302.5t210.5 -90.5q63 0 159 26v-127z" />
    <glyph glyph-name="trademark" unicode="&#x2122;" horiz-adv-x="1259" 
d="M508.514 889.254q0 -10 -5.84961 -21.4014q-5.85059 -11.4004 -15.9756 -20.4004q-10.126 -9.00098 -24.0762 -15.2012t-29.7002 -6.2002h-116.104v-462.828h-50.4014q-33.3008 0 -54.9014 18.8008t-21.6006 56.4033v387.624h-181.805v36.8018q0 10.001 4.72461 21.001
q4.72559 11.001 14.4004 20.002q9.67578 9 23.8506 14.8008q14.1758 5.7998 33.5264 5.7998h423.911v-35.2021zM947.726 364.022q-36.001 0 -58.501 18.001q-22.501 18.001 -22.501 56.4033q0 18.001 -0.900391 45.6025q-0.899414 27.6016 -2.7002 59.8037
q-1.7998 32.2021 -4.27441 66.6045q-2.47559 34.4023 -5.17578 65.6035q-2.7002 31.2021 -5.39941 56.2041q-2.7002 25.001 -5.40039 39.002q-6.75 -14.001 -14.4004 -30.8018t-15.3008 -35.6025l-88.2021 -240.814q-11.25 -30.4014 -24.9756 -57.0039
q-13.7256 -26.6016 -26.7754 -43.002h-34.2012q-31.501 0 -57.6016 21.8008q-26.1006 21.8018 -43.6514 67.4043l-90.4521 236.814q-8.10059 21.2012 -17.7754 44.2031q-9.67578 23.001 -17.3262 37.8018q-4.5 -20.4014 -7.65039 -51.2031
q-3.14941 -30.8018 -6.52441 -67.6035q-3.375 -36.8027 -5.62598 -77.0049q-2.25 -40.2021 -4.0498 -78.6045t-2.7002 -73.4053q-0.899414 -35.002 -0.899414 -60.2031h-44.1016q-35.1006 0 -57.377 19.2012q-22.2754 19.2012 -22.2754 55.2031q0 31.2021 2.47559 71.8047
q2.47461 40.6025 6.0752 85.2051q3.59961 44.6025 8.77539 91.4053q5.1748 46.8027 10.5752 90.6055q5.39941 43.8027 11.4746 81.8047q6.0752 38.0029 11.4756 66.0049h26.5508q66.6016 0 110.703 -25.002q44.1006 -25.001 62.5518 -70.2041l87.752 -219.613
q14.8506 -36.002 23.1758 -61.8037t12.8252 -44.6025q3.60059 16.4004 8.3252 30.001q4.72559 13.6016 9.22559 27.6025l72.9023 198.812q23.8506 67.2041 51.5264 109.007t47.0254 55.8037h14.4004q52.6523 0 85.9531 -29.2021t40.501 -87.2051
q2.7002 -22.002 6.52539 -55.6035q3.8252 -33.6025 6.97461 -73.8047q3.15039 -40.2021 6.30078 -84.0049q3.14941 -43.8027 5.625 -86.0059q2.47461 -42.2021 3.8252 -79.8047q1.34961 -37.6025 1.34961 -65.6035h-48.1514z" />
    <glyph glyph-name="acute" unicode="&#xb4;" horiz-adv-x="589" 
d="M521 1418l-105 106q-222 -217 -359 -218l121 -137q96 5 343 249z" />
    <glyph glyph-name="glyph142" horiz-adv-x="965" 
d="M1168 112l-128 -160l34 -35l72 78q105 66 248.5 -28.5t213.5 16.5l146 182l-30 36l-60 -74q-87 -61 -235 38t-261 -53zM1497 733l121 137q-137 1 -359 218l-105 -106q247 -244 343 -249zM1576 1409l-105 106q-222 -217 -359 -218l121 -137q96 5 343 249zM1957 788
q-16 -15 -6 -31q97 -196 -40 -275q-18 -26 12 -42q457 66 258 418l-19 6zM1360 576q51 -25 53.5 -65t-89.5 -67.5t-95 -62.5l4 -112l22 9v-9l140 60l1 97q137 42 158 94.5t-23.5 92t-111.5 45.5q-25 2 -45 1q-50 1 -75 -10q-32 -15 -71 -44l-98 -80l43 -20l5 6l1 1l16 -7
l5 6l80 70q16 6 33 8q23 -2 47 -13z" />
    <glyph glyph-name="dieresis" unicode="&#xa8;" horiz-adv-x="682" 
d="M547 1550q49 0 84 -35t35 -83q0 -50 -35.5 -85.5t-83.5 -35.5q-49 0 -85 36t-36 85t35.5 83.5t85.5 34.5zM137 1550q49 0 84 -35t35 -83q0 -50 -35 -85.5t-84 -35.5t-85 36t-36 85t36 83.5t85 34.5z" />
    <glyph glyph-name="notequal" unicode="&#x2260;" horiz-adv-x="1037" 
d="M406 503q-70 0 -150 1l-155 -158l11 -15q18 16 179 24q-99 -125 -210 -257l61 -13q70 66 240 138q34 64 79 136q147 3 355 1l144 162l-24 9q-22 -26 -380 -28q59 87 132 184q61 0 128 -1l144 162l-24 9q-13 -15 -134 -22q98 125 214 265l-54 -5l-216 -104
q-49 -79 -105 -161q-153 -3 -385 0l-155 -158l11 -15q28 26 429 29q-64 -89 -135 -183z" />
    <glyph glyph-name="AE" unicode="&#xc6;" horiz-adv-x="1821" 
d="M712 675l-214 1l106 311zM796 314q29 -113 129 -190q15 -27 28 -42q65 -80 136 -97l36 42q63 -20 139 -33q426 223 486 444.5t-142 347.5l-201 -255q162 -128 132 -224t-177 -85q-118 9 -230 99q-61 109 -130 304q10 42 30 86q62 -25 148 -33l214 226l-20 24
q-248 0 -311.5 63.5t-53 165.5t114 122.5t199 -25t80.5 -127.5l24 -17l184 199q-16 45 -82 95t-151.5 52.5t-155 -16t-178.5 -98.5t-188 -240q-3 -6 -5 -11q-98 297 -123 328q-35 43 -90 42.5t-89 -25.5t-233 -280l46 -35q66 83 109 108.5t62 -66.5l-166 -480h-100
l-221 -218l20 -35q113 25 197 18q-54 -148 -102 -234.5t-138 -165.5l16 -49l352 1l157 205l-17 20l-268 1q78 39 159 222l215 2l108 116q23 -65 43 -121q-7 -64 8 -131zM971 747l-8 -6q-3 10 -6 21q7 -8 14 -15z" />
    <glyph glyph-name="Oslash" unicode="&#xd8;" horiz-adv-x="1144" 
d="M774 967l8 -18q96 -233 42.5 -481.5t-237.5 -165.5q-45 20 -83 48q106 272 270 617zM391 479q-31 56 -50 125q-62 218 -39.5 408t203.5 180q100 -6 174 -81q-127 -300 -288 -632zM531 -11q96 -1 302 236q80 91 140.5 193t88.5 289t-49 416q-43 84 -92 147q79 158 167 328
l-57 -7l-229 -177q-4 -10 -8 -21q-121 81 -267 60q-213 -174 -301 -305t-123.5 -263.5t-11.5 -329.5q21 -184 162 -356q-74 -145 -153 -296l64 -24q63 96 203 199q97 -89 164 -89z" />
    <glyph glyph-name="infinity" unicode="&#x221e;" horiz-adv-x="1460" 
d="M679 862q135 221 324 221q136 0 226.5 -96t90.5 -262q0 -169 -90.5 -265t-226.5 -96q-186 0 -324 222q-61 -82 -139 -124t-148 -42q-102 0 -177 81t-75 224q0 87 29.5 151t87.5 107t135 43q161 0 287 -164zM785 727q89 -139 132 -167t90 -28q68 0 107.5 55t39.5 140
q0 93 -42.5 140.5t-102.5 47.5q-54 0 -103.5 -40t-120.5 -148zM581 729q-93 129 -176 129q-44 0 -73.5 -34t-29.5 -95t27.5 -97t75.5 -36q79 0 176 133z" />
    <glyph glyph-name="plusminus" unicode="&#xb1;" horiz-adv-x="1100" 
d="M995 795h-354v-365h-180v365h-357v178h357v364h180v-364h354v-178zM995 334v-180h-889v180h889z" />
    <glyph glyph-name="lessequal" unicode="&#x2264;" horiz-adv-x="1100" 
d="M995 393l-889 387v181l889 387v-183l-729 -295l729 -292v-185zM995 154h-889v180h889v-180z" />
    <glyph glyph-name="greaterequal" unicode="&#x2265;" horiz-adv-x="1100" 
d="M995 780l-889 -387v185l728 292l-728 295v183l889 -387v-181zM995 154h-889v180h889v-180z" />
    <glyph glyph-name="yen" unicode="&#xa5;" horiz-adv-x="1026" 
d="M795 1491h202l-301 -737h244v-146h-303l-31 -76v-86h334v-145h-334v-301h-215v301h-315v145h315v84l-29 78h-286v146h231l-278 737h237l252 -746z" />
    <glyph glyph-name="mu" unicode="&#xb5;" horiz-adv-x="1145" 
d="M881 0l-43 172q-117 -188 -303 -188q-108 0 -177 61v-379h-213v1497h213v-784q0 -125 46.5 -187.5t140.5 -62.5q115 0 178 88t63 232v714h213v-1163h-118z" />
    <glyph glyph-name="summation" unicode="&#x2211;" horiz-adv-x="1460" 
d="M1386 -348h-1263v240l586 694l-570 678v225h1237v-215h-962l581 -688l-616 -721h1007v-213z" />
    <glyph glyph-name="product" unicode="&#x220f;" horiz-adv-x="1686" 
d="M1524 -348h-289v1622h-786v-1622h-287v1837h1362v-1837z" />
    <glyph glyph-name="integral" unicode="&#x222b;" horiz-adv-x="561" 
d="M434 1864q50 0 87.5 -34.5t37.5 -74.5q0 -43 -26 -72.5t-64 -29.5q-34 0 -78 35q-27 20 -39 20q-41 0 -41 -63q0 -33 11 -146q36 -412 36 -665q0 -27 -8.5 -334.5t-15.5 -384t-26 -147t-48 -111t-63.5 -58.5t-77.5 -18q-53 0 -86 32.5t-33 88.5q0 46 25 70.5t65 24.5
t70 -33q27 -27 49 -27q39 0 39 61q0 33 -10 119q-40 338 -40 662q0 87 10.5 416.5t17.5 378.5q14 97 44.5 163.5t76 96.5t87.5 30z" />
    <glyph glyph-name="ordfeminine" unicode="&#xaa;" horiz-adv-x="707" 
d="M492.34 820.767h-64.6777q-51.4775 0 -85.7959 -5.39941q-34.3184 -5.40039 -54.7783 -15.8994q-20.459 -10.5 -28.3789 -26.3994q-7.91895 -15.8994 -7.91895 -35.6982q0 -39.5986 32.3389 -60.8975q32.3379 -21.2988 93.0557 -21.2988q116.155 0 116.155 101.995
v63.5977zM669.213 758.369q0 -52.7979 -20.1289 -96.5957q-20.1299 -43.7988 -56.7578 -74.9971q-36.6289 -31.1992 -87.1172 -48.2979q-50.4873 -17.0996 -111.205 -17.0996h-36.958q-64.6777 0 -118.796 15.8994q-54.1172 15.8994 -92.7256 43.498t-59.3975 66.2969
q-20.79 38.6992 -20.79 84.2969q0 44.3984 18.8096 82.1963q18.8096 37.7988 61.3779 65.6982q42.5684 27.8984 112.195 43.7979t169.942 15.8994h63.3574v8.39941q0 70.1973 -37.9482 95.9961t-118.465 25.7988q-48.8379 0 -87.4463 -7.49902
q-38.6084 -7.5 -66.9873 -19.1992q-28.3789 -11.7002 -47.8486 -25.1992q-19.4688 -13.5 -29.3682 -24.2988h-6.59961v52.7979q0 26.998 14.1895 55.7969t45.8682 52.7988q31.6787 23.998 82.4961 38.6982q50.8184 14.6992 122.095 14.6992q61.3779 0 116.815 -14.0996
t98.0059 -48.2979q42.5684 -34.1992 67.9775 -91.4961q25.4092 -57.2979 25.4092 -143.095v-152.394zM72.5 275v174h578.5v-174h-578.5z" />
    <glyph glyph-name="ordmasculine" unicode="&#xba;" horiz-adv-x="703" 
d="M586.057 851.965q0 99.5967 -41.9092 155.694q-41.9082 56.0977 -131.004 56.0977q-78.5371 0 -117.476 -52.7979t-38.9385 -135.595q0 -98.9961 41.248 -154.493q41.249 -55.498 131.665 -55.498q79.8564 0 118.135 52.7979q38.2793 52.7979 38.2793 133.794z
M68.6367 851.965q0 74.9971 23.0996 140.095q23.0986 65.0977 68.9668 113.695q45.8682 48.5986 113.516 76.7969q67.6475 28.1992 155.424 28.1992q82.4961 0 146.514 -27.5986q64.0176 -27.5996 107.906 -74.0977q43.8877 -46.498 66.9873 -106.796
q23.0986 -60.2969 23.0986 -126.895q0 -74.9971 -23.7588 -140.094q-23.7588 -65.0977 -68.9678 -113.396q-45.208 -48.2988 -112.855 -76.1973q-67.6465 -27.8984 -155.423 -27.8984q-82.4971 0 -146.515 27.8984t-107.905 73.7969q-43.8887 45.8984 -66.9873 106.196
q-23.0996 60.2969 -23.0996 126.294zM56.5 271v174h578.5v-174h-578.5z" />
    <glyph glyph-name="ae" unicode="&#xe6;" horiz-adv-x="1662" 
d="M693 455v-200q-40 -51 -185.5 -45t-262.5 205l41 39zM1204.5 808q100.5 -61 85 -162t-253.5 -228q-26 57 -37.5 111.5t-14.5 136.5t58.5 142.5t162 -0.5zM1087 10q154 -51 319.5 72.5t217.5 231.5l-33 27q-228 -157 -363 -103.5t-159 119.5l245 160q238 148 214.5 303.5
t-199.5 182.5t-329 -109q-36 -32 -66 -66q-27 77 -90 114q-98 57 -261.5 63.5t-337 -107.5t-73.5 -303l248 144q-110 169 95 174t180 -277l-359 -6l-277 -311q-11 -136 97.5 -231.5t215 -91.5t182 51t148.5 132q27 -153 181 -182l73 80q56 -41 131 -67z" />
    <glyph glyph-name="oslash" unicode="&#xf8;" horiz-adv-x="1007" 
d="M634 662q10 -17 20 -36q82 -158 55 -318t-169 -82q-49 26 -89 58q79 174 183 378zM349 395q-13 19 -24 39q-72 131 -52.5 262.5t159.5 109.5q56 -9 103 -39q-86 -180 -186 -372zM468 1002q-185 -122 -262 -212t-108 -181.5t-10 -228.5q18 -121 129 -234
q-96 -176 -202 -361l62 -21q72 101 246 209q12 32 24 65q74 -49 126 -49q84 -1 264 164q70 63 122.5 133.5t77 200t-42.5 287.5q-58 89 -126 143q95 177 206 373l-55 -7l-222 -157q-29 -68 -60 -138q-79 24 -169 14z" />
    <glyph glyph-name="questiondown" unicode="&#xbf;" horiz-adv-x="982" 
d="M362 967q0 37 14 68.5t38 55t55.5 38t68.5 14.5t68.5 -14.5t55 -38t38 -55t14.5 -68.5t-14.5 -68.5t-38 -55.5t-55 -38t-68.5 -14t-68.5 14t-55.5 38t-38 55.5t-14 68.5zM71 60q0 77 30.5 138.5t112.5 131.5l164 139q29 25 46.5 44.5t26.5 38t12 39t3 46.5v74h96
q48 0 86.5 -35t38.5 -86q0 -76 -28.5 -136.5t-104.5 -121.5l-145 -119q-35 -28 -48.5 -60t-13.5 -63q0 -73 50.5 -113t154.5 -40q117 0 202 35.5t132 101.5h10v-96q0 -52 -22.5 -103t-70.5 -92t-120.5 -65.5t-173.5 -24.5q-106 0 -188 29.5t-137.5 80t-84 117t-28.5 140.5z
" />
    <glyph glyph-name="exclamdown" unicode="&#xa1;" horiz-adv-x="542" 
d="M9 847q0 37 14.5 68.5t38 55t55 38t68.5 14.5t69 -14.5t55.5 -38t37.5 -55t14 -68.5t-14 -68.5t-37.5 -55.5t-55.5 -38t-69 -14t-68.5 14t-55 38t-38 55.5t-14.5 68.5zM79 542h84q73 0 115 -45t44 -127l21 -750h-125q-74 0 -118 45t-42 127z" />
    <glyph glyph-name="logicalnot" unicode="&#xac;" horiz-adv-x="1100" 
d="M995 428h-180v387h-709v180h889v-567z" />
    <glyph glyph-name="radical" unicode="&#x221a;" horiz-adv-x="1124" 
d="M1124 1870l-313 -1948l-496 1020l-196 -90l-35 63l301 152l406 -823l260 1626h73z" />
    <glyph glyph-name="florin" unicode="&#x192;" horiz-adv-x="1022" 
d="M416 1163q30 157 47.5 215t55.5 110t104.5 81.5t169.5 29.5q111 0 206 -16l-22 -147q-82 20 -162 20q-64 0 -98.5 -32.5t-47.5 -75.5t-40 -185h235l-24 -141h-238l-190 -1020q-37 -199 -125.5 -270.5t-270.5 -71.5v139q80 0 118.5 31.5t60.5 149.5l194 1042h-219l25 141
h221z" />
    <glyph glyph-name="approxequal" unicode="&#x2248;" horiz-adv-x="1007" 
d="M1067 312q0 -107 -71.5 -180.5t-200.5 -73.5q-66 0 -115 23.5t-96 51.5q-45 27 -88 40.5t-72 13.5q-47 0 -80 -40t-33 -110h-65q-37 0 -70 33t-33 100q0 74 27 124t66.5 81t87 45.5t88.5 14.5q65 0 112 -21.5t94 -48.5q39 -23 88.5 -43.5t81.5 -20.5q60 0 86.5 33
t26.5 111h80q31 0 58.5 -39t27.5 -94zM1067 21q0 -107 -71.5 -180.5t-200.5 -73.5q-66 0 -115 23.5t-96 51.5q-45 27 -88 40.5t-72 13.5q-47 0 -80 -40t-33 -110h-65q-37 0 -70 33t-33 100q0 74 27 124t66.5 81t87 45.5t88.5 14.5q65 0 112 -21.5t94 -48.5
q39 -23 88.5 -43.5t81.5 -20.5q60 0 86.5 33t26.5 111h80q31 0 58.5 -39t27.5 -94z" />
    <glyph glyph-name="guillemotleft" unicode="&#xab;" horiz-adv-x="1039" 
d="M264 596l289 -444h-193l-278 391v106l278 391h193zM678 596l289 -444h-193l-278 391v106l278 391h193z" />
    <glyph glyph-name="guillemotright" unicode="&#xbb;" horiz-adv-x="1039" 
d="M543 649v-106l-279 -391h-192l288 444l-288 444h192zM957 649v-106l-279 -391h-192l288 444l-288 444h192z" />
    <glyph glyph-name="ellipsis" unicode="&#x2026;" horiz-adv-x="2048" 
d="M464 176q0 -37 -14.5 -68.5t-38 -55t-55 -38t-68.5 -14.5t-69 14.5t-55.5 38t-37.5 55t-14 68.5t14 68.5t37.5 55.5t55.5 38t69 14t68.5 -14t55 -38t38 -55.5t14.5 -68.5zM1147 176q0 -37 -14.5 -68.5t-38 -55t-55 -38t-68.5 -14.5t-69 14.5t-55.5 38t-37.5 55t-14 68.5
t14 68.5t37.5 55.5t55.5 38t69 14t68.5 -14t55 -38t38 -55.5t14.5 -68.5zM1830 176q0 -37 -14.5 -68.5t-38 -55t-55 -38t-68.5 -14.5t-69 14.5t-55.5 38t-37.5 55t-14 68.5t14 68.5t37.5 55.5t55.5 38t69 14t68.5 -14t55 -38t38 -55.5t14.5 -68.5z" />
    <glyph glyph-name="nonbreakingspace" unicode="&#xa0;" horiz-adv-x="485" 
 />
    <glyph glyph-name="Agrave" unicode="&#xc0;" horiz-adv-x="1277" 
d="M847 582q-19 73 -44.5 152t-54 154t-60.5 141.5t-58 115.5q-31 -55 -61.5 -123t-59.5 -141.5t-53.5 -149.5t-42.5 -149h434zM1138 0q-88 0 -134.5 42t-54.5 93q-18 139 -39 223h-559q-22 -90 -39.5 -179t-33.5 -179h-109q-70 0 -99.5 35t-29.5 100q0 51 20.5 147.5
t55.5 218.5t82 255t100 257t109.5 227t109.5 163h115q86 0 142 -39t85 -90q47 -86 106.5 -233.5t117 -323.5t103.5 -363.5t66 -353.5h-114zM571 1812q0 56 31.5 80.5t82.5 24.5q60 0 103 -27t92 -72q45 -41 82 -89t71 -101v-10h-92q-55 0 -119.5 13t-115.5 36
q-64 26 -99.5 63t-35.5 82z" />
    <glyph glyph-name="Atilde" unicode="&#xc3;" horiz-adv-x="1277" 
d="M847 582q-19 73 -44.5 152t-54 154t-60.5 141.5t-58 115.5q-31 -55 -61.5 -123t-59.5 -141.5t-53.5 -149.5t-42.5 -149h434zM1138 0q-88 0 -134.5 42t-54.5 93q-18 139 -39 223h-559q-22 -90 -39.5 -179t-33.5 -179h-109q-70 0 -99.5 35t-29.5 100q0 51 20.5 147.5
t55.5 218.5t82 255t100 257t109.5 227t109.5 163h115q86 0 142 -39t85 -90q47 -86 106.5 -233.5t117 -323.5t103.5 -363.5t66 -353.5h-114zM905 1735l60 74l30 -36l-146 -182q-70 -111 -213.5 -16.5t-248.5 28.5l-72 -78l-34 35l128 160q113 152 261 53t235 -38z" />
    <glyph glyph-name="Otilde" unicode="&#xd5;" horiz-adv-x="1144" 
d="M1110 684q0 248 -99.5 372t-279.5 124q-78 0 -143.5 -31t-112.5 -90.5t-73.5 -144.5t-26.5 -191q0 -504 379 -504q164 0 260 116t96 349zM1399 723q0 -160 -45 -297t-131 -236.5t-211 -157t-285 -57.5q-133 0 -250 51.5t-204 143.5t-137 222t-50 288q0 164 45 301
t131 236.5t211 154.5t285 55q127 0 243.5 -47t204.5 -138t140.5 -222t52.5 -297zM895 1713l60 74l30 -36l-146 -182q-70 -111 -213.5 -16.5t-248.5 28.5l-72 -78l-34 35l128 160q113 152 261 53t235 -38z" />
    <glyph glyph-name="OE" unicode="&#x152;" horiz-adv-x="1633" 
d="M824.5 467.5q-53.5 -248.5 -238 -165.5t-246 301.5t-39 408.5t203 179.5t277 -243t43 -481zM1310 -6q426 223 486 444.5t-142 347.5l-201 -255q162 -128 132 -224t-177 -85t-285 148t-45 341q62 -25 147 -33l215 226l-20 24q-248 0 -311.5 63.5t-53 165.5t114 122.5
t198.5 -25t81 -127.5l24 -17l184 199q-16 45 -82 95t-152 52.5t-155 -16t-178 -98.5q-69 -51 -126 -133q-178 282 -437 244q-213 -174 -301 -305t-123.5 -263.5t-12 -330t184 -381.5t256.5 -184.5t302 236.5q15 17 28 33q92 -201 449 -264z" />
    <glyph glyph-name="oe" unicode="&#x153;" horiz-adv-x="1651" 
d="M709 308q-27 -160 -170 -82.5t-214.5 208.5t-52.5 262.5t159.5 109.5t222.5 -180t55 -318zM1193.5 808q100.5 -61 84.5 -162t-254 -228q-26 57 -37 111.5t-14 136.5t58.5 142.5t162 -0.5zM819 234q69 -158 257 -224q154 -51 319.5 72.5t217.5 231.5l-34 27
q-228 -157 -362.5 -103.5t-158.5 119.5l245 160q238 148 214.5 303.5t-199.5 182.5t-329 -109q-59 -52 -101 -111q-166 247 -420 219q-185 -122 -262 -212t-108 -181.5t-10.5 -228.5t161 -264t224.5 -127.5t264 164.5q44 39 81 82q0 -1 1 -1z" />
    <glyph glyph-name="endash" unicode="&#x2013;" horiz-adv-x="1024" 
d="M956 705v-154h-888v154h888z" />
    <glyph glyph-name="emdash" unicode="&#x2014;" horiz-adv-x="2048" 
d="M1985 705v-154h-1913v154h1913z" />
    <glyph glyph-name="emdash" unicode="&#x2015;" horiz-adv-x="2048" 
d="M1985 705v-154h-1913v154h1913z" />
    <glyph glyph-name="quotedblleft" unicode="&#x201c;" horiz-adv-x="827" 
d="M227 1348q62 -3 97.5 -38t35.5 -91q0 -59 -39 -97.5t-98 -38.5q-64 0 -99.5 49.5t-35.5 127.5q0 98 51.5 190t145.5 158l73 -72q-114 -82 -131 -188zM608 1348q62 -3 97.5 -38t35.5 -91q0 -59 -39 -97.5t-98 -38.5q-64 0 -99.5 49.5t-35.5 127.5q0 98 51.5 190t145.5 158
l73 -72q-114 -82 -131 -188z" />
    <glyph glyph-name="quotedblright" unicode="&#x201d;" horiz-adv-x="827" 
d="M219 1335q-61 3 -97 38t-36 91q0 58 39.5 96.5t97.5 38.5q64 0 99.5 -49t35.5 -127q0 -98 -51.5 -190t-144.5 -158l-74 72q114 82 131 188zM600 1335q-61 3 -97 38t-36 91q0 58 39.5 96.5t97.5 38.5q64 0 99.5 -49t35.5 -127q0 -98 -51.5 -190t-144.5 -158l-74 72
q114 82 131 188z" />
    <glyph glyph-name="quoteleft" unicode="&#x2018;" horiz-adv-x="446" 
d="M227 1348q62 -3 97.5 -38t35.5 -91q0 -59 -39 -97.5t-98 -38.5q-64 0 -99.5 49.5t-35.5 127.5q0 98 51.5 190t145.5 158l73 -72q-114 -82 -131 -188z" />
    <glyph glyph-name="quoteright" unicode="&#x2019;" horiz-adv-x="446" 
d="M219 1335q-61 3 -97 38t-36 91q0 58 39.5 96.5t97.5 38.5q64 0 99.5 -49t35.5 -127q0 -98 -51.5 -190t-144.5 -158l-74 72q114 82 131 188z" />
    <glyph glyph-name="divide" unicode="&#xf7;" horiz-adv-x="1100" 
d="M1177 586q0 -49 -42 -91t-122 -42h-260v-428h-96q-50 0 -93 42t-43 121v265h-432v112q0 43 37 81t96 38h299v387h115q43 0 80 -37t37 -96v-254h424v-98zM878 468q0 -37 -14.5 -68.5t-38 -55t-55 -38t-68.5 -14.5t-68.5 14.5t-55 38t-38 55t-14.5 68.5t14.5 68.5t38 55.5
t55 38t68.5 14t68.5 -14t55 -38t38 -55.5t14.5 -68.5zM878 1222q0 -37 -14.5 -69t-38 -55.5t-55 -37.5t-68.5 -14t-68.5 14t-55 37.5t-38 55.5t-14.5 69t14.5 68.5t38 56t55 38t68.5 13.5t68.5 -13.5t55 -38t38 -56t14.5 -68.5z" />
    <glyph glyph-name="ydieresis" unicode="&#xff;" horiz-adv-x="939" 
d="M766 238q-78 -183 -139.5 -298.5t-119.5 -181t-118.5 -91t-134.5 -25.5q-78 0 -135.5 46t-57.5 124v53l156 10q37 2 63.5 12.5t48 33t41 60t42.5 97.5q-56 82 -118.5 216t-118.5 282.5t-98 290t-57 239.5h146q57 0 103 -35t57 -94q28 -160 86.5 -325t134.5 -312
q33 78 67.5 175t64.5 200.5t51.5 205t31.5 185.5h119q65 0 97 -31t32 -98q0 -29 -14.5 -87.5t-37 -130t-51 -151.5t-55.5 -152.5t-50.5 -131t-35.5 -86.5zM654 1364q49 0 84 -35t35 -83q0 -50 -35.5 -85.5t-83.5 -35.5q-49 0 -85 36t-36 85t35.5 83.5t85.5 34.5zM244 1364
q49 0 84 -35t35 -83q0 -50 -35 -85.5t-84 -35.5t-85 36t-36 85t36 83.5t85 34.5z" />
    <glyph glyph-name="Ydieresis" unicode="&#x178;" horiz-adv-x="1101" 
d="M1139 1294q0 -26 -21.5 -78.5t-57.5 -117t-81 -137t-91 -141t-89 -127t-74 -95.5v-598h-117q-30 0 -61 11.5t-54.5 35t-39 57t-15.5 80.5v414q-61 80 -123.5 179.5t-119 206t-104.5 214t-81 205.5h131q84 0 129 -33t60 -65q26 -62 59 -128.5t68 -131t71.5 -124
t69.5 -106.5q33 47 76 114.5t86 146.5t80 163t61 164h123q55 0 85 -30t30 -79zM733 1834q49 0 84 -35t35 -83q0 -50 -35.5 -85.5t-83.5 -35.5q-49 0 -85 36t-36 85t35.5 83.5t85.5 34.5zM323 1834q49 0 84 -35t35 -83q0 -50 -35 -85.5t-84 -35.5t-85 36t-36 85t36 83.5
t85 34.5z" />
    <glyph glyph-name="fraction" unicode="&#x2044;" horiz-adv-x="164" 
d="M418 1491h178l-850 -1491h-178z" />
    <glyph glyph-name="Euro" unicode="&#x20ac;" horiz-adv-x="1344" 
d="M1291 259q-94 -139 -221.5 -211t-270.5 -72q-261 0 -440.5 207t-179.5 508t180.5 507t439.5 206q144 0 270.5 -69.5t221.5 -213.5l-175 -155q-117 198 -317 198q-159 0 -277 -137t-118 -336q0 -197 118 -336t277 -139q95 0 179.5 51t140.5 139zM68 707h770v-186h-770v186
zM68 1003h770v-186h-770v186z" />
    <glyph glyph-name="guilsinglleft" unicode="&#x2039;" horiz-adv-x="625" 
d="M264 596l289 -444h-193l-278 391v106l278 391h193z" />
    <glyph glyph-name="guilsinglright" unicode="&#x203a;" horiz-adv-x="625" 
d="M543 649v-106l-279 -391h-192l288 444l-288 444h192z" />
    <glyph glyph-name="daggerdbl" unicode="&#x2021;" horiz-adv-x="1020" 
d="M430 930l-340 -17v185l340 -17l-22 467h204l-22 -467l340 17v-185l-340 17v-451l340 17v-185l-340 17l22 -467h-204l22 467l-340 -17v185l340 -17v451z" />
    <glyph glyph-name="glyph189" horiz-adv-x="524" 
d="M264 571q-66 0 -113 47t-47 113t47 112t113 46t111 -46t45 -112t-45 -113t-111 -47z" />
    <glyph glyph-name="quotesinglbase" unicode="&#x201a;" horiz-adv-x="446" 
d="M219 -2q-61 3 -97 38t-36 91q0 58 39.5 96.5t97.5 38.5q64 0 99.5 -49t35.5 -127q0 -98 -51.5 -190t-144.5 -158l-74 72q114 82 131 188z" />
    <glyph glyph-name="quotedblbase" unicode="&#x201e;" horiz-adv-x="827" 
d="M219 -2q-61 3 -97 38t-36 91q0 58 39.5 96.5t97.5 38.5q64 0 99.5 -49t35.5 -127q0 -98 -51.5 -190t-144.5 -158l-74 72q114 82 131 188zM600 -2q-61 3 -97 38t-36 91q0 58 39.5 96.5t97.5 38.5q64 0 99.5 -49t35.5 -127q0 -98 -51.5 -190t-144.5 -158l-74 72
q114 82 131 188z" />
    <glyph glyph-name="perthousand" unicode="&#x2030;" horiz-adv-x="2509" 
d="M399 1501q154 0 233 -101t79 -331q0 -251 -79.5 -352t-234.5 -101q-156 0 -235.5 102t-79.5 351q0 226 80 329t237 103zM397 735q71 0 103 63t32 271q0 202 -33.5 257.5t-101.5 55.5t-102.5 -55.5t-34.5 -257.5q0 -209 33 -271.5t104 -62.5zM1210 1491h179l-850 -1491
h-179zM2116 874q154 0 232.5 -101t78.5 -331q0 -251 -79 -351.5t-234 -100.5q-156 0 -236 101.5t-80 350.5q0 226 80 329t238 103zM2114 109q70 0 102.5 62.5t32.5 270.5q0 203 -34 258.5t-101 55.5q-69 0 -103.5 -56t-34.5 -258q0 -209 33 -271t105 -62zM1356 874
q154 0 232.5 -101t78.5 -331q0 -251 -79 -351.5t-234 -100.5q-156 0 -236 101.5t-80 350.5q0 226 80 329t238 103zM1354 109q71 0 103 62.5t32 270.5q0 203 -34 258.5t-101 55.5q-69 0 -103 -56t-34 -258q0 -209 32.5 -271t104.5 -62z" />
    <glyph glyph-name="Acircumflex" unicode="&#xc2;" horiz-adv-x="1277" 
d="M847 582q-19 73 -44.5 152t-54 154t-60.5 141.5t-58 115.5q-31 -55 -61.5 -123t-59.5 -141.5t-53.5 -149.5t-42.5 -149h434zM1138 0q-88 0 -134.5 42t-54.5 93q-18 139 -39 223h-559q-22 -90 -39.5 -179t-33.5 -179h-109q-70 0 -99.5 35t-29.5 100q0 51 20.5 147.5
t55.5 218.5t82 255t100 257t109.5 227t109.5 163h115q86 0 142 -39t85 -90q47 -86 106.5 -233.5t117 -323.5t103.5 -363.5t66 -353.5h-114zM642 1869l39 1l323 -301l-155 -107l-252 239l-228 -257l-61 28z" />
    <glyph glyph-name="Ecircumflex" unicode="&#xca;" horiz-adv-x="1118" 
d="M1099 164q0 -43 -13.5 -75t-47 -54.5t-93 -33.5t-151.5 -11h-150q-258 0 -390 138t-132 409v260q0 100 7 204.5t20 190.5q16 125 72.5 168t142.5 43h733v-94q0 -148 -189 -148h-481q-6 -39 -9 -82t-6 -87t-4 -85t-1 -73h540v-101q0 -69 -42 -99t-128 -30h-370v-82
q0 -92 15 -148.5t51 -88t92.5 -43t138.5 -11.5h90q77 0 154 7.5t153 23.5zM557 1882l39 1l323 -301l-155 -107l-252 239l-228 -257l-61 28z" />
    <glyph glyph-name="Aacute" unicode="&#xc1;" horiz-adv-x="1277" 
d="M847 582q-19 73 -44.5 152t-54 154t-60.5 141.5t-58 115.5q-31 -55 -61.5 -123t-59.5 -141.5t-53.5 -149.5t-42.5 -149h434zM1138 0q-88 0 -134.5 42t-54.5 93q-18 139 -39 223h-559q-22 -90 -39.5 -179t-33.5 -179h-109q-70 0 -99.5 35t-29.5 100q0 51 20.5 147.5
t55.5 218.5t82 255t100 257t109.5 227t109.5 163h115q86 0 142 -39t85 -90q47 -86 106.5 -233.5t117 -323.5t103.5 -363.5t66 -353.5h-114zM949 1768l-105 106q-222 -217 -359 -218l121 -137q96 5 343 249z" />
    <glyph glyph-name="Edieresis" unicode="&#xcb;" horiz-adv-x="1118" 
d="M1099 164q0 -43 -13.5 -75t-47 -54.5t-93 -33.5t-151.5 -11h-150q-258 0 -390 138t-132 409v260q0 100 7 204.5t20 190.5q16 125 72.5 168t142.5 43h733v-94q0 -148 -189 -148h-481q-6 -39 -9 -82t-6 -87t-4 -85t-1 -73h540v-101q0 -69 -42 -99t-128 -30h-370v-82
q0 -92 15 -148.5t51 -88t92.5 -43t138.5 -11.5h90q77 0 154 7.5t153 23.5zM761 1784q49 0 84 -35t35 -83q0 -50 -35.5 -85.5t-83.5 -35.5q-49 0 -85 36t-36 85t35.5 83.5t85.5 34.5zM351 1784q49 0 84 -35t35 -83q0 -50 -35 -85.5t-84 -35.5t-85 36t-36 85t36 83.5t85 34.5z
" />
    <glyph glyph-name="Egrave" unicode="&#xc8;" horiz-adv-x="1118" 
d="M1099 164q0 -43 -13.5 -75t-47 -54.5t-93 -33.5t-151.5 -11h-150q-258 0 -390 138t-132 409v260q0 100 7 204.5t20 190.5q16 125 72.5 168t142.5 43h733v-94q0 -148 -189 -148h-481q-6 -39 -9 -82t-6 -87t-4 -85t-1 -73h540v-101q0 -69 -42 -99t-128 -30h-370v-82
q0 -92 15 -148.5t51 -88t92.5 -43t138.5 -11.5h90q77 0 154 7.5t153 23.5zM516 1811q0 56 31.5 80.5t82.5 24.5q60 0 103 -27t92 -72q45 -41 82 -89t71 -101v-10h-92q-55 0 -119.5 13t-115.5 36q-64 26 -99.5 63t-35.5 82z" />
    <glyph glyph-name="Iacute" unicode="&#xcd;" horiz-adv-x="542" 
d="M325 0q-30 0 -61 12.5t-54.5 35t-39 57t-15.5 81.5v1217h127q27 0 53.5 -10.5t48 -31t35 -48t13.5 -60.5v-1253h-107zM531 1746l-105 106q-222 -217 -359 -218l121 -137q96 5 343 249z" />
    <glyph glyph-name="Icircumflex" unicode="&#xce;" horiz-adv-x="542" 
d="M316 0q-30 0 -61 12.5t-54.5 35t-39 57t-15.5 81.5v1217h127q27 0 53.5 -10.5t48 -31t35 -48t13.5 -60.5v-1253h-107zM291 1882l39 1l323 -301l-155 -107l-252 239l-228 -257l-61 28z" />
    <glyph glyph-name="Idieresis" unicode="&#xcf;" horiz-adv-x="542" 
d="M318 0q-30 0 -61 12.5t-54.5 35t-39 57t-15.5 81.5v1217h127q27 0 53.5 -10.5t48 -31t35 -48t13.5 -60.5v-1253h-107zM489 1806q49 0 84 -35t35 -83q0 -50 -35.5 -85.5t-83.5 -35.5q-49 0 -85 36t-36 85t35.5 83.5t85.5 34.5zM79 1806q49 0 84 -35t35 -83
q0 -50 -35 -85.5t-84 -35.5t-85 36t-36 85t36 83.5t85 34.5z" />
    <glyph glyph-name="Igrave" unicode="&#xcc;" horiz-adv-x="542" 
d="M308 0q-30 0 -61 12.5t-54.5 35t-39 57t-15.5 81.5v1217h127q27 0 53.5 -10.5t48 -31t35 -48t13.5 -60.5v-1253h-107zM196 1820q0 56 31.5 80.5t82.5 24.5q60 0 103 -27t92 -72q45 -41 82 -89t71 -101v-10h-92q-55 0 -119.5 13t-115.5 36q-64 26 -99.5 63t-35.5 82z" />
    <glyph glyph-name="Oacute" unicode="&#xd3;" horiz-adv-x="1144" 
d="M1110 684q0 248 -99.5 372t-279.5 124q-78 0 -143.5 -31t-112.5 -90.5t-73.5 -144.5t-26.5 -191q0 -504 379 -504q164 0 260 116t96 349zM1399 723q0 -160 -45 -297t-131 -236.5t-211 -157t-285 -57.5q-133 0 -250 51.5t-204 143.5t-137 222t-50 288q0 164 45 301
t131 236.5t211 154.5t285 55q127 0 243.5 -47t204.5 -138t140.5 -222t52.5 -297zM876 1780l-105 106q-222 -217 -359 -218l121 -137q96 5 343 249z" />
    <glyph glyph-name="Ocircumflex" unicode="&#xd4;" horiz-adv-x="1144" 
d="M1110 684q0 248 -99.5 372t-279.5 124q-78 0 -143.5 -31t-112.5 -90.5t-73.5 -144.5t-26.5 -191q0 -504 379 -504q164 0 260 116t96 349zM1399 723q0 -160 -45 -297t-131 -236.5t-211 -157t-285 -57.5q-133 0 -250 51.5t-204 143.5t-137 222t-50 288q0 164 45 301
t131 236.5t211 154.5t285 55q127 0 243.5 -47t204.5 -138t140.5 -222t52.5 -297zM606 1882l39 1l323 -301l-155 -107l-252 239l-228 -257l-61 28z" />
    <glyph glyph-name="Ograve" unicode="&#xd2;" horiz-adv-x="1144" 
d="M1110 684q0 248 -99.5 372t-279.5 124q-78 0 -143.5 -31t-112.5 -90.5t-73.5 -144.5t-26.5 -191q0 -504 379 -504q164 0 260 116t96 349zM1399 723q0 -160 -45 -297t-131 -236.5t-211 -157t-285 -57.5q-133 0 -250 51.5t-204 143.5t-137 222t-50 288q0 164 45 301
t131 236.5t211 154.5t285 55q127 0 243.5 -47t204.5 -138t140.5 -222t52.5 -297zM510 1828q0 56 31.5 80.5t82.5 24.5q60 0 103 -27t92 -72q45 -41 82 -89t71 -101v-10h-92q-55 0 -119.5 13t-115.5 36q-64 26 -99.5 63t-35.5 82z" />
    <glyph glyph-name="Uacute" unicode="&#xda;" horiz-adv-x="1122" 
d="M1253 633q0 -309 -145 -483.5t-446 -174.5q-127 0 -230.5 42t-176.5 123t-113 199t-40 269v795h109q33 0 64.5 -13.5t56 -43t39 -78.5t14.5 -123v-518q0 -199 70.5 -294t234.5 -95q150 0 215.5 96t65.5 282v787h106q80 0 128 -60.5t48 -189.5v-520zM879 1750l-105 106
q-222 -217 -359 -218l121 -137q96 5 343 249z" />
    <glyph glyph-name="Ucircumflex" unicode="&#xdb;" horiz-adv-x="1122" 
d="M1253 633q0 -309 -145 -483.5t-446 -174.5q-127 0 -230.5 42t-176.5 123t-113 199t-40 269v795h109q33 0 64.5 -13.5t56 -43t39 -78.5t14.5 -123v-518q0 -199 70.5 -294t234.5 -95q150 0 215.5 96t65.5 282v787h106q80 0 128 -60.5t48 -189.5v-520zM577 1920l39 1
l323 -301l-155 -107l-252 239l-228 -257l-61 28z" />
    <glyph glyph-name="Ugrave" unicode="&#xd9;" horiz-adv-x="1122" 
d="M1253 633q0 -309 -145 -483.5t-446 -174.5q-127 0 -230.5 42t-176.5 123t-113 199t-40 269v795h109q33 0 64.5 -13.5t56 -43t39 -78.5t14.5 -123v-518q0 -199 70.5 -294t234.5 -95q150 0 215.5 96t65.5 282v787h106q80 0 128 -60.5t48 -189.5v-520zM464 1790
q0 56 31.5 80.5t82.5 24.5q60 0 103 -27t92 -72q45 -41 82 -89t71 -101v-10h-92q-55 0 -119.5 13t-115.5 36q-64 26 -99.5 63t-35.5 82z" />
    <glyph glyph-name="dotlessi" unicode="&#x131;" horiz-adv-x="531" 
d="M618 156q0 -90 -46 -128t-138 -38q-172 0 -261.5 88t-89.5 256v733h78q105 0 151 -53.5t46 -131.5v-522q0 -84 44 -114.5t142 -30.5h74v-59z" />
    <glyph glyph-name="circumflex" unicode="&#x2c6;" horiz-adv-x="682" 
d="M343 1554l39 1l323 -301l-155 -107l-252 239l-228 -257l-61 28z" />
    <glyph glyph-name="tilde" unicode="&#x2dc;" horiz-adv-x="717" 
d="M623 1377l60 74l30 -36l-146 -182q-70 -111 -213.5 -16.5t-248.5 28.5l-72 -78l-34 35l128 160q113 152 261 53t235 -38z" />
    <glyph glyph-name="glyph211" horiz-adv-x="682" 
d="M616 1495v-139h-550v139h550z" />
    <glyph glyph-name="breve" unicode="&#x2d8;" horiz-adv-x="682" 
d="M656 1449q-42 -120 -107 -180q-81 -74 -207 -74q-228 0 -315 254h149q49 -121 166 -121q68 0 117 47q31 30 50 74h147z" />
    <glyph glyph-name="dotaccent" unicode="&#x2d9;" horiz-adv-x="524" 
d="M471.639 1471.43q0 -31.4492 -12.3252 -58.2236q-12.3242 -26.7744 -32.2988 -46.748q-19.9746 -19.9746 -46.748 -32.2998q-26.7744 -12.3242 -58.2236 -12.3242t-58.6484 12.3242q-27.1992 12.3252 -47.1738 32.2998q-19.9746 19.9736 -31.874 46.748t-11.8994 58.2236
t11.8994 58.2236q11.8994 26.7734 31.874 47.1729t47.1738 32.2998q27.1992 11.8994 58.6484 11.8994t58.2236 -11.8994q26.7734 -11.9004 46.748 -32.2998t32.2988 -47.1729q12.3252 -26.7744 12.3252 -58.2236z" />
    <glyph glyph-name="ring" unicode="&#x2da;" horiz-adv-x="682" 
d="M342 1661q89 0 144 -57.5t55 -141.5q0 -87 -56 -143.5t-143 -56.5q-83 0 -142 56.5t-59 143.5q0 84 56.5 141.5t144.5 57.5zM342 1350q48 0 77.5 31t29.5 81t-29 80.5t-78 30.5t-79 -30.5t-30 -80.5t30 -81t79 -31z" />
    <glyph glyph-name="cedilla" unicode="&#xb8;" horiz-adv-x="682" 
d="M348 27v-60q72 -2 111 -37.5t39 -95.5q0 -176 -314 -182v104q98 4 137 21.5t39 54.5q0 43 -33 58t-89 16l6 121h104z" />
    <glyph glyph-name="hungarumlaut" unicode="&#x2dd;" horiz-adv-x="1024" 
d="M468 1418l-105 106q-222 -217 -359 -218l121 -137q96 5 343 249zM824 1418l-105 106q-222 -217 -359 -218l121 -137q96 5 343 249z" />
    <glyph glyph-name="caron" unicode="&#x2c7;" horiz-adv-x="682" 
d="M506 1583h162l-222 -311h-208l-222 311h162l164 -209z" />
    <glyph glyph-name="Lslash" unicode="&#x141;" horiz-adv-x="1007" 
d="M1057 190q0 -47 -13.5 -83.5t-46 -63.5t-90 -41t-143.5 -14h-109q-247 0 -379.5 133t-132.5 387v895h115q174 0 174 -205v-672q0 -80 11.5 -135t40 -90t78.5 -50t130 -15h72q100 0 177 17t116 34v-97zM26 371v174h1157v-174h-1157z" />
    <glyph glyph-name="lslash" unicode="&#x142;" horiz-adv-x="445" 
d="M678 156q0 -90 -46 -128t-138 -38q-172 0 -261.5 88t-89.5 256v1141h78q105 0 151 -53.5t46 -131.5v-930q0 -84 44 -114.5t142 -30.5h74v-59zM-234 369v174h1157v-174h-1157z" />
    <glyph glyph-name="Scaron" unicode="&#x160;" horiz-adv-x="1046" 
d="M1079 434q0 -104 -34.5 -188t-102.5 -144.5t-166 -93.5t-225 -33q-213 0 -320.5 76t-107.5 201v125h6q72 -64 167 -108t224 -44q158 0 218.5 50.5t60.5 134.5q0 36 -10.5 63t-45 50.5t-101.5 44t-177 44.5q-180 39 -276.5 128t-96.5 233q0 88 36 170t103.5 145.5t166 101
t220.5 37.5q123 0 204 -23.5t130 -60t68.5 -83t19.5 -89.5v-129h-8q-129 138 -364 138q-164 0 -230.5 -49.5t-66.5 -131.5q0 -30 14 -57t51 -49.5t100.5 -43t161.5 -40.5q193 -41 287 -137.5t94 -237.5zM669 1911h162l-222 -311h-208l-222 311h162l164 -209z" />
    <glyph glyph-name="scaron" unicode="&#x161;" horiz-adv-x="960" 
d="M927 348q0 -176 -119 -274.5t-342 -98.5q-76 0 -140.5 18.5t-112.5 48.5t-74.5 69t-26.5 82v124h10q22 -20 58 -39.5t81 -34t94.5 -22.5t98.5 -8q200 0 200 121q0 24 -9 41.5t-33.5 32t-69.5 25.5t-117 22q-176 24 -261 95t-85 198q0 77 33.5 147t95 122t147.5 82.5
t193 30.5q94 0 160.5 -21.5t109.5 -56t62.5 -76.5t19.5 -81v-104h-10q-43 43 -130 72.5t-186 29.5q-126 0 -173.5 -35t-47.5 -88q0 -20 8.5 -35.5t32 -28t66.5 -22.5t114 -22q175 -29 264 -105t89 -209zM635 1583h162l-222 -311h-208l-222 311h162l164 -209z" />
    <glyph glyph-name="Zcaron" unicode="&#x17d;" horiz-adv-x="1139" 
d="M1119 145q0 -53 -41 -99t-118 -46h-703q-76 0 -126 45t-50 131q0 92 61.5 183.5t149.5 189.5l348 393q51 57 94 114.5t58 100.5h-711v76q0 84 48 127t161 43h637q102 0 146 -48t44 -136q0 -66 -46 -152t-124 -172l-346 -387q-72 -80 -125 -147.5t-63 -114.5h706v-101z
M726 1911h162l-222 -311h-208l-222 311h162l164 -209z" />
    <glyph glyph-name="zcaron" unicode="&#x17e;" horiz-adv-x="960" 
d="M951 129q0 -51 -44 -90t-97 -39h-539q-96 0 -142 40t-46 105q0 64 45 140.5t123 163.5l278 303q25 28 52.5 62t42.5 63h-543v84q0 61 45 103t137 42h502q49 0 82 -13.5t52.5 -34t28.5 -45t9 -48.5q0 -66 -35 -140.5t-106 -152.5l-277 -299q-28 -33 -57 -68t-47 -69h536
v-107zM633 1583h162l-222 -311h-208l-222 311h162l164 -209z" />
    <glyph glyph-name="brokenbar" unicode="&#xa6;" horiz-adv-x="354" 
d="M275 172.857q-28 0 -55.5 10.5342q-27.5 10.5352 -27.5 29.0244v744.317h40q31 0 58.5 -8.81445q27.5 -8.81543 27.5 -26.4443v-748.617h-43zM275 -265.306q-28 0 -55.5 10.5352q-27.5 10.5342 -27.5 29.0244v744.317h40q31 0 58.5 -8.81543q27.5 -8.81445 27.5 -26.4443
v-748.617h-43z" />
    <glyph glyph-name="Eth" unicode="&#xd0;" horiz-adv-x="1157" 
d="M997 684q0 117 -30.5 208t-86 153.5t-132 94t-166.5 31.5h-62q-14 0 -31.5 -2t-33.5 -6q-21 -4 -41 -6v-805q0 -61 31.5 -90t109.5 -29h47q86 0 159 35t125 95.5t81.5 142.5t29.5 178zM1284 723q0 -160 -49 -294t-136 -232.5t-205 -153.5t-255 -55h-117
q-178 0 -283.5 73.5t-105.5 237.5v1055q25 10 68 19t91 17.5t97 12.5t90 4h146q120 0 238 -41t212 -125t151.5 -213t57.5 -305zM34 372v174h1157v-174h-1157z" />
    <glyph glyph-name="eth" unicode="&#xf0;" horiz-adv-x="1133" 
d="M565 121q248 0 248 450q0 180 -64 302t-184 122q-122 0 -185 -111.5t-63 -312.5q0 -208 63.5 -329t184.5 -121zM565 -16q-224 0 -346.5 149.5t-122.5 433.5q0 270 122 418t302 148q82 0 130.5 -17t99.5 -59q-72 149 -191 260l-176 -119l-70 100l150 99q-75 61 -150 94
l82 113q99 -44 205 -117l168 117l74 -101l-144 -94q338 -301 338 -831q0 -290 -123.5 -442t-347.5 -152z" />
    <glyph glyph-name="Yacute" unicode="&#xdd;" horiz-adv-x="1101" 
d="M1139 1294q0 -26 -21.5 -78.5t-57.5 -117t-81 -137t-91 -141t-89 -127t-74 -95.5v-598h-117q-30 0 -61 11.5t-54.5 35t-39 57t-15.5 80.5v414q-61 80 -123.5 179.5t-119 206t-104.5 214t-81 205.5h131q84 0 129 -33t60 -65q26 -62 59 -128.5t68 -131t71.5 -124
t69.5 -106.5q33 47 76 114.5t86 146.5t80 163t61 164h123q55 0 85 -30t30 -79zM824 1746l-105 106q-222 -217 -359 -218l121 -137q96 5 343 249z" />
    <glyph glyph-name="yacute" unicode="&#xfd;" horiz-adv-x="939" 
d="M766 238q-78 -183 -139.5 -298.5t-119.5 -181t-118.5 -91t-134.5 -25.5q-78 0 -135.5 46t-57.5 124v53l156 10q37 2 63.5 12.5t48 33t41 60t42.5 97.5q-56 82 -118.5 216t-118.5 282.5t-98 290t-57 239.5h146q57 0 103 -35t57 -94q28 -160 86.5 -325t134.5 -312
q33 78 67.5 175t64.5 200.5t51.5 205t31.5 185.5h119q65 0 97 -31t32 -98q0 -29 -14.5 -87.5t-37 -130t-51 -151.5t-55.5 -152.5t-50.5 -131t-35.5 -86.5zM785 1294l-105 106q-222 -217 -359 -218l121 -137q96 5 343 249z" />
    <glyph glyph-name="Thorn" unicode="&#xde;" horiz-adv-x="1054" 
d="M834 752q0 121 -51.5 172.5t-161.5 51.5h-91q-26 0 -59 -7.5t-57 -11.5v-397q37 -10 91 -17.5t107 -7.5q109 0 165.5 57.5t56.5 159.5zM1122 777q0 -111 -35.5 -200t-99 -151.5t-150.5 -95t-188 -32.5q-147 0 -235 47v-545h-111q-29 0 -59.5 10t-55 34t-40 62.5
t-15.5 94.5v1147q29 10 76 22t98 21.5t102.5 15.5t88.5 6h157q103 0 189 -28.5t147.5 -84t96 -137.5t34.5 -186zM309 0q-30 0 -61 12.5t-54.5 35t-39 57t-15.5 81.5v1217h127q27 0 53.5 -10.5t48 -31t35 -48t13.5 -60.5v-1253h-107z" />
    <glyph glyph-name="thorn" unicode="&#xfe;" horiz-adv-x="1003" 
d="M905 514q0 197 -64.5 285t-197.5 88q-115 0 -175 -89t-60 -233q0 -166 74.5 -256t197.5 -90q100 0 162.5 81t62.5 214zM1188 586q0 -133 -33 -245t-95.5 -193.5t-155.5 -127t-214 -45.5q-92 0 -164.5 46.5t-113.5 117.5v-487h-86q-37 0 -72 13t-61.5 38t-43 59.5
t-16.5 79.5v668q0 137 32 252t99.5 196.5t172 126.5t249.5 45q111 0 203 -46t158.5 -121.5t103.5 -174t37 -202.5zM678 156q0 -90 -46 -128t-138 -38q-172 0 -261.5 88t-89.5 256v1141h78q105 0 151 -53.5t46 -131.5v-930q0 -84 44 -114.5t142 -30.5h74v-59z" />
    <glyph glyph-name="multiply" unicode="&#xd7;" horiz-adv-x="1050" 
d="M1143 586q0 -49 -42 -91t-122 -42h-260v-428h-96q-50 0 -93 42t-43 121v265h-432v112q0 43 37 81t96 38h299v387h115q43 0 80 -37t37 -96v-254h424v-98z" />
    <glyph glyph-name="onesuperior" unicode="&#xb9;" horiz-adv-x="372" 
d="M31 1219l15 -25l78 46v-285q9 -100 -110 -203l11 -14h211l124 83l-13 17q-98 0 -189 -2q100 42 109 111v424l-10 13z" />
    <glyph glyph-name="twosuperior" unicode="&#xb2;" horiz-adv-x="489" 
d="M229.5 1371.5q-104.5 -29.5 -162.5 -92.5t-51 -130t51 -106l146 131l-11 12q-40 -18 -57.5 30t-1 78t62.5 25.5t94.5 -116.5t-7.5 -172l-260 -273l17 -18h350l85 144l-20 6l-27 -38l-256 1q196 199 244.5 297.5t-22 174.5t-175 46.5z" />
    <glyph glyph-name="threesuperior" unicode="&#xb3;" horiz-adv-x="438" 
d="M125 1381l-123 -149l14 -16q48 51 90 38l182 2l-203 -255l16 -23q78 93 162 -2.5t-4 -216.5l-145 -163l20 -14q201 198 251 271.5t46 158t-180 147.5l157 208l-9 13z" />
    <glyph glyph-name="onehalf" unicode="&#xbd;" horiz-adv-x="1749" 
d="M707 743v-118h-586v118h213v600l-213 -43v119l293 78h90v-754h203zM1210 1491h178l-850 -1491h-178zM1636 124v-123h-600v63q0 96 53 186t215 203q102 70 128 105.5t26 68.5q0 127 -164 127q-90 0 -229 -43v125q141 39 256 39q151 0 233 -59.5t82 -173.5
q0 -62 -32 -112.5t-74 -85.5t-130 -96q-118 -84 -155 -133.5t-41 -90.5h432z" />
    <glyph glyph-name="onequarter" unicode="&#xbc;" horiz-adv-x="1749" 
d="M707 743v-118h-586v118h213v600l-213 -43v119l293 78h90v-754h203zM1210 1491h178l-850 -1491h-178zM1687 308v-117h-104v-190h-168v190h-428v98l438 584h158v-565h104zM1155 308h260v356z" />
    <glyph glyph-name="threequarters" unicode="&#xbe;" horiz-adv-x="1749" 
d="M164 1139q180 0 247.5 21t67.5 104q0 61 -34.5 87.5t-122.5 26.5q-70 0 -209 -30v122q129 29 231 29q311 0 311 -221q0 -62 -40 -113.5t-113 -79.5q79 -20 122.5 -74t43.5 -124q0 -273 -355 -273q-105 0 -227 31v123q154 -31 227 -31q94 0 137.5 35t43.5 111t-52 108.5
t-278 32.5v115zM1210 1491h178l-850 -1491h-178zM1687 308v-117h-104v-190h-168v190h-428v98l438 584h158v-565h104zM1155 308h260v356z" />
    <glyph glyph-name="sfthyphen" unicode="&#xad;" horiz-adv-x="1024" 
d="M681 616q0 -53 -35 -82.5t-98 -29.5h-471v104q0 51 33.5 84t93.5 33h477v-109z" />
    <glyph glyph-name="macron" unicode="&#xaf;" horiz-adv-x="1024" 
d="M681 1408q0 -53 -35 -82.5t-98 -29.5h-471v104q0 51 33.5 84t93.5 33h477v-109z" />
    <glyph glyph-name="periodcentered" unicode="&#xb7;" horiz-adv-x="485" 
d="M398.639 677.431q0 -31.4492 -12.3252 -58.2236q-12.3242 -26.7744 -32.2988 -46.748q-19.9746 -19.9746 -46.748 -32.2998q-26.7744 -12.3242 -58.2236 -12.3242t-58.6484 12.3242q-27.1992 12.3252 -47.1738 32.2998q-19.9746 19.9736 -31.874 46.748t-11.8994 58.2236
t11.8994 58.2236q11.8994 26.7734 31.874 47.1729t47.1738 32.2998q27.1992 11.8994 58.6484 11.8994t58.2236 -11.8994q26.7734 -11.9004 46.748 -32.2998t32.2988 -47.1729q12.3252 -26.7744 12.3252 -58.2236z" />
    <glyph glyph-name="currency" unicode="&#xa4;" horiz-adv-x="1100" 
d="M831 535l113 -113l-88 -88l-113 112q-88 -63 -192 -63q-106 0 -195 63l-112 -112l-88 88l112 113q-63 88 -63 194q0 105 63 193l-112 114l88 88l112 -114q89 63 195 63q104 0 192 -63l113 114l88 -88l-113 -114q64 -88 64 -193q0 -106 -64 -194zM551 526q84 0 143.5 59.5
t59.5 143.5q0 85 -59.5 144t-143.5 59t-144.5 -59.5t-60.5 -143.5t60.5 -143.5t144.5 -59.5z" />
    <glyph glyph-name="foursuperior" horiz-adv-x="793" 
d="M731 932v-117h-104v-190h-168v190h-428v98l438 584h158v-565h104zM199 932h260v356z" />
    <glyph glyph-name="Amacron" unicode="&#x100;" horiz-adv-x="1277" 
d="M847 582q-19 73 -44.5 152t-54 154t-60.5 141.5t-58 115.5q-31 -55 -61.5 -123t-59.5 -141.5t-53.5 -149.5t-42.5 -149h434zM1138 0q-88 0 -134.5 42t-54.5 93q-18 139 -39 223h-559q-22 -90 -39.5 -179t-33.5 -179h-109q-70 0 -99.5 35t-29.5 100q0 51 20.5 147.5
t55.5 218.5t82 255t100 257t109.5 227t109.5 163h115q86 0 142 -39t85 -90q47 -86 106.5 -233.5t117 -323.5t103.5 -363.5t66 -353.5h-114zM980 1736q0 -53 -35 -82.5t-98 -29.5h-471v104q0 51 33.5 84t93.5 33h477v-109z" />
    <glyph glyph-name="amacron" unicode="&#x101;" horiz-adv-x="1058" 
d="M730 481h-98q-78 0 -130 -9t-83 -26.5t-43 -44t-12 -59.5q0 -66 49 -101.5t141 -35.5q176 0 176 170v106zM998 377q0 -88 -30.5 -161t-86 -125t-132 -80.5t-168.5 -28.5h-56q-98 0 -180 26.5t-140.5 72.5t-90 110.5t-31.5 140.5q0 74 28.5 137t93 109.5t170 73
t257.5 26.5h96v14q0 117 -57.5 160t-179.5 43q-74 0 -132.5 -12.5t-101.5 -32t-72.5 -42t-44.5 -40.5h-10v88q0 45 21.5 93t69.5 88t125 64.5t185 24.5q93 0 177 -23.5t148.5 -80.5t103 -152.5t38.5 -238.5v-254zM909 1408q0 -53 -35 -82.5t-98 -29.5h-471v104q0 51 33.5 84
t93.5 33h477v-109z" />
    <glyph glyph-name="Abreve" unicode="&#x102;" horiz-adv-x="1277" 
d="M847 582q-19 73 -44.5 152t-54 154t-60.5 141.5t-58 115.5q-31 -55 -61.5 -123t-59.5 -141.5t-53.5 -149.5t-42.5 -149h434zM1138 0q-88 0 -134.5 42t-54.5 93q-18 139 -39 223h-559q-22 -90 -39.5 -179t-33.5 -179h-109q-70 0 -99.5 35t-29.5 100q0 51 20.5 147.5
t55.5 218.5t82 255t100 257t109.5 227t109.5 163h115q86 0 142 -39t85 -90q47 -86 106.5 -233.5t117 -323.5t103.5 -363.5t66 -353.5h-114zM955 1747q-42 -120 -107 -180q-81 -74 -207 -74q-228 0 -315 254h149q49 -121 166 -121q68 0 117 47q31 30 50 74h147z" />
    <glyph glyph-name="abreve" unicode="&#x103;" horiz-adv-x="1058" 
d="M730 481h-98q-78 0 -130 -9t-83 -26.5t-43 -44t-12 -59.5q0 -66 49 -101.5t141 -35.5q176 0 176 170v106zM998 377q0 -88 -30.5 -161t-86 -125t-132 -80.5t-168.5 -28.5h-56q-98 0 -180 26.5t-140.5 72.5t-90 110.5t-31.5 140.5q0 74 28.5 137t93 109.5t170 73
t257.5 26.5h96v14q0 117 -57.5 160t-179.5 43q-74 0 -132.5 -12.5t-101.5 -32t-72.5 -42t-44.5 -40.5h-10v88q0 45 21.5 93t69.5 88t125 64.5t185 24.5q93 0 177 -23.5t148.5 -80.5t103 -152.5t38.5 -238.5v-254zM883 1325q-42 -120 -107 -180q-81 -74 -207 -74
q-228 0 -315 254h149q49 -121 166 -121q68 0 117 47q31 30 50 74h147z" />
    <glyph glyph-name="Aogonek" unicode="&#x104;" horiz-adv-x="1277" 
d="M847 582q-19 73 -44.5 152t-54 154t-60.5 141.5t-58 115.5q-31 -55 -61.5 -123t-59.5 -141.5t-53.5 -149.5t-42.5 -149h434zM1138 0q-88 0 -134.5 42t-54.5 93q-18 139 -39 223h-559q-22 -90 -39.5 -179t-33.5 -179h-109q-70 0 -99.5 35t-29.5 100q0 51 20.5 147.5
t55.5 218.5t82 255t100 257t109.5 227t109.5 163h115q86 0 142 -39t85 -90q47 -86 106.5 -233.5t117 -323.5t103.5 -363.5t66 -353.5h-114zM1091 106.5q62 -2.25 97.5 -28.5t35.5 -68.25q0 -44.25 -39 -73.125t-98 -28.875q-64 0 -99.5 37.125t-35.5 95.625
q0 73.5 51.5 142.5t145.5 118.5l73 -54q-114 -61.5 -131 -141z" />
    <glyph glyph-name="aogonek" unicode="&#x105;" horiz-adv-x="1058" 
d="M730 481h-98q-78 0 -130 -9t-83 -26.5t-43 -44t-12 -59.5q0 -66 49 -101.5t141 -35.5q176 0 176 170v106zM998 377q0 -88 -30.5 -161t-86 -125t-132 -80.5t-168.5 -28.5h-56q-98 0 -180 26.5t-140.5 72.5t-90 110.5t-31.5 140.5q0 74 28.5 137t93 109.5t170 73
t257.5 26.5h96v14q0 117 -57.5 160t-179.5 43q-74 0 -132.5 -12.5t-101.5 -32t-72.5 -42t-44.5 -40.5h-10v88q0 45 21.5 93t69.5 88t125 64.5t185 24.5q93 0 177 -23.5t148.5 -80.5t103 -152.5t38.5 -238.5v-254zM913 106.5q62 -2.25 97.5 -28.5t35.5 -68.25
q0 -44.25 -39 -73.125t-98 -28.875q-64 0 -99.5 37.125t-35.5 95.625q0 73.5 51.5 142.5t145.5 118.5l73 -54q-114 -61.5 -131 -141z" />
    <glyph glyph-name="Cacute" unicode="&#x106;" horiz-adv-x="1105" 
d="M1190 1028q-33 43 -80 71.5t-100.5 47t-106.5 26t-98 7.5q-94 0 -174 -33t-138.5 -92.5t-91 -142.5t-32.5 -185q0 -123 32.5 -216t91 -155.5t141.5 -93.5t181 -31q51 0 105.5 10.5t103.5 28t91 42t71 55.5h10v-105q0 -72 -38 -124t-98.5 -86t-134 -49t-147.5 -15
q-139 0 -265 50t-221 141t-150.5 220t-55.5 287q0 162 52 297t146.5 233.5t226.5 152.5t292 54q86 0 158.5 -17t126 -53t83 -90.5t29.5 -125.5v-109h-10zM787 1746l-105 106q-222 -217 -359 -218l121 -137q96 5 343 249z" />
    <glyph glyph-name="cacute" unicode="&#x107;" horiz-adv-x="990" 
d="M968 750q-29 47 -105 80.5t-194 33.5q-60 0 -115 -22.5t-96 -62.5t-65.5 -93t-24.5 -115q0 -151 81.5 -244.5t223.5 -93.5q119 0 190.5 32t100.5 71h10v-127q0 -100 -89 -164.5t-239 -64.5q-115 0 -217 41.5t-179 115.5t-123 174.5t-46 218.5q0 119 40 225.5t116.5 186.5
t187.5 127t252 47q65 0 120.5 -18.5t95.5 -51t62.5 -75.5t22.5 -92v-129h-10zM735 1418l-105 106q-222 -217 -359 -218l121 -137q96 5 343 249z" />
    <glyph glyph-name="Ccaron" unicode="&#x10c;" horiz-adv-x="1105" 
d="M1190 1028q-33 43 -80 71.5t-100.5 47t-106.5 26t-98 7.5q-94 0 -174 -33t-138.5 -92.5t-91 -142.5t-32.5 -185q0 -123 32.5 -216t91 -155.5t141.5 -93.5t181 -31q51 0 105.5 10.5t103.5 28t91 42t71 55.5h10v-105q0 -72 -38 -124t-98.5 -86t-134 -49t-147.5 -15
q-139 0 -265 50t-221 141t-150.5 220t-55.5 287q0 162 52 297t146.5 233.5t226.5 152.5t292 54q86 0 158.5 -17t126 -53t83 -90.5t29.5 -125.5v-109h-10zM719 1911h162l-222 -311h-208l-222 311h162l164 -209z" />
    <glyph glyph-name="ccaron" unicode="&#x10d;" horiz-adv-x="990" 
d="M968 750q-29 47 -105 80.5t-194 33.5q-60 0 -115 -22.5t-96 -62.5t-65.5 -93t-24.5 -115q0 -151 81.5 -244.5t223.5 -93.5q119 0 190.5 32t100.5 71h10v-127q0 -100 -89 -164.5t-239 -64.5q-115 0 -217 41.5t-179 115.5t-123 174.5t-46 218.5q0 119 40 225.5t116.5 186.5
t187.5 127t252 47q65 0 120.5 -18.5t95.5 -51t62.5 -75.5t22.5 -92v-129h-10zM667 1583h162l-222 -311h-208l-222 311h162l164 -209z" />
    <glyph glyph-name="Dcaron" unicode="&#x10e;" horiz-adv-x="1157" 
d="M997 684q0 117 -30.5 208t-86 153.5t-132 94t-166.5 31.5h-62q-14 0 -31.5 -2t-33.5 -6q-21 -4 -41 -6v-805q0 -61 31.5 -90t109.5 -29h47q86 0 159 35t125 95.5t81.5 142.5t29.5 178zM1284 723q0 -160 -49 -294t-136 -232.5t-205 -153.5t-255 -55h-117
q-178 0 -283.5 73.5t-105.5 237.5v1055q25 10 68 19t91 17.5t97 12.5t90 4h146q120 0 238 -41t212 -125t151.5 -213t57.5 -305zM714 1911h162l-222 -311h-208l-222 311h162l164 -209z" />
    <glyph glyph-name="dcaron" unicode="&#x10f;" horiz-adv-x="1337" 
d="M872 0l-45 143q-92 -159 -315 -159q-207 0 -311.5 146.5t-104.5 457.5q0 261 111.5 426.5t316.5 165.5q168 0 252 -101v504h213v-1583h-117zM783 530l-1 66q0 260 -58.5 351t-166.5 91q-120 0 -180 -111t-60 -333q0 -233 58 -349t174 -116q113 0 173.5 84t60.5 317z
M1161 1126l-66 64q102 72 117 170q-60 1 -89.5 30.5t-29.5 86.5q0 52 35 86t88 34q60 0 90.5 -39.5t30.5 -117.5q0 -96 -44 -174.5t-132 -139.5z" />
    <glyph glyph-name="Dcroat" unicode="&#x110;" horiz-adv-x="1157" 
d="M405 783l2 333q67 83 130.5 89.5t164 -96.5t140.5 -370t-74 -521q-111 -76 -229.5 -12.5t-134.5 263.5l1 141q91 -2 201 -5l52 194l-14 11q-6 -25 -239 -27zM-13 790l-59 -189l8 -18q8 23 215 27l-1 -190q1 -186 88.5 -295t240.5 -127t236 59.5t159.5 181t141 240t61 379
t-204.5 473.5q-88 100 -245 122l-219 -237q-17 156 -141 234l-244 -199l16 -37q85 25 113 -108l-1 -321q-76 2 -164 5z" />
    <glyph glyph-name="dcroat" unicode="&#x111;" horiz-adv-x="1105" 
d="M570 629l147 127v-65l5 -28v-345l-14 -4q-31 -69 -147 -77.5t-209.5 147t-23.5 391.5q174 15 242 -146zM539 1243l-57 -143l8 -14q8 18 219 21q3 -54 4 -120v-22q-81 41 -151.5 36t-157.5 -64t-188 -158t-135.5 -277.5t69 -342.5t223.5 -169t358 239q0 -158 138 -243
l194 164q-117 65 -98 744q1 48 2 93h1v119q79 -1 172 -3l51 147l-13 8q-6 -19 -219 -21q-18 223 -74 233l-218 -149q16 -28 26 -82q-72 2 -154 4z" />
    <glyph glyph-name="Emacron" unicode="&#x112;" horiz-adv-x="1118" 
d="M1099 164q0 -43 -13.5 -75t-47 -54.5t-93 -33.5t-151.5 -11h-150q-258 0 -390 138t-132 409v260q0 100 7 204.5t20 190.5q16 125 72.5 168t142.5 43h733v-94q0 -148 -189 -148h-481q-6 -39 -9 -82t-6 -87t-4 -85t-1 -73h540v-101q0 -69 -42 -99t-128 -30h-370v-82
q0 -92 15 -148.5t51 -88t92.5 -43t138.5 -11.5h90q77 0 154 7.5t153 23.5zM895 1736q0 -53 -35 -82.5t-98 -29.5h-471v104q0 51 33.5 84t93.5 33h477v-109z" />
    <glyph glyph-name="emacron" unicode="&#x113;" horiz-adv-x="960" 
d="M806 735q0 84 -56.5 125t-152.5 41q-49 0 -91 -19.5t-73 -51t-48 -74.5t-19 -90l-2 -37h122q99 0 160.5 6t97 18.5t49 33t13.5 48.5zM1064 702q0 -151 -123 -209.5t-395 -58.5h-180q16 -104 101 -165.5t208 -61.5q86 0 179 21.5t159 82.5h10v-86q0 -53 -19.5 -98
t-66.5 -79t-124 -53.5t-189 -19.5q-103 0 -201 39t-174 112t-122 175t-46 229q0 138 40 249.5t111.5 189.5t171 119.5t218.5 41.5q86 0 165.5 -29.5t141 -84.5t98.5 -135t37 -179zM843 1408q0 -53 -35 -82.5t-98 -29.5h-471v104q0 51 33.5 84t93.5 33h477v-109z" />
    <glyph glyph-name="Edot" unicode="&#x116;" horiz-adv-x="1118" 
d="M1099 164q0 -43 -13.5 -75t-47 -54.5t-93 -33.5t-151.5 -11h-150q-258 0 -390 138t-132 409v260q0 100 7 204.5t20 190.5q16 125 72.5 168t142.5 43h733v-94q0 -148 -189 -148h-481q-6 -39 -9 -82t-6 -87t-4 -85t-1 -73h540v-101q0 -69 -42 -99t-128 -30h-370v-82
q0 -92 15 -148.5t51 -88t92.5 -43t138.5 -11.5h90q77 0 154 7.5t153 23.5zM778.639 1799.43q0 -31.4492 -12.3252 -58.2236q-12.3242 -26.7744 -32.2988 -46.748q-19.9746 -19.9746 -46.748 -32.2998q-26.7744 -12.3242 -58.2236 -12.3242t-58.6484 12.3242
q-27.1992 12.3252 -47.1738 32.2998q-19.9746 19.9736 -31.874 46.748t-11.8994 58.2236t11.8994 58.2236q11.8994 26.7734 31.874 47.1729t47.1738 32.2998q27.1992 11.8994 58.6484 11.8994t58.2236 -11.8994q26.7734 -11.9004 46.748 -32.2998t32.2988 -47.1729
q12.3252 -26.7744 12.3252 -58.2236z" />
    <glyph glyph-name="edot" unicode="&#x117;" horiz-adv-x="960" 
d="M806 735q0 84 -56.5 125t-152.5 41q-49 0 -91 -19.5t-73 -51t-48 -74.5t-19 -90l-2 -37h122q99 0 160.5 6t97 18.5t49 33t13.5 48.5zM1064 702q0 -151 -123 -209.5t-395 -58.5h-180q16 -104 101 -165.5t208 -61.5q86 0 179 21.5t159 82.5h10v-86q0 -53 -19.5 -98
t-66.5 -79t-124 -53.5t-189 -19.5q-103 0 -201 39t-174 112t-122 175t-46 229q0 138 40 249.5t111.5 189.5t171 119.5t218.5 41.5q86 0 165.5 -29.5t141 -84.5t98.5 -135t37 -179zM726.639 1471.43q0 -31.4492 -12.3252 -58.2236q-12.3242 -26.7744 -32.2988 -46.748
q-19.9746 -19.9746 -46.748 -32.2998q-26.7744 -12.3242 -58.2236 -12.3242t-58.6484 12.3242q-27.1992 12.3252 -47.1738 32.2998q-19.9746 19.9736 -31.874 46.748t-11.8994 58.2236t11.8994 58.2236q11.8994 26.7734 31.874 47.1729t47.1738 32.2998
q27.1992 11.8994 58.6484 11.8994t58.2236 -11.8994q26.7734 -11.9004 46.748 -32.2998t32.2988 -47.1729q12.3252 -26.7744 12.3252 -58.2236z" />
    <glyph glyph-name="Eogonek" unicode="&#x118;" horiz-adv-x="1118" 
d="M1099 164q0 -43 -13.5 -75t-47 -54.5t-93 -33.5t-151.5 -11h-150q-258 0 -390 138t-132 409v260q0 100 7 204.5t20 190.5q16 125 72.5 168t142.5 43h733v-94q0 -148 -189 -148h-481q-6 -39 -9 -82t-6 -87t-4 -85t-1 -73h540v-101q0 -69 -42 -99t-128 -30h-370v-82
q0 -92 15 -148.5t51 -88t92.5 -43t138.5 -11.5h90q77 0 154 7.5t153 23.5zM877 106.5q62 -2.25 97.5 -28.5t35.5 -68.25q0 -44.25 -39 -73.125t-98 -28.875q-64 0 -99.5 37.125t-35.5 95.625q0 73.5 51.5 142.5t145.5 118.5l73 -54q-114 -61.5 -131 -141z" />
    <glyph glyph-name="eogonek" unicode="&#x119;" horiz-adv-x="960" 
d="M806 735q0 84 -56.5 125t-152.5 41q-49 0 -91 -19.5t-73 -51t-48 -74.5t-19 -90l-2 -37h122q99 0 160.5 6t97 18.5t49 33t13.5 48.5zM1064 702q0 -151 -123 -209.5t-395 -58.5h-180q16 -104 101 -165.5t208 -61.5q86 0 179 21.5t159 82.5h10v-86q0 -53 -19.5 -98
t-66.5 -79t-124 -53.5t-189 -19.5q-103 0 -201 39t-174 112t-122 175t-46 229q0 138 40 249.5t111.5 189.5t171 119.5t218.5 41.5q86 0 165.5 -29.5t141 -84.5t98.5 -135t37 -179zM755 238.5q62 -2.25 97.5 -28.5t35.5 -68.25q0 -44.25 -39 -73.125t-98 -28.875
q-64 0 -99.5 37.125t-35.5 95.625q0 73.5 51.5 142.5t145.5 118.5l73 -54q-114 -61.5 -131 -141z" />
    <glyph glyph-name="Ecaron" unicode="&#x11a;" horiz-adv-x="1118" 
d="M1099 164q0 -43 -13.5 -75t-47 -54.5t-93 -33.5t-151.5 -11h-150q-258 0 -390 138t-132 409v260q0 100 7 204.5t20 190.5q16 125 72.5 168t142.5 43h733v-94q0 -148 -189 -148h-481q-6 -39 -9 -82t-6 -87t-4 -85t-1 -73h540v-101q0 -69 -42 -99t-128 -30h-370v-82
q0 -92 15 -148.5t51 -88t92.5 -43t138.5 -11.5h90q77 0 154 7.5t153 23.5zM719 1911h162l-222 -311h-208l-222 311h162l164 -209z" />
    <glyph glyph-name="ecaron" unicode="&#x11b;" horiz-adv-x="960" 
d="M806 735q0 84 -56.5 125t-152.5 41q-49 0 -91 -19.5t-73 -51t-48 -74.5t-19 -90l-2 -37h122q99 0 160.5 6t97 18.5t49 33t13.5 48.5zM1064 702q0 -151 -123 -209.5t-395 -58.5h-180q16 -104 101 -165.5t208 -61.5q86 0 179 21.5t159 82.5h10v-86q0 -53 -19.5 -98
t-66.5 -79t-124 -53.5t-189 -19.5q-103 0 -201 39t-174 112t-122 175t-46 229q0 138 40 249.5t111.5 189.5t171 119.5t218.5 41.5q86 0 165.5 -29.5t141 -84.5t98.5 -135t37 -179zM667 1583h162l-222 -311h-208l-222 311h162l164 -209z" />
    <glyph glyph-name="Gbreve" unicode="&#x11e;" horiz-adv-x="1199" 
d="M1253 326q0 -80 -23.5 -144.5t-78.5 -110.5t-144 -71t-221 -25q-139 0 -266 49.5t-223 141.5t-153.5 223t-57.5 295q0 156 52 291t151.5 235.5t242 158.5t322.5 58q98 0 169 -24.5t117 -64.5t68.5 -89t22.5 -98v-96h-10q-72 59 -180.5 89t-219.5 30q-98 0 -180 -34
t-141.5 -94.5t-92 -142.5t-32.5 -180q0 -133 33.5 -226.5t94 -152.5t141.5 -87t175 -28q101 0 134.5 36t33.5 97v113q0 41 -3 78t-7 65l-10 62h143q59 0 101 -41t42 -88v-225zM931 1777q-42 -120 -107 -180q-81 -74 -207 -74q-228 0 -315 254h149q49 -121 166 -121
q68 0 117 47q31 30 50 74h147z" />
    <glyph glyph-name="gbreve" unicode="&#x11f;" horiz-adv-x="1094" 
d="M618 887q-53 0 -98 -21.5t-78.5 -59.5t-52 -90t-18.5 -114q0 -108 60.5 -179t158.5 -71q104 0 169.5 73t65.5 206q0 129 -57 192.5t-150 63.5zM1100 459q0 -29 1 -71t3 -79q2 -35 3 -73.5t1 -67.5q0 -105 -35 -199t-102.5 -166.5t-169 -115.5t-234.5 -43
q-86 0 -155.5 19.5t-120.5 52t-79 76.5t-28 93v125h13q49 -53 140 -86t210 -33q149 0 219 67t70 187v28t-2 30q0 12 -1.5 29.5t-1.5 25.5v27q-8 -31 -31.5 -59.5t-60.5 -52t-85 -38t-107 -14.5q-101 0 -184.5 32.5t-145 92t-95.5 141.5t-34 180q0 117 38 219.5t109.5 179
t176 120.5t237.5 44q103 0 187 -35.5t142 -100t90 -152.5t32 -195v-188zM836 1449q-42 -120 -107 -180q-81 -74 -207 -74q-228 0 -315 254h149q49 -121 166 -121q68 0 117 47q31 30 50 74h147z" />
    <glyph glyph-name="Gcedilla" unicode="&#x122;" horiz-adv-x="1149" 
d="M602 -16q-247 0 -372.5 186.5t-125.5 597.5q0 356 151 547.5t443 191.5q148 0 277 -39v-147q-117 37 -268 37q-184 0 -279.5 -160t-95.5 -426q0 -348 75.5 -495.5t217.5 -147.5q87 0 140.5 58.5t53.5 150.5v326h-219v143h434v-807h-112l-41 133q-38 -70 -116 -109.5
t-163 -39.5zM401 -348v104q108 6 146 27q-47 28 -47 84q0 102 108 102q111 0 111 -129q0 -92 -79.5 -139t-238.5 -49z" />
    <glyph glyph-name="gcedilla" unicode="&#x123;" horiz-adv-x="1124" 
d="M815 1022l45 141h119v-1108q0 -188 -116.5 -291.5t-319.5 -103.5q-166 0 -377 53v150q220 -53 352 -53q115 0 168.5 42.5t66.5 111t13 194.5v30q-85 -122 -272 -122q-199 0 -298.5 137.5t-99.5 412.5q0 263 110 413.5t318 150.5q200 0 291 -158zM543 211q111 0 169 79.5
t58 342.5q0 202 -54.5 303.5t-162.5 101.5q-115 0 -175.5 -87t-60.5 -318q0 -211 56.5 -316.5t169.5 -105.5zM582 1683l53 -71q-84 -56 -96 -119q53 -1 87 -32.5t34 -84.5q0 -52 -36 -86.5t-89 -34.5q-61 0 -91 39.5t-30 118.5q0 82 47.5 157t120.5 113z" />
    <glyph glyph-name="Itilde" unicode="&#x128;" horiz-adv-x="542" 
d="M339 0q-30 0 -61 12.5t-54.5 35t-39 57t-15.5 81.5v1217h127q27 0 53.5 -10.5t48 -31t35 -48t13.5 -60.5v-1253h-107zM577 1744l60 74l30 -36l-146 -182q-70 -111 -213.5 -16.5t-248.5 28.5l-72 -78l-34 35l128 160q113 152 261 53t235 -38z" />
    <glyph glyph-name="itilde" unicode="&#x129;" horiz-adv-x="531" 
d="M176 559q-5 -347 2.5 -429.5t98.5 -136.5l220 206l1 29q-60 -3 -74 82.5t-8 294.5t3 274t-60 130l-262 -182l17 -30q94 53 62 -238zM535 1287l60 74l30 -36l-146 -182q-70 -111 -213.5 -16.5t-248.5 28.5l-72 -78l-34 35l128 160q113 152 261 53t235 -38z" />
    <glyph glyph-name="Imacron" unicode="&#x12a;" horiz-adv-x="542" 
d="M278 0q-30 0 -61 12.5t-54.5 35t-39 57t-15.5 81.5v1217h127q27 0 53.5 -10.5t48 -31t35 -48t13.5 -60.5v-1253h-107zM592 1736q0 -53 -35 -82.5t-98 -29.5h-471v104q0 51 33.5 84t93.5 33h477v-109z" />
    <glyph glyph-name="imacron" unicode="&#x12b;" horiz-adv-x="531" 
d="M587 156q0 -90 -46 -128t-138 -38q-172 0 -261.5 88t-89.5 256v733h78q105 0 151 -53.5t46 -131.5v-522q0 -84 44 -114.5t142 -30.5h74v-59zM550 1408q0 -53 -35 -82.5t-98 -29.5h-471v104q0 51 33.5 84t93.5 33h477v-109z" />
    <glyph glyph-name="Iogonek" unicode="&#x12e;" horiz-adv-x="542" 
d="M309 0q-30 0 -61 12.5t-54.5 35t-39 57t-15.5 81.5v1217h127q27 0 53.5 -10.5t48 -31t35 -48t13.5 -60.5v-1253h-107zM331 106.5q62 -2.25 97.5 -28.5t35.5 -68.25q0 -44.25 -39 -73.125t-98 -28.875q-64 0 -99.5 37.125t-35.5 95.625q0 73.5 51.5 142.5t145.5 118.5
l73 -54q-114 -61.5 -131 -141z" />
    <glyph glyph-name="iogonek" unicode="&#x12f;" horiz-adv-x="531" 
d="M662 156q0 -90 -38 -128t-126 -38q-160 0 -245 88t-85 256v747h78q92 0 144 -50t52 -154v-517q0 -84 38 -114.5t130 -30.5h52v-59zM465 1346q0 -66 -48 -114t-114 -48q-65 0 -112.5 48t-47.5 114q0 65 47.5 112t112.5 47q66 0 114 -47t48 -112zM302 106.5
q62 -2.25 97.5 -28.5t35.5 -68.25q0 -44.25 -39 -73.125t-98 -28.875q-64 0 -99.5 37.125t-35.5 95.625q0 73.5 51.5 142.5t145.5 118.5l73 -54q-114 -61.5 -131 -141z" />
    <glyph glyph-name="Idot" unicode="&#x130;" horiz-adv-x="542" 
d="M309 0q-30 0 -61 12.5t-54.5 35t-39 57t-15.5 81.5v1217h127q27 0 53.5 -10.5t48 -31t35 -48t13.5 -60.5v-1253h-107zM505.639 1799.43q0 -31.4492 -12.3252 -58.2236q-12.3242 -26.7744 -32.2988 -46.748q-19.9746 -19.9746 -46.748 -32.2998
q-26.7744 -12.3242 -58.2236 -12.3242t-58.6484 12.3242q-27.1992 12.3252 -47.1738 32.2998q-19.9746 19.9736 -31.874 46.748t-11.8994 58.2236t11.8994 58.2236q11.8994 26.7734 31.874 47.1729t47.1738 32.2998q27.1992 11.8994 58.6484 11.8994t58.2236 -11.8994
q26.7734 -11.9004 46.748 -32.2998t32.2988 -47.1729q12.3252 -26.7744 12.3252 -58.2236z" />
    <glyph glyph-name="Kcedilla" unicode="&#x136;" horiz-adv-x="1071" 
d="M588 807l471 -807h-254l-432 770v-770h-215v1491h215v-692l450 692h228zM372 -348v104q108 6 146 27q-47 28 -47 84q0 102 108 102q111 0 111 -129q0 -92 -79.5 -139t-238.5 -49z" />
    <glyph glyph-name="kcedilla" unicode="&#x137;" horiz-adv-x="1010" 
d="M586 657l424 -657h-252l-400 633v-633h-213v1583h213v-946l394 526h233zM339 -348v104q108 6 146 27q-47 28 -47 84q0 102 108 102q111 0 111 -129q0 -92 -79.5 -139t-238.5 -49z" />
    <glyph glyph-name="Lacute" unicode="&#x139;" horiz-adv-x="1007" 
d="M1057 190q0 -47 -13.5 -83.5t-46 -63.5t-90 -41t-143.5 -14h-109q-247 0 -379.5 133t-132.5 387v895h115q174 0 174 -205v-672q0 -80 11.5 -135t40 -90t78.5 -50t130 -15h72q100 0 177 17t116 34v-97zM713 1746l-105 106q-222 -217 -359 -218l121 -137q96 5 343 249z" />
    <glyph glyph-name="lacute" unicode="&#x13a;" horiz-adv-x="445" 
d="M768 156q0 -90 -46 -128t-138 -38q-172 0 -261.5 88t-89.5 256v1141h78q105 0 151 -53.5t46 -131.5v-930q0 -84 44 -114.5t142 -30.5h74v-59zM511 1686l-105 106q-222 -217 -359 -218l121 -137q96 5 343 249z" />
    <glyph glyph-name="Lcedilla" unicode="&#x13b;" horiz-adv-x="909" 
d="M158 0v1491h215v-1341h504v-150h-719zM358 -348v104q108 6 146 27q-47 28 -47 84q0 102 108 102q111 0 111 -129q0 -92 -79.5 -139t-238.5 -49z" />
    <glyph glyph-name="lcedilla" unicode="&#x13c;" horiz-adv-x="504" 
d="M145 0v1583h213v-1583h-213zM66 -348v104q108 6 146 27q-47 28 -47 84q0 102 108 102q111 0 111 -129q0 -92 -79.5 -139t-238.5 -49z" />
    <glyph glyph-name="Lcaron" unicode="&#x13d;" horiz-adv-x="909" 
d="M158 0v1491h215v-1341h504v-150h-719zM608 1126l-66 64q102 72 117 170q-60 1 -89.5 30.5t-29.5 86.5q0 52 35 86t88 34q60 0 90.5 -39.5t30.5 -117.5q0 -96 -44 -174.5t-132 -139.5z" />
    <glyph glyph-name="lcaron" unicode="&#x13e;" horiz-adv-x="707" 
d="M145 0v1583h213v-1583h-213zM531 1126l-66 64q102 72 117 170q-60 1 -89.5 30.5t-29.5 86.5q0 52 35 86t88 34q60 0 90.5 -39.5t30.5 -117.5q0 -96 -44 -174.5t-132 -139.5z" />
    <glyph glyph-name="Nacute" unicode="&#x143;" horiz-adv-x="1148" 
d="M1165 0q-41 0 -84 10t-92 48t-104.5 112t-120.5 201l-256 497q-57 115 -94 164v-1032h-111q-31 0 -61.5 11.5t-54 35t-39 57t-15.5 80.5v1219h139q140 0 233 -73t165 -214l245 -491q23 -43 44.5 -98.5t37.5 -90.5v967h125q27 0 54.5 -12.5t49 -35t36 -52t14.5 -62.5
v-1241h-111zM805 1746l-105 106q-222 -217 -359 -218l121 -137q96 5 343 249z" />
    <glyph glyph-name="nacute" unicode="&#x144;" horiz-adv-x="1041" 
d="M1032 0q-92 0 -146.5 51t-54.5 129v438q0 142 -58 205.5t-165 63.5q-90 0 -145 -64.5t-55 -183.5v-639h-82q-88 0 -140.5 51t-52.5 129v477q0 88 30 173t90 152t154.5 107.5t223.5 40.5q98 0 184 -31.5t150.5 -94t102.5 -153.5t38 -208v-643h-74zM753 1418l-105 106
q-222 -217 -359 -218l121 -137q96 5 343 249z" />
    <glyph glyph-name="Ncedilla" unicode="&#x145;" horiz-adv-x="1296" 
d="M979 0l-614 1110v-1110h-207v1491h176l598 -1079v1079h207v-1491h-160zM470 -348v104q108 6 146 27q-47 28 -47 84q0 102 108 102q111 0 111 -129q0 -92 -79.5 -139t-238.5 -49z" />
    <glyph glyph-name="ncedilla" unicode="&#x146;" horiz-adv-x="1141" 
d="M999 0h-213v772q0 131 -46 196.5t-138 65.5q-116 0 -180 -88t-64 -229v-717h-213v1163h119l43 -172q111 189 338 189q177 0 265.5 -93t88.5 -278v-809zM387 -348v104q108 6 146 27q-47 28 -47 84q0 102 108 102q111 0 111 -129q0 -92 -79.5 -139t-238.5 -49z" />
    <glyph glyph-name="Ncaron" unicode="&#x147;" horiz-adv-x="1148" 
d="M1165 0q-41 0 -84 10t-92 48t-104.5 112t-120.5 201l-256 497q-57 115 -94 164v-1032h-111q-31 0 -61.5 11.5t-54 35t-39 57t-15.5 80.5v1219h139q140 0 233 -73t165 -214l245 -491q23 -43 44.5 -98.5t37.5 -90.5v967h125q27 0 54.5 -12.5t49 -35t36 -52t14.5 -62.5
v-1241h-111zM737 1911h162l-222 -311h-208l-222 311h162l164 -209z" />
    <glyph glyph-name="ncaron" unicode="&#x148;" horiz-adv-x="1041" 
d="M1032 0q-92 0 -146.5 51t-54.5 129v438q0 142 -58 205.5t-165 63.5q-90 0 -145 -64.5t-55 -183.5v-639h-82q-88 0 -140.5 51t-52.5 129v477q0 88 30 173t90 152t154.5 107.5t223.5 40.5q98 0 184 -31.5t150.5 -94t102.5 -153.5t38 -208v-643h-74zM685 1583h162l-222 -311
h-208l-222 311h162l164 -209z" />
    <glyph glyph-name="Eng" unicode="&#x14a;" horiz-adv-x="1148" 
d="M1165 0q-41 0 -84 10t-92 48t-104.5 112t-120.5 201l-256 497q-57 115 -94 164v-1032h-111q-31 0 -61.5 11.5t-54 35t-39 57t-15.5 80.5v1219h139q140 0 233 -73t165 -214l245 -491q23 -43 44.5 -98.5t37.5 -90.5v967h125q27 0 54.5 -12.5t49 -35t36 -52t14.5 -62.5
v-1241h-111zM1261 70q0 -68 -23 -131.5t-61.5 -112.5t-91 -79t-111.5 -30h-56v13q41 39 68 102.5t27 108.5q0 59 -33 92q-23 22 -39 46.5t-16 72.5q0 63 45 107t114 44q80 0 128.5 -59.5t48.5 -173.5z" />
    <glyph glyph-name="eng" unicode="&#x14b;" horiz-adv-x="1041" 
d="M1032 0q-92 0 -146.5 51t-54.5 129v438q0 142 -58 205.5t-165 63.5q-90 0 -145 -64.5t-55 -183.5v-639h-82q-88 0 -140.5 51t-52.5 129v477q0 88 30 173t90 152t154.5 107.5t223.5 40.5q98 0 184 -31.5t150.5 -94t102.5 -153.5t38 -208v-643h-74zM1150 70
q0 -68 -23 -131.5t-61.5 -112.5t-91 -79t-111.5 -30h-56v13q41 39 68 102.5t27 108.5q0 59 -33 92q-23 22 -39 46.5t-16 72.5q0 63 45 107t114 44q80 0 128.5 -59.5t48.5 -173.5z" />
    <glyph glyph-name="Omacron" unicode="&#x14c;" horiz-adv-x="1144" 
d="M1110 684q0 248 -99.5 372t-279.5 124q-78 0 -143.5 -31t-112.5 -90.5t-73.5 -144.5t-26.5 -191q0 -504 379 -504q164 0 260 116t96 349zM1399 723q0 -160 -45 -297t-131 -236.5t-211 -157t-285 -57.5q-133 0 -250 51.5t-204 143.5t-137 222t-50 288q0 164 45 301
t131 236.5t211 154.5t285 55q127 0 243.5 -47t204.5 -138t140.5 -222t52.5 -297zM915 1736q0 -53 -35 -82.5t-98 -29.5h-471v104q0 51 33.5 84t93.5 33h477v-109z" />
    <glyph glyph-name="omacron" unicode="&#x14d;" horiz-adv-x="1007" 
d="M865 532q0 166 -63.5 259.5t-198.5 93.5q-119 0 -178 -88t-59 -226q0 -165 62.5 -257.5t199.5 -92.5q121 0 179 88t58 223zM81 532q0 125 35 233.5t104.5 189.5t172 128t235.5 47q125 0 222 -46t163.5 -123.5t101.5 -178t35 -211.5q0 -125 -36 -233.5t-104.5 -189
t-171 -127t-235.5 -46.5q-125 0 -222 46.5t-163.5 123t-101.5 177t-35 210.5zM851 1408q0 -53 -35 -82.5t-98 -29.5h-471v104q0 51 33.5 84t93.5 33h477v-109z" />
    <glyph glyph-name="Odblacute" unicode="&#x150;" horiz-adv-x="1144" 
d="M1110 684q0 248 -99.5 372t-279.5 124q-78 0 -143.5 -31t-112.5 -90.5t-73.5 -144.5t-26.5 -191q0 -504 379 -504q164 0 260 116t96 349zM1399 723q0 -160 -45 -297t-131 -236.5t-211 -157t-285 -57.5q-133 0 -250 51.5t-204 143.5t-137 222t-50 288q0 164 45 301
t131 236.5t211 154.5t285 55q127 0 243.5 -47t204.5 -138t140.5 -222t52.5 -297zM576 1746l-105 106q-222 -217 -359 -218l121 -137q96 5 343 249zM932 1746l-105 106q-222 -217 -359 -218l121 -137q96 5 343 249z" />
    <glyph glyph-name="odblacute" unicode="&#x151;" horiz-adv-x="1007" 
d="M884 532q0 166 -63.5 259.5t-198.5 93.5q-119 0 -178 -88t-59 -226q0 -165 62.5 -257.5t199.5 -92.5q121 0 179 88t58 223zM100 532q0 125 35 233.5t104.5 189.5t172 128t235.5 47q125 0 222 -46t163.5 -123.5t101.5 -178t35 -211.5q0 -125 -36 -233.5t-104.5 -189
t-171 -127t-235.5 -46.5q-125 0 -222 46.5t-163.5 123t-101.5 177t-35 210.5zM531 1418l-105 106q-222 -217 -359 -218l121 -137q96 5 343 249zM887 1418l-105 106q-222 -217 -359 -218l121 -137q96 5 343 249z" />
    <glyph glyph-name="Racute" unicode="&#x154;" horiz-adv-x="1097" 
d="M539 1174q-11 0 -27 -1.5t-34.5 -3.5t-35 -5t-28.5 -5v-371q47 -10 95 -11t105 -1q86 0 148.5 48t62.5 143q0 63 -15 103t-43 63.5t-66.5 32t-84.5 8.5h-77zM1194 35q-25 -27 -50.5 -36t-84.5 -9q-68 0 -122 28.5t-83 96.5l-104 254q-25 57 -47.5 90t-47 50t-50 24.5
t-52.5 11.5q-47 8 -82 13t-57 5v-563h-90q-95 0 -143 51t-48 137v1176q23 8 67 17.5t96 16.5t105.5 12t92.5 5h155q105 0 190 -29.5t145 -84t93 -128t33 -161.5q0 -72 -22.5 -135.5t-60.5 -113.5t-91 -83t-115 -41q58 -23 103 -79t71 -118l113 -262q27 -61 50.5 -94
t35.5 -51zM801 1746l-105 106q-222 -217 -359 -218l121 -137q96 5 343 249z" />
    <glyph glyph-name="racute" unicode="&#x155;" horiz-adv-x="862" 
d="M760 838q-31 12 -69 22t-91 10q-92 0 -141 -54t-49 -181v-635h-76q-92 0 -146.5 45t-54.5 131v508q0 82 22.5 161t71.5 138t127 96t187 37q63 0 107 -16.5t70.5 -42t39 -58t12.5 -63.5v-98h-10zM660 1418l-105 106q-222 -217 -359 -218l121 -137q96 5 343 249z" />
    <glyph glyph-name="Rcedilla" unicode="&#x156;" horiz-adv-x="1116" 
d="M737 680l355 -680h-248l-314 645h-157v-645h-215v1491h420q225 0 331.5 -99.5t106.5 -306.5q0 -151 -71 -256.5t-208 -148.5zM373 791h168q127 0 190.5 73.5t63.5 220.5q0 130 -59 195.5t-177 65.5h-186v-555zM411 -348v104q108 6 146 27q-47 28 -47 84q0 102 108 102
q111 0 111 -129q0 -92 -79.5 -139t-238.5 -49z" />
    <glyph glyph-name="rcedilla" unicode="&#x157;" horiz-adv-x="731" 
d="M264 1163l49 -194q97 205 338 205q32 0 47 -3v-194q-25 2 -75 2q-137 0 -201 -65.5t-64 -204.5v-709h-213v1163h119zM72 -348v104q108 6 146 27q-47 28 -47 84q0 102 108 102q111 0 111 -129q0 -92 -79.5 -139t-238.5 -49z" />
    <glyph glyph-name="Rcaron" unicode="&#x158;" horiz-adv-x="1097" 
d="M539 1174q-11 0 -27 -1.5t-34.5 -3.5t-35 -5t-28.5 -5v-371q47 -10 95 -11t105 -1q86 0 148.5 48t62.5 143q0 63 -15 103t-43 63.5t-66.5 32t-84.5 8.5h-77zM1194 35q-25 -27 -50.5 -36t-84.5 -9q-68 0 -122 28.5t-83 96.5l-104 254q-25 57 -47.5 90t-47 50t-50 24.5
t-52.5 11.5q-47 8 -82 13t-57 5v-563h-90q-95 0 -143 51t-48 137v1176q23 8 67 17.5t96 16.5t105.5 12t92.5 5h155q105 0 190 -29.5t145 -84t93 -128t33 -161.5q0 -72 -22.5 -135.5t-60.5 -113.5t-91 -83t-115 -41q58 -23 103 -79t71 -118l113 -262q27 -61 50.5 -94
t35.5 -51zM733 1911h162l-222 -311h-208l-222 311h162l164 -209z" />
    <glyph glyph-name="rcaron" unicode="&#x159;" horiz-adv-x="862" 
d="M760 838q-31 12 -69 22t-91 10q-92 0 -141 -54t-49 -181v-635h-76q-92 0 -146.5 45t-54.5 131v508q0 82 22.5 161t71.5 138t127 96t187 37q63 0 107 -16.5t70.5 -42t39 -58t12.5 -63.5v-98h-10zM592 1583h162l-222 -311h-208l-222 311h162l164 -209z" />
    <glyph glyph-name="Sacute" unicode="&#x15a;" horiz-adv-x="1046" 
d="M1079 434q0 -104 -34.5 -188t-102.5 -144.5t-166 -93.5t-225 -33q-213 0 -320.5 76t-107.5 201v125h6q72 -64 167 -108t224 -44q158 0 218.5 50.5t60.5 134.5q0 36 -10.5 63t-45 50.5t-101.5 44t-177 44.5q-180 39 -276.5 128t-96.5 233q0 88 36 170t103.5 145.5t166 101
t220.5 37.5q123 0 204 -23.5t130 -60t68.5 -83t19.5 -89.5v-129h-8q-129 138 -364 138q-164 0 -230.5 -49.5t-66.5 -131.5q0 -30 14 -57t51 -49.5t100.5 -43t161.5 -40.5q193 -41 287 -137.5t94 -237.5zM737 1746l-105 106q-222 -217 -359 -218l121 -137q96 5 343 249z" />
    <glyph glyph-name="sacute" unicode="&#x15b;" horiz-adv-x="960" 
d="M927 348q0 -176 -119 -274.5t-342 -98.5q-76 0 -140.5 18.5t-112.5 48.5t-74.5 69t-26.5 82v124h10q22 -20 58 -39.5t81 -34t94.5 -22.5t98.5 -8q200 0 200 121q0 24 -9 41.5t-33.5 32t-69.5 25.5t-117 22q-176 24 -261 95t-85 198q0 77 33.5 147t95 122t147.5 82.5
t193 30.5q94 0 160.5 -21.5t109.5 -56t62.5 -76.5t19.5 -81v-104h-10q-43 43 -130 72.5t-186 29.5q-126 0 -173.5 -35t-47.5 -88q0 -20 8.5 -35.5t32 -28t66.5 -22.5t114 -22q175 -29 264 -105t89 -209zM703 1418l-105 106q-222 -217 -359 -218l121 -137q96 5 343 249z" />
    <glyph glyph-name="Scedilla" unicode="&#x15e;" horiz-adv-x="1046" 
d="M1079 434q0 -104 -34.5 -188t-102.5 -144.5t-166 -93.5t-225 -33q-213 0 -320.5 76t-107.5 201v125h6q72 -64 167 -108t224 -44q158 0 218.5 50.5t60.5 134.5q0 36 -10.5 63t-45 50.5t-101.5 44t-177 44.5q-180 39 -276.5 128t-96.5 233q0 88 36 170t103.5 145.5t166 101
t220.5 37.5q123 0 204 -23.5t130 -60t68.5 -83t19.5 -89.5v-129h-8q-129 138 -364 138q-164 0 -230.5 -49.5t-66.5 -131.5q0 -30 14 -57t51 -49.5t100.5 -43t161.5 -40.5q193 -41 287 -137.5t94 -237.5zM512 27v-60q72 -2 111 -37.5t39 -95.5q0 -176 -314 -182v104
q98 4 137 21.5t39 54.5q0 43 -33 58t-89 16l6 121h104z" />
    <glyph glyph-name="scedilla" unicode="&#x15f;" horiz-adv-x="960" 
d="M927 376q0 -176 -119 -274.5t-342 -98.5q-76 0 -140.5 18.5t-112.5 48.5t-74.5 69t-26.5 82v124h10q22 -20 58 -39.5t81 -34t94.5 -22.5t98.5 -8q200 0 200 121q0 24 -9 41.5t-33.5 32t-69.5 25.5t-117 22q-176 24 -261 95t-85 198q0 77 33.5 147t95 122t147.5 82.5
t193 30.5q94 0 160.5 -21.5t109.5 -56t62.5 -76.5t19.5 -81v-104h-10q-43 43 -130 72.5t-186 29.5q-126 0 -173.5 -35t-47.5 -88q0 -20 8.5 -35.5t32 -28t66.5 -22.5t114 -22q175 -29 264 -105t89 -209zM478 55v-60q72 -2 111 -37.5t39 -95.5q0 -176 -314 -182v104
q98 4 137 21.5t39 54.5q0 43 -33 58t-89 16l6 121h104z" />
    <glyph glyph-name="Tcedilla" unicode="&#x162;" horiz-adv-x="1063" 
d="M1122 1315q0 -25 -13 -53.5t-35.5 -51t-53.5 -38t-66 -15.5h-258v-1157h-112q-74 0 -122 47t-48 141v969h-404v92q0 25 10.5 52.5t32 50t53 37t74.5 14.5h942v-88zM550 27v-60q72 -2 111 -37.5t39 -95.5q0 -176 -314 -182v104q98 4 137 21.5t39 54.5q0 43 -33 58t-89 16
l6 121h104z" />
    <glyph glyph-name="tcedilla" unicode="&#x163;" horiz-adv-x="743" 
d="M143 1061q0 41 4.5 70.5t13.5 54t24.5 46t37.5 48.5q29 33 62.5 54.5t66.5 21.5h64v-250h383v-113q0 -43 -40 -87t-124 -44h-219v-432q0 -108 45 -153.5t129 -45.5q135 0 198 39h11v-98q0 -86 -60.5 -135t-181.5 -49q-211 0 -312.5 107.5t-101.5 301.5v664zM347 27v-60
q72 -2 111 -37.5t39 -95.5q0 -176 -314 -182v104q98 4 137 21.5t39 54.5q0 43 -33 58t-89 16l6 121h104z" />
    <glyph glyph-name="Tcaron" unicode="&#x164;" horiz-adv-x="1063" 
d="M1122 1315q0 -25 -13 -53.5t-35.5 -51t-53.5 -38t-66 -15.5h-258v-1157h-112q-74 0 -122 47t-48 141v969h-404v92q0 25 10.5 52.5t32 50t53 37t74.5 14.5h942v-88zM707 1911h162l-222 -311h-208l-222 311h162l164 -209z" />
    <glyph glyph-name="tcaron" unicode="&#x165;" horiz-adv-x="842" 
d="M442 -16q-131 0 -196.5 66.5t-65.5 199.5v774h-153v80l311 317h55v-258h283v-139h-283v-739q0 -93 31 -124.5t94 -31.5q62 0 176 29v-138q-134 -36 -252 -36zM711 1165l-66 64q42 40 53 59.5t19 71.5q-60 1 -89.5 30.5t-29.5 86.5q0 52 35 86t88 34q60 0 90.5 -39.5
t30.5 -117.5q0 -81 -25.5 -140t-105.5 -135z" />
    <glyph glyph-name="Tbar" unicode="&#x166;" horiz-adv-x="1063" 
d="M1122 1315q0 -25 -13 -53.5t-35.5 -51t-53.5 -38t-66 -15.5h-258v-1157h-112q-74 0 -122 47t-48 141v969h-404v92q0 25 10.5 52.5t32 50t53 37t74.5 14.5h942v-88zM49 372v174h1157v-174h-1157z" />
    <glyph glyph-name="tbar" unicode="&#x167;" horiz-adv-x="743" 
d="M143 1061q0 41 4.5 70.5t13.5 54t24.5 46t37.5 48.5q29 33 62.5 54.5t66.5 21.5h64v-250h383v-113q0 -43 -40 -87t-124 -44h-219v-432q0 -108 45 -153.5t129 -45.5q135 0 198 39h11v-98q0 -86 -60.5 -135t-181.5 -49q-211 0 -312.5 107.5t-101.5 301.5v664zM-154 205v174
h1157v-174h-1157z" />
    <glyph glyph-name="Utilde" unicode="&#x168;" horiz-adv-x="1122" 
d="M1253 633q0 -309 -145 -483.5t-446 -174.5q-127 0 -230.5 42t-176.5 123t-113 199t-40 269v795h109q33 0 64.5 -13.5t56 -43t39 -78.5t14.5 -123v-518q0 -199 70.5 -294t234.5 -95q150 0 215.5 96t65.5 282v787h106q80 0 128 -60.5t48 -189.5v-520zM861 1739l60 74
l30 -36l-146 -182q-70 -111 -213.5 -16.5t-248.5 28.5l-72 -78l-34 35l128 160q113 152 261 53t235 -38z" />
    <glyph glyph-name="utilde" unicode="&#x169;" horiz-adv-x="1084" 
d="M1104 496q0 -521 -483 -521q-103 0 -192 33t-154.5 97.5t-103.5 157.5t-38 214v629h51q119 0 173.5 -49t54.5 -148v-405q0 -152 64.5 -218.5t158.5 -66.5q86 0 139 62.5t53 203.5v621h50q120 0 173.5 -49t53.5 -148v-413zM815 1283l60 74l30 -36l-146 -182
q-70 -111 -213.5 -16.5t-248.5 28.5l-72 -78l-34 35l128 160q113 152 261 53t235 -38z" />
    <glyph glyph-name="Umacron" unicode="&#x16a;" horiz-adv-x="1122" 
d="M1253 633q0 -309 -145 -483.5t-446 -174.5q-127 0 -230.5 42t-176.5 123t-113 199t-40 269v795h109q33 0 64.5 -13.5t56 -43t39 -78.5t14.5 -123v-518q0 -199 70.5 -294t234.5 -95q150 0 215.5 96t65.5 282v787h106q80 0 128 -60.5t48 -189.5v-520zM915 1736
q0 -53 -35 -82.5t-98 -29.5h-471v104q0 51 33.5 84t93.5 33h477v-109z" />
    <glyph glyph-name="umacron" unicode="&#x16b;" horiz-adv-x="1084" 
d="M1104 496q0 -521 -483 -521q-103 0 -192 33t-154.5 97.5t-103.5 157.5t-38 214v629h51q119 0 173.5 -49t54.5 -148v-405q0 -152 64.5 -218.5t158.5 -66.5q86 0 139 62.5t53 203.5v621h50q120 0 173.5 -49t53.5 -148v-413zM890 1408q0 -53 -35 -82.5t-98 -29.5h-471v104
q0 51 33.5 84t93.5 33h477v-109z" />
    <glyph glyph-name="Uring" unicode="&#x16e;" horiz-adv-x="1122" 
d="M1253 633q0 -309 -145 -483.5t-446 -174.5q-127 0 -230.5 42t-176.5 123t-113 199t-40 269v795h109q33 0 64.5 -13.5t56 -43t39 -78.5t14.5 -123v-518q0 -199 70.5 -294t234.5 -95q150 0 215.5 96t65.5 282v787h106q80 0 128 -60.5t48 -189.5v-520zM576 1989
q89 0 144 -57.5t55 -141.5q0 -87 -56 -143.5t-143 -56.5q-83 0 -142 56.5t-59 143.5q0 84 56.5 141.5t144.5 57.5zM576 1678q48 0 77.5 31t29.5 81t-29 80.5t-78 30.5t-79 -30.5t-30 -80.5t30 -81t79 -31z" />
    <glyph glyph-name="uring" unicode="&#x16f;" horiz-adv-x="1084" 
d="M1104 496q0 -521 -483 -521q-103 0 -192 33t-154.5 97.5t-103.5 157.5t-38 214v629h51q119 0 173.5 -49t54.5 -148v-405q0 -152 64.5 -218.5t158.5 -66.5q86 0 139 62.5t53 203.5v621h50q120 0 173.5 -49t53.5 -148v-413zM551 1661q89 0 144 -57.5t55 -141.5
q0 -87 -56 -143.5t-143 -56.5q-83 0 -142 56.5t-59 143.5q0 84 56.5 141.5t144.5 57.5zM551 1350q48 0 77.5 31t29.5 81t-29 80.5t-78 30.5t-79 -30.5t-30 -80.5t30 -81t79 -31z" />
    <glyph glyph-name="Udblacute" unicode="&#x170;" horiz-adv-x="1122" 
d="M1253 633q0 -309 -145 -483.5t-446 -174.5q-127 0 -230.5 42t-176.5 123t-113 199t-40 269v795h109q33 0 64.5 -13.5t56 -43t39 -78.5t14.5 -123v-518q0 -199 70.5 -294t234.5 -95q150 0 215.5 96t65.5 282v787h106q80 0 128 -60.5t48 -189.5v-520zM576 1746l-105 106
q-222 -217 -359 -218l121 -137q96 5 343 249zM932 1746l-105 106q-222 -217 -359 -218l121 -137q96 5 343 249z" />
    </font>
</defs>
</svg>
